<svg width="701" height="701" viewBox="0 0 701 701" fill="none" xmlns="http://www.w3.org/2000/svg">
<path d="M542.574 183.466C542.574 183.466 482.723 121.624 387.961 124.582C293.2 127.54 212.389 187.433 145.556 234.316C78.7223 281.199 60.7767 354.047 99.6822 410.898C138.588 467.749 200.43 443.817 279.222 480.718C358.015 517.618 372.932 538.578 460.767 529.606C548.603 520.633 615.394 428.858 605.412 331.096C595.429 233.335 542.574 183.466 542.574 183.466Z" fill="#C80036"/>
<path opacity="0.7" d="M542.574 183.466C542.574 183.466 482.723 121.624 387.961 124.582C293.2 127.54 212.389 187.433 145.556 234.316C78.7223 281.199 60.7767 354.047 99.6822 410.898C138.588 467.749 200.43 443.817 279.222 480.718C358.015 517.618 372.932 538.578 460.767 529.606C548.603 520.633 615.394 428.858 605.412 331.096C595.429 233.335 542.574 183.466 542.574 183.466Z" fill="white"/>
<path d="M565.511 559.819C565.511 563.94 472.979 567.263 358.954 567.263C244.929 567.263 152.383 563.94 152.383 559.819C152.383 555.697 244.915 552.388 358.954 552.388C472.993 552.388 565.511 555.711 565.511 559.819Z" fill="#C80036"/>
<path opacity="0.6" d="M565.511 559.819C565.511 563.94 472.979 567.263 358.954 567.263C244.929 567.263 152.383 563.94 152.383 559.819C152.383 555.697 244.915 552.388 358.954 552.388C472.993 552.388 565.511 555.711 565.511 559.819Z" fill="white"/>
<path d="M163.571 327.76C163.656 327.76 162.604 322.53 162.492 322.152C161.286 318.422 156.758 311.917 152.355 311.917C151.625 311.94 150.908 312.116 150.25 312.433C149.592 312.751 149.008 313.204 148.536 313.761C148.064 314.319 147.715 314.97 147.511 315.671C147.306 316.373 147.252 317.109 147.35 317.833C147.673 320.918 150.449 323.554 152.958 325.068C155.902 326.904 163.571 327.76 163.571 327.76Z" fill="#C80036"/>
<path d="M172.082 292.541C167.946 294.027 165.899 301.682 166.025 305.608C166.025 305.944 166.81 311.216 166.894 311.216H166.978C166.642 312.422 166.291 313.712 165.941 315.142C165.324 317.777 164.651 320.75 164.132 324.058C163.531 327.603 163.137 331.179 162.955 334.77C162.738 338.793 162.874 342.827 163.361 346.827C163.366 346.873 163.366 346.92 163.361 346.967C162.828 345.803 161.202 342.593 161.048 342.354C158.889 339.074 152.804 333.942 148.556 335.162C147.86 335.377 147.216 335.735 146.668 336.214C146.119 336.694 145.677 337.283 145.37 337.943C145.063 338.604 144.899 339.322 144.887 340.051C144.876 340.779 145.018 341.502 145.303 342.172C146.425 345.074 149.79 346.869 152.608 347.682C155.79 348.579 162.884 347.514 163.445 347.43C164.053 351.482 164.924 355.491 166.053 359.431C166.712 361.73 167.455 364.029 168.184 366.315C167.693 365.319 167.231 364.436 167.161 364.324C165.001 361.043 158.917 355.912 154.669 357.131C153.972 357.346 153.329 357.705 152.78 358.184C152.231 358.663 151.789 359.252 151.483 359.913C151.176 360.574 151.012 361.292 151 362.02C150.989 362.749 151.13 363.471 151.416 364.142C152.538 367.03 155.902 368.838 158.72 369.637C161.538 370.436 167.651 369.637 169.249 369.441C169.544 370.31 169.838 371.194 170.147 372.063C171.549 376.269 173.063 380.475 174.353 384.597C174.815 385.999 175.208 387.513 175.615 388.971C175.18 388.088 174.787 387.345 174.717 387.246C172.572 383.952 166.474 378.834 162.239 380.054C161.542 380.267 160.897 380.625 160.347 381.103C159.796 381.582 159.353 382.171 159.045 382.832C158.737 383.493 158.571 384.211 158.559 384.94C158.546 385.669 158.687 386.393 158.973 387.064C160.094 389.952 163.473 391.761 166.291 392.56C169.109 393.359 174.619 392.658 176.526 392.392C176.904 393.892 177.283 395.406 177.577 396.878C177.746 397.888 177.984 398.841 178.11 399.878L178.531 402.879C178.727 404.799 178.951 406.776 179.092 408.655C179.204 409.973 179.288 411.221 179.372 412.468C178.937 411.066 177.97 408.164 177.97 407.94C176.418 404.855 174.101 402.22 171.24 400.285C171.081 399.934 170.894 399.596 170.68 399.276C170.28 398.664 169.756 398.144 169.142 397.748C168.529 397.352 167.839 397.089 167.117 396.977C166.396 396.865 165.658 396.905 164.953 397.096C164.248 397.287 163.591 397.623 163.025 398.084C159.702 400.958 160.529 408.837 162.057 412.454C162.141 412.665 163.459 414.88 164.188 416.254L162.408 414.039C161.174 412.539 159.912 411.08 158.566 409.51C157.875 408.781 157.188 408.038 156.505 407.281C155.832 406.524 155.033 405.809 154.29 405.052C152.524 403.355 150.659 401.715 148.682 400.117C150 399.037 154.585 395.168 155.902 392.532C157.22 389.896 158.16 386.209 156.786 383.419C156.484 382.755 156.046 382.162 155.5 381.679C154.954 381.196 154.312 380.832 153.617 380.613C152.921 380.394 152.188 380.323 151.463 380.405C150.739 380.488 150.039 380.722 149.411 381.092C145.682 383.419 145.303 391.34 146.271 395.112C146.271 395.35 147.336 398.014 147.911 399.458C146.747 398.491 145.598 397.537 144.392 396.654C140.915 393.976 137.382 391.368 133.737 388.747L130.47 386.321C130.933 385.943 136.485 381.456 137.971 378.498C139.289 375.876 140.228 372.175 138.854 369.399C138.554 368.732 138.116 368.136 137.57 367.65C137.023 367.164 136.38 366.798 135.683 366.577C134.986 366.356 134.25 366.285 133.523 366.368C132.796 366.45 132.095 366.686 131.466 367.058C127.75 369.399 127.372 377.306 128.339 381.078C128.409 381.358 129.853 385.172 130.274 386.125C127.876 384.344 125.507 382.55 123.264 380.685C120.196 378.173 117.292 375.466 114.571 372.582C114.782 372.413 120.6 367.745 122.114 364.73C123.432 362.109 124.371 358.407 122.998 355.617C122.694 354.957 122.255 354.367 121.71 353.887C121.164 353.406 120.524 353.045 119.831 352.827C119.137 352.609 118.406 352.539 117.683 352.621C116.961 352.703 116.264 352.936 115.637 353.304C111.908 355.645 111.543 363.567 112.497 367.324C112.567 367.576 113.66 370.493 114.221 371.853L114.011 371.993C111.347 369.015 108.955 365.805 106.86 362.403C105.697 360.552 104.673 358.702 103.72 356.893C104.898 356.136 110.211 352.687 111.88 350.051C113.548 347.416 114.824 344.009 113.758 341.093C113.53 340.408 113.162 339.778 112.677 339.243C112.192 338.708 111.601 338.279 110.942 337.985C110.283 337.691 109.569 337.538 108.847 337.534C108.125 337.531 107.41 337.678 106.748 337.966C102.795 339.873 101.547 347.78 102.094 351.594C102.094 351.804 102.654 353.921 103.075 355.449C102.654 354.636 102.206 353.781 101.827 352.982C100.425 349.995 99.2336 347.163 98.2522 344.654C97.7054 343.252 97.2288 341.85 96.8502 340.672C97.6073 339.34 100.622 333.886 100.902 330.858C101.182 327.83 100.734 324.142 98.4485 322.039C97.9269 321.527 97.3035 321.13 96.6186 320.874C95.9336 320.618 95.2026 320.509 94.4728 320.554C93.7431 320.599 93.0309 320.797 92.3826 321.135C91.7342 321.473 91.1642 321.944 90.7094 322.516C88.0877 326.035 90.5973 333.564 92.8685 336.76C93.0648 337.041 96.6259 340.966 96.6679 340.966V340.882C97.0605 342.074 97.4811 343.336 97.9858 344.724C98.9252 347.261 100.005 350.122 101.393 353.136C102.849 356.426 104.497 359.628 106.328 362.725C108.369 366.198 110.715 369.482 113.338 372.539L113.436 372.638C112.342 371.965 109.23 370.184 108.963 370.072C105.36 368.516 97.4671 367.646 94.579 370.955C94.1148 371.519 93.7746 372.175 93.5806 372.879C93.3865 373.583 93.343 374.32 93.4527 375.042C93.5625 375.764 93.8232 376.455 94.2177 377.07C94.6122 377.685 95.1318 378.21 95.7426 378.61C98.2662 380.405 102.08 380.012 104.87 379.171C108.024 378.176 113.282 373.367 113.772 372.988C116.515 376.035 119.456 378.897 122.577 381.554C124.385 383.111 126.25 384.625 128.185 386.125C127.218 385.578 126.348 385.087 126.222 385.031C122.619 383.475 114.74 382.606 111.852 385.915C111.385 386.477 111.042 387.131 110.845 387.835C110.649 388.539 110.604 389.277 110.712 389.999C110.821 390.722 111.081 391.414 111.475 392.029C111.87 392.644 112.39 393.169 113.001 393.569C115.539 395.364 119.338 394.971 122.142 394.13C124.946 393.289 129.587 389.223 130.807 388.144L132.994 389.854C136.527 392.56 140.004 395.238 143.439 397.972C144.63 398.939 145.766 399.921 146.916 400.916C146.06 400.425 145.331 400.019 145.205 399.963C141.602 398.42 133.723 397.537 130.835 400.86C130.368 401.422 130.025 402.077 129.828 402.781C129.632 403.485 129.587 404.222 129.695 404.945C129.804 405.668 130.064 406.359 130.458 406.974C130.853 407.59 131.373 408.115 131.984 408.515C134.522 410.309 138.321 409.917 141.125 409.062C143.929 408.206 148.135 404.547 149.537 403.285C150.673 404.323 151.823 405.374 152.888 406.44C153.589 407.183 154.29 407.842 154.991 408.641L156.996 410.926C158.23 412.412 159.492 413.941 160.655 415.427C161.468 416.464 162.225 417.46 162.997 418.455C161.819 417.488 159.478 415.651 159.253 415.497C155.93 413.408 148.276 411.361 144.911 414.193C144.368 414.681 143.933 415.277 143.636 415.944C143.339 416.611 143.185 417.332 143.185 418.062C143.185 418.792 143.339 419.514 143.636 420.181C143.933 420.848 144.368 421.444 144.911 421.932C147.14 424.091 150.953 424.315 153.856 423.867C157.038 423.376 162.814 419.661 163.529 419.142C164.791 420.796 165.997 422.423 167.118 423.965C171.002 429.334 174.03 433.961 176.105 437.214L176.316 437.55L179.007 436.246L178.587 435.601C176.414 432.363 173.259 427.764 169.207 422.423C167.946 420.726 166.544 418.96 165.1 417.137C166.599 415.499 168.004 413.777 169.306 411.978C172.39 413.183 178.825 413.226 179.652 413.226C179.793 415.314 179.905 417.333 179.975 419.24C180.255 425.872 180.227 431.395 180.171 435.251C180.171 435.405 180.171 435.545 180.171 435.7L183.129 434.298C183.129 430.456 182.975 425.269 182.597 419.128C182.456 417.025 182.274 414.768 182.078 412.454C182.891 412.258 189.579 410.534 192.102 408.515C194.401 406.692 196.813 403.72 196.729 400.622C196.734 399.891 196.586 399.168 196.294 398.499C196.001 397.83 195.571 397.23 195.032 396.738C194.492 396.246 193.855 395.873 193.162 395.644C192.469 395.414 191.735 395.333 191.009 395.406C186.634 395.967 182.989 402.991 182.274 406.86C182.274 407.085 182.036 409.664 181.952 411.193C181.868 410.253 181.783 409.342 181.685 408.389C181.489 406.468 181.237 404.561 180.984 402.5C180.816 401.519 180.648 400.509 180.494 399.5C180.339 398.491 180.073 397.453 179.863 396.43C179.33 394.032 178.685 391.635 177.97 389.237C179.652 389.069 185.625 388.368 188.176 386.896C190.728 385.424 193.546 382.872 193.939 379.788C194.054 379.067 194.016 378.331 193.828 377.626C193.64 376.921 193.305 376.264 192.846 375.696C192.388 375.129 191.815 374.665 191.165 374.334C190.515 374.002 189.802 373.811 189.074 373.773C184.672 373.661 179.989 380.054 178.699 383.77C178.615 383.994 177.984 386.756 177.676 388.284C177.227 386.882 176.806 385.41 176.274 383.966C174.872 379.76 173.287 375.652 171.745 371.488L170.343 367.661C170.946 367.661 178.054 366.931 180.914 365.277C183.452 363.875 186.284 361.253 186.676 358.169C186.794 357.448 186.758 356.711 186.57 356.005C186.383 355.299 186.049 354.641 185.59 354.073C185.13 353.505 184.556 353.041 183.905 352.71C183.254 352.38 182.541 352.19 181.811 352.154C177.409 352.042 172.726 358.449 171.437 362.151C171.338 362.431 170.441 366.357 170.259 367.436C169.249 364.632 168.268 361.828 167.455 359.024C166.284 355.235 165.348 351.376 164.651 347.472C164.931 347.472 172.362 346.771 175.292 345.088C177.83 343.616 180.662 341.051 181.054 337.966C181.169 337.245 181.131 336.507 180.942 335.801C180.753 335.095 180.418 334.437 179.957 333.87C179.497 333.302 178.922 332.838 178.271 332.508C177.619 332.177 176.905 331.988 176.175 331.952C171.787 331.839 167.104 338.247 165.815 341.948C165.73 342.186 165.043 345.229 164.749 346.673H164.497C163.918 342.724 163.692 338.731 163.824 334.742C163.824 332.554 164.034 330.451 164.244 328.419C165.646 328.419 172.025 328.419 174.829 327.213C177.633 326.007 180.606 323.792 181.335 320.778C181.529 320.072 181.572 319.332 181.461 318.608C181.35 317.884 181.088 317.192 180.691 316.577C180.294 315.961 179.771 315.437 179.157 315.037C178.544 314.638 177.852 314.372 177.129 314.258C172.769 313.669 167.413 319.516 165.73 323.049C165.632 323.245 164.917 325.306 164.413 326.82C164.511 325.895 164.609 324.956 164.735 324.016C165.184 320.722 165.787 317.735 166.347 315.086C166.684 313.585 167.006 312.282 167.329 310.978C168.731 310.277 174.227 307.403 176.119 305.061C178.012 302.72 179.666 299.369 178.923 296.355C178.769 295.629 178.461 294.945 178.02 294.348C177.58 293.751 177.016 293.256 176.368 292.895C175.72 292.533 175.002 292.315 174.263 292.254C173.524 292.193 172.78 292.291 172.082 292.541Z" fill="#C80036"/>
<path d="M92.6162 360.314C96.0511 360.174 102.921 356.641 102.935 356.641C102.949 356.641 99.2336 352.827 98.9672 352.603C95.8969 350.164 88.5223 347.233 84.8631 349.673C84.2668 350.093 83.7655 350.635 83.392 351.261C83.0185 351.888 82.7811 352.587 82.6951 353.311C82.6092 354.036 82.6767 354.77 82.8932 355.467C83.1097 356.164 83.4704 356.808 83.9518 357.356C85.9286 359.753 89.7281 360.426 92.6162 360.314Z" fill="#C80036"/>
<g opacity="0.5">
<path d="M163.571 327.76C163.656 327.76 162.604 322.53 162.492 322.152C161.286 318.422 156.758 311.917 152.355 311.917C151.625 311.94 150.908 312.116 150.25 312.433C149.592 312.751 149.008 313.204 148.536 313.761C148.064 314.319 147.715 314.97 147.511 315.671C147.306 316.373 147.252 317.109 147.35 317.833C147.673 320.918 150.449 323.554 152.958 325.068C155.902 326.904 163.571 327.76 163.571 327.76Z" fill="white"/>
<path d="M172.082 292.541C167.946 294.027 165.899 301.682 166.025 305.608C166.025 305.944 166.81 311.216 166.894 311.216H166.978C166.642 312.422 166.291 313.712 165.941 315.142C165.324 317.777 164.651 320.75 164.132 324.058C163.531 327.603 163.137 331.179 162.955 334.77C162.738 338.793 162.874 342.827 163.361 346.827C163.366 346.873 163.366 346.92 163.361 346.967C162.828 345.803 161.202 342.593 161.048 342.354C158.889 339.074 152.804 333.942 148.556 335.162C147.86 335.377 147.216 335.735 146.668 336.214C146.119 336.694 145.677 337.283 145.37 337.943C145.063 338.604 144.899 339.322 144.887 340.051C144.876 340.779 145.018 341.502 145.303 342.172C146.425 345.074 149.79 346.869 152.608 347.682C155.79 348.579 162.884 347.514 163.445 347.43C164.053 351.482 164.924 355.491 166.053 359.431C166.712 361.73 167.455 364.029 168.184 366.315C167.693 365.319 167.231 364.436 167.161 364.324C165.001 361.043 158.917 355.912 154.669 357.131C153.972 357.346 153.329 357.705 152.78 358.184C152.231 358.663 151.789 359.252 151.483 359.913C151.176 360.574 151.012 361.292 151 362.02C150.989 362.749 151.13 363.471 151.416 364.142C152.538 367.03 155.902 368.838 158.72 369.637C161.538 370.436 167.651 369.637 169.249 369.441C169.544 370.31 169.838 371.194 170.147 372.063C171.549 376.269 173.063 380.475 174.353 384.597C174.815 385.999 175.208 387.513 175.615 388.971C175.18 388.088 174.787 387.345 174.717 387.246C172.572 383.952 166.474 378.834 162.239 380.054C161.542 380.267 160.897 380.625 160.347 381.103C159.796 381.582 159.353 382.171 159.045 382.832C158.737 383.493 158.571 384.211 158.559 384.94C158.546 385.669 158.687 386.393 158.973 387.064C160.094 389.952 163.473 391.761 166.291 392.56C169.109 393.359 174.619 392.658 176.526 392.392C176.904 393.892 177.283 395.406 177.577 396.878C177.746 397.888 177.984 398.841 178.11 399.878L178.531 402.879C178.727 404.799 178.951 406.776 179.092 408.655C179.204 409.973 179.288 411.221 179.372 412.468C178.937 411.066 177.97 408.164 177.97 407.94C176.418 404.855 174.101 402.22 171.24 400.285C171.081 399.934 170.894 399.596 170.68 399.276C170.28 398.664 169.756 398.144 169.142 397.748C168.529 397.352 167.839 397.089 167.117 396.977C166.396 396.865 165.658 396.905 164.953 397.096C164.248 397.287 163.591 397.623 163.025 398.084C159.702 400.958 160.529 408.837 162.057 412.454C162.141 412.665 163.459 414.88 164.188 416.254L162.408 414.039C161.174 412.539 159.912 411.08 158.566 409.51C157.875 408.781 157.188 408.038 156.505 407.281C155.832 406.524 155.033 405.809 154.29 405.052C152.524 403.355 150.659 401.715 148.682 400.117C150 399.037 154.585 395.168 155.902 392.532C157.22 389.896 158.16 386.209 156.786 383.419C156.484 382.755 156.046 382.162 155.5 381.679C154.954 381.196 154.312 380.832 153.617 380.613C152.921 380.394 152.188 380.323 151.463 380.405C150.739 380.488 150.039 380.722 149.411 381.092C145.682 383.419 145.303 391.34 146.271 395.112C146.271 395.35 147.336 398.014 147.911 399.458C146.747 398.491 145.598 397.537 144.392 396.654C140.915 393.976 137.382 391.368 133.737 388.747L130.47 386.321C130.933 385.943 136.485 381.456 137.971 378.498C139.289 375.876 140.228 372.175 138.854 369.399C138.554 368.732 138.116 368.136 137.57 367.65C137.023 367.164 136.38 366.798 135.683 366.577C134.986 366.356 134.25 366.285 133.523 366.368C132.796 366.45 132.095 366.686 131.466 367.058C127.75 369.399 127.372 377.306 128.339 381.078C128.409 381.358 129.853 385.172 130.274 386.125C127.876 384.344 125.507 382.55 123.264 380.685C120.196 378.173 117.292 375.466 114.571 372.582C114.782 372.413 120.6 367.745 122.114 364.73C123.432 362.109 124.371 358.407 122.998 355.617C122.694 354.957 122.255 354.367 121.71 353.887C121.164 353.406 120.524 353.045 119.831 352.827C119.137 352.609 118.406 352.539 117.683 352.621C116.961 352.703 116.264 352.936 115.637 353.304C111.908 355.645 111.543 363.567 112.497 367.324C112.567 367.576 113.66 370.493 114.221 371.853L114.011 371.993C111.347 369.015 108.955 365.805 106.86 362.403C105.697 360.552 104.673 358.702 103.72 356.893C104.898 356.136 110.211 352.687 111.88 350.051C113.548 347.416 114.824 344.009 113.758 341.093C113.53 340.408 113.162 339.778 112.677 339.243C112.192 338.708 111.601 338.279 110.942 337.985C110.283 337.691 109.569 337.538 108.847 337.534C108.125 337.531 107.41 337.678 106.748 337.966C102.795 339.873 101.547 347.78 102.094 351.594C102.094 351.804 102.654 353.921 103.075 355.449C102.654 354.636 102.206 353.781 101.827 352.982C100.425 349.995 99.2336 347.163 98.2522 344.654C97.7054 343.252 97.2288 341.85 96.8502 340.672C97.6073 339.34 100.622 333.886 100.902 330.858C101.182 327.83 100.734 324.142 98.4485 322.039C97.9269 321.527 97.3035 321.13 96.6186 320.874C95.9336 320.618 95.2026 320.509 94.4728 320.554C93.7431 320.599 93.0309 320.797 92.3826 321.135C91.7342 321.473 91.1642 321.944 90.7094 322.516C88.0877 326.035 90.5973 333.564 92.8685 336.76C93.0648 337.041 96.6259 340.966 96.6679 340.966V340.882C97.0605 342.074 97.4811 343.336 97.9858 344.724C98.9252 347.261 100.005 350.122 101.393 353.136C102.849 356.426 104.497 359.628 106.328 362.725C108.369 366.198 110.715 369.482 113.338 372.539L113.436 372.638C112.342 371.965 109.23 370.184 108.963 370.072C105.36 368.516 97.4671 367.646 94.579 370.955C94.1148 371.519 93.7746 372.175 93.5806 372.879C93.3865 373.583 93.343 374.32 93.4527 375.042C93.5625 375.764 93.8232 376.455 94.2177 377.07C94.6122 377.685 95.1318 378.21 95.7426 378.61C98.2662 380.405 102.08 380.012 104.87 379.171C108.024 378.176 113.282 373.367 113.772 372.988C116.515 376.035 119.456 378.897 122.577 381.554C124.385 383.111 126.25 384.625 128.185 386.125C127.218 385.578 126.348 385.087 126.222 385.031C122.619 383.475 114.74 382.606 111.852 385.915C111.385 386.477 111.042 387.131 110.845 387.835C110.649 388.539 110.604 389.277 110.712 389.999C110.821 390.722 111.081 391.414 111.475 392.029C111.87 392.644 112.39 393.169 113.001 393.569C115.539 395.364 119.338 394.971 122.142 394.13C124.946 393.289 129.587 389.223 130.807 388.144L132.994 389.854C136.527 392.56 140.004 395.238 143.439 397.972C144.63 398.939 145.766 399.921 146.916 400.916C146.06 400.425 145.331 400.019 145.205 399.963C141.602 398.42 133.723 397.537 130.835 400.86C130.368 401.422 130.025 402.077 129.828 402.781C129.632 403.485 129.587 404.222 129.695 404.945C129.804 405.668 130.064 406.359 130.458 406.974C130.853 407.59 131.373 408.115 131.984 408.515C134.522 410.309 138.321 409.917 141.125 409.062C143.929 408.206 148.135 404.547 149.537 403.285C150.673 404.323 151.823 405.374 152.888 406.44C153.589 407.183 154.29 407.842 154.991 408.641L156.996 410.926C158.23 412.412 159.492 413.941 160.655 415.427C161.468 416.464 162.225 417.46 162.997 418.455C161.819 417.488 159.478 415.651 159.253 415.497C155.93 413.408 148.276 411.361 144.911 414.193C144.368 414.681 143.933 415.277 143.636 415.944C143.339 416.611 143.185 417.332 143.185 418.062C143.185 418.792 143.339 419.514 143.636 420.181C143.933 420.848 144.368 421.444 144.911 421.932C147.14 424.091 150.953 424.315 153.856 423.867C157.038 423.376 162.814 419.661 163.529 419.142C164.791 420.796 165.997 422.423 167.118 423.965C171.002 429.334 174.03 433.961 176.105 437.214L176.316 437.55L179.007 436.246L178.587 435.601C176.414 432.363 173.259 427.764 169.207 422.423C167.946 420.726 166.544 418.96 165.1 417.137C166.599 415.499 168.004 413.777 169.306 411.978C172.39 413.183 178.825 413.226 179.652 413.226C179.793 415.314 179.905 417.333 179.975 419.24C180.255 425.872 180.227 431.395 180.171 435.251C180.171 435.405 180.171 435.545 180.171 435.7L183.129 434.298C183.129 430.456 182.975 425.269 182.597 419.128C182.456 417.025 182.274 414.768 182.078 412.454C182.891 412.258 189.579 410.534 192.102 408.515C194.401 406.692 196.813 403.72 196.729 400.622C196.734 399.891 196.586 399.168 196.294 398.499C196.001 397.83 195.571 397.23 195.032 396.738C194.492 396.246 193.855 395.873 193.162 395.644C192.469 395.414 191.735 395.333 191.009 395.406C186.634 395.967 182.989 402.991 182.274 406.86C182.274 407.085 182.036 409.664 181.952 411.193C181.868 410.253 181.783 409.342 181.685 408.389C181.489 406.468 181.237 404.561 180.984 402.5C180.816 401.519 180.648 400.509 180.494 399.5C180.339 398.491 180.073 397.453 179.863 396.43C179.33 394.032 178.685 391.635 177.97 389.237C179.652 389.069 185.625 388.368 188.176 386.896C190.728 385.424 193.546 382.872 193.939 379.788C194.054 379.067 194.016 378.331 193.828 377.626C193.64 376.921 193.305 376.264 192.846 375.696C192.388 375.129 191.815 374.665 191.165 374.334C190.515 374.002 189.802 373.811 189.074 373.773C184.672 373.661 179.989 380.054 178.699 383.77C178.615 383.994 177.984 386.756 177.676 388.284C177.227 386.882 176.806 385.41 176.274 383.966C174.872 379.76 173.287 375.652 171.745 371.488L170.343 367.661C170.946 367.661 178.054 366.931 180.914 365.277C183.452 363.875 186.284 361.253 186.676 358.169C186.794 357.448 186.758 356.711 186.57 356.005C186.383 355.299 186.049 354.641 185.59 354.073C185.13 353.505 184.556 353.041 183.905 352.71C183.254 352.38 182.541 352.19 181.811 352.154C177.409 352.042 172.726 358.449 171.437 362.151C171.338 362.431 170.441 366.357 170.259 367.436C169.249 364.632 168.268 361.828 167.455 359.024C166.284 355.235 165.348 351.376 164.651 347.472C164.931 347.472 172.362 346.771 175.292 345.088C177.83 343.616 180.662 341.051 181.054 337.966C181.169 337.245 181.131 336.507 180.942 335.801C180.753 335.095 180.418 334.437 179.957 333.87C179.497 333.302 178.922 332.838 178.271 332.508C177.619 332.177 176.905 331.988 176.175 331.952C171.787 331.839 167.104 338.247 165.815 341.948C165.73 342.186 165.043 345.229 164.749 346.673H164.497C163.918 342.724 163.692 338.731 163.824 334.742C163.824 332.554 164.034 330.451 164.244 328.419C165.646 328.419 172.025 328.419 174.829 327.213C177.633 326.007 180.606 323.792 181.335 320.778C181.529 320.072 181.572 319.332 181.461 318.608C181.35 317.884 181.088 317.192 180.691 316.577C180.294 315.961 179.771 315.437 179.157 315.037C178.544 314.638 177.852 314.372 177.129 314.258C172.769 313.669 167.413 319.516 165.73 323.049C165.632 323.245 164.917 325.306 164.413 326.82C164.511 325.895 164.609 324.956 164.735 324.016C165.184 320.722 165.787 317.735 166.347 315.086C166.684 313.585 167.006 312.282 167.329 310.978C168.731 310.277 174.227 307.403 176.119 305.061C178.012 302.72 179.666 299.369 178.923 296.355C178.769 295.629 178.461 294.945 178.02 294.348C177.58 293.751 177.016 293.256 176.368 292.895C175.72 292.533 175.002 292.315 174.263 292.254C173.524 292.193 172.78 292.291 172.082 292.541Z" fill="white"/>
<path d="M92.6162 360.314C96.0511 360.174 102.921 356.641 102.935 356.641C102.949 356.641 99.2336 352.827 98.9672 352.603C95.8969 350.164 88.5223 347.233 84.8631 349.673C84.2668 350.093 83.7655 350.635 83.392 351.261C83.0185 351.888 82.7811 352.587 82.6951 353.311C82.6092 354.036 82.6767 354.77 82.8932 355.467C83.1097 356.164 83.4704 356.808 83.9518 357.356C85.9286 359.753 89.7281 360.426 92.6162 360.314Z" fill="white"/>
</g>
<path d="M132.727 446.327C132.727 446.327 153.575 396.079 165.24 398.266C176.904 400.453 145.233 478.376 145.233 478.376C145.233 478.376 181.91 409.188 206.921 409.188C231.933 409.188 197.752 485.653 166.081 511.141C166.081 511.141 216.09 457.248 245.28 468.913C274.47 480.578 186.915 535.185 186.915 535.185C186.915 535.185 237.765 519.161 231.933 531.54C226.101 543.92 210.3 546.107 210.3 546.107L267.782 549.023H67.7026L112.721 544.649C112.721 544.649 66.0343 521.348 78.5121 511.87C90.9899 502.393 118.525 522.792 118.525 522.792C118.525 522.792 71.0114 470.357 80.1804 450.701C89.3495 431.045 130.204 486.382 130.204 486.382C130.204 486.382 96.8502 415.749 103.566 403.355C110.281 390.962 132.727 446.327 132.727 446.327Z" fill="#C80036"/>
<path opacity="0.4" d="M132.727 446.327C132.727 446.327 153.575 396.079 165.24 398.266C176.904 400.453 145.233 478.376 145.233 478.376C145.233 478.376 181.91 409.188 206.921 409.188C231.933 409.188 197.752 485.653 166.081 511.141C166.081 511.141 216.09 457.248 245.28 468.913C274.47 480.578 186.915 535.185 186.915 535.185C186.915 535.185 237.765 519.161 231.933 531.54C226.101 543.92 210.3 546.107 210.3 546.107L267.782 549.023H67.7026L112.721 544.649C112.721 544.649 66.0343 521.348 78.5121 511.87C90.9899 502.393 118.525 522.792 118.525 522.792C118.525 522.792 71.0114 470.357 80.1804 450.701C89.3495 431.045 130.204 486.382 130.204 486.382C130.204 486.382 96.8502 415.749 103.566 403.355C110.281 390.962 132.727 446.327 132.727 446.327Z" fill="white"/>
<path d="M126.068 448.977C144.406 503.164 144.406 541.509 144.406 541.509C144.406 541.509 122.731 542.35 100.215 525.68" stroke="#263238" stroke-linecap="round" stroke-linejoin="round"/>
<path d="M135.237 478.152C139.011 461.953 144.027 446.068 150.238 430.638" stroke="#263238" stroke-linecap="round" stroke-linejoin="round"/>
<path d="M189.424 446.481L142.738 515.67C142.738 515.67 111.052 489.032 100.215 473.988" stroke="#263238" stroke-linecap="round" stroke-linejoin="round"/>
<path d="M143.565 532.339C143.565 532.339 192.747 508.996 212.768 495.663" stroke="#263238" stroke-linecap="round" stroke-linejoin="round"/>
<path d="M553.257 327.76C553.173 327.76 554.239 322.53 554.337 322.152C555.543 318.422 560.085 311.917 564.473 311.917C565.204 311.94 565.921 312.116 566.579 312.433C567.237 312.751 567.821 313.204 568.292 313.761C568.764 314.319 569.114 314.97 569.318 315.671C569.522 316.373 569.577 317.109 569.478 317.833C569.156 320.918 566.38 323.554 563.87 325.068C560.926 326.904 553.257 327.76 553.257 327.76Z" fill="#C80036"/>
<path d="M544.747 292.541C548.883 294.028 550.944 301.682 550.804 305.608C550.804 305.945 550.019 311.216 549.949 311.216H549.864C550.187 312.422 550.537 313.712 550.888 315.142C551.505 317.777 552.178 320.75 552.696 324.058C553.298 327.603 553.691 331.179 553.874 334.77C554.098 338.793 553.962 342.828 553.468 346.827C553.462 346.873 553.462 346.92 553.468 346.967C554.014 345.803 555.641 342.593 555.781 342.354C557.94 339.074 564.025 333.942 568.273 335.162C568.97 335.375 569.615 335.732 570.165 336.211C570.715 336.69 571.158 337.279 571.465 337.941C571.772 338.602 571.936 339.321 571.946 340.05C571.957 340.779 571.813 341.502 571.525 342.172C570.404 345.074 567.039 346.869 564.221 347.682C561.038 348.579 553.944 347.514 553.383 347.43C552.782 351.484 551.911 355.493 550.776 359.431C550.121 361.73 549.411 364.025 548.645 366.315C549.135 365.319 549.598 364.436 549.668 364.324C551.827 361.043 557.926 355.912 562.16 357.132C562.857 357.344 563.502 357.702 564.052 358.18C564.602 358.659 565.045 359.248 565.352 359.91C565.659 360.571 565.823 361.29 565.834 362.019C565.844 362.748 565.701 363.472 565.413 364.142C564.291 367.03 560.926 368.838 558.108 369.637C555.29 370.437 549.177 369.637 547.579 369.441L546.696 372.063C545.294 376.269 543.766 380.475 542.49 384.597C542.027 385.999 541.621 387.513 541.214 388.971C541.663 388.088 542.041 387.345 542.111 387.246C544.27 383.952 550.355 378.834 554.589 380.054C555.287 380.267 555.931 380.625 556.482 381.103C557.032 381.582 557.476 382.171 557.784 382.832C558.092 383.493 558.258 384.211 558.27 384.94C558.282 385.669 558.141 386.393 557.856 387.064C556.734 389.952 553.355 391.761 550.537 392.56C547.719 393.359 542.21 392.658 540.303 392.392C539.924 393.892 539.56 395.406 539.265 396.878C539.083 397.888 538.845 398.841 538.719 399.879L538.298 402.879C538.102 404.8 537.877 406.776 537.737 408.655C537.625 409.973 537.541 411.221 537.457 412.468C537.905 411.066 538.859 408.164 538.929 407.94C540.486 404.858 542.802 402.224 545.658 400.285C545.817 399.931 546.01 399.593 546.233 399.276C546.63 398.663 547.152 398.141 547.764 397.744C548.377 397.347 549.066 397.084 549.787 396.971C550.508 396.859 551.245 396.9 551.949 397.091C552.654 397.283 553.31 397.621 553.874 398.084C557.211 400.958 556.37 408.837 554.842 412.454C554.757 412.665 553.51 414.88 552.71 416.254C553.313 415.511 553.874 414.852 554.505 414.039C555.725 412.539 556.987 411.08 558.332 409.51L560.393 407.281C561.066 406.524 561.88 405.809 562.623 405.052C564.375 403.355 566.24 401.715 568.161 400.117C566.857 399.037 562.258 395.168 560.94 392.532C559.622 389.896 558.683 386.209 560.057 383.419C560.359 382.753 560.797 382.159 561.344 381.674C561.891 381.189 562.534 380.825 563.232 380.606C563.929 380.386 564.664 380.316 565.39 380.4C566.116 380.483 566.817 380.719 567.445 381.092C571.161 383.419 571.539 391.34 570.572 395.112C570.572 395.35 569.506 398.014 568.932 399.458C570.095 398.491 571.245 397.537 572.451 396.654C575.928 393.976 579.531 391.368 583.106 388.747L586.372 386.321C585.91 385.943 580.358 381.456 578.872 378.498C577.568 375.876 576.615 372.175 577.989 369.399C578.289 368.732 578.727 368.136 579.273 367.65C579.82 367.164 580.462 366.798 581.16 366.577C581.857 366.356 582.593 366.285 583.32 366.368C584.046 366.45 584.747 366.686 585.377 367.058C589.106 369.399 589.471 377.306 588.504 381.078C588.433 381.358 586.989 385.172 586.583 386.125C588.966 384.344 591.336 382.55 593.593 380.685C596.661 378.173 599.564 375.466 602.285 372.582C602.075 372.413 596.257 367.745 594.742 364.73C593.425 362.109 592.485 358.407 593.859 355.617C594.16 354.952 594.597 354.358 595.142 353.873C595.688 353.389 596.329 353.024 597.025 352.803C597.72 352.582 598.454 352.51 599.179 352.592C599.905 352.673 600.605 352.906 601.234 353.276C604.963 355.617 605.342 363.539 604.374 367.296C604.304 367.548 603.21 370.465 602.664 371.824C602.728 371.879 602.799 371.926 602.874 371.965C605.533 368.987 607.921 365.777 610.01 362.375C611.188 360.524 612.197 358.674 613.151 356.865C611.973 356.108 606.659 352.659 604.991 350.023C603.323 347.388 602.061 343.981 603.112 341.065C603.339 340.371 603.71 339.732 604.199 339.191C604.689 338.65 605.287 338.217 605.955 337.923C606.623 337.628 607.345 337.477 608.076 337.479C608.806 337.482 609.527 337.638 610.192 337.938C614.16 339.845 615.394 347.752 614.847 351.566C614.847 351.776 614.286 353.893 613.88 355.421C614.286 354.608 614.735 353.753 615.113 352.954C616.515 349.967 617.707 347.135 618.689 344.626C619.249 343.224 619.712 341.822 620.091 340.644C619.32 339.312 616.319 333.858 616.025 330.83C615.73 327.802 616.207 324.114 618.492 322.011C619.013 321.499 619.635 321.103 620.319 320.847C621.003 320.591 621.732 320.482 622.461 320.527C623.19 320.572 623.901 320.77 624.548 321.108C625.195 321.446 625.764 321.916 626.217 322.488C628.853 326.007 626.344 333.536 624.072 336.732C623.876 337.013 620.301 340.938 620.259 340.938V340.854C619.866 342.046 619.446 343.308 618.941 344.696C618.016 347.233 616.936 350.093 615.548 353.108C614.081 356.395 612.429 359.597 610.599 362.697C608.557 366.17 606.212 369.454 603.589 372.511L603.491 372.61C604.584 371.937 607.697 370.156 607.963 370.044C611.58 368.488 619.46 367.619 622.348 370.927C622.813 371.49 623.154 372.145 623.349 372.849C623.544 373.552 623.589 374.289 623.48 375.011C623.372 375.733 623.113 376.424 622.719 377.04C622.326 377.655 621.808 378.18 621.198 378.582C618.661 380.377 614.861 379.984 612.057 379.143C608.903 378.148 603.645 373.339 603.168 372.96C600.426 376.007 597.485 378.869 594.364 381.526C592.555 383.083 590.677 384.597 588.756 386.097C589.723 385.55 590.593 385.059 590.719 385.003C594.322 383.447 602.201 382.578 605.089 385.887C605.556 386.449 605.899 387.103 606.095 387.807C606.292 388.511 606.337 389.249 606.229 389.971C606.12 390.694 605.86 391.386 605.466 392.001C605.071 392.616 604.551 393.141 603.94 393.541C601.416 395.336 597.603 394.943 594.813 394.102C592.023 393.261 587.354 389.195 586.148 388.116C585.405 388.691 584.746 389.265 583.947 389.826C580.428 392.532 576.937 395.21 573.502 397.944C572.31 398.911 571.175 399.893 570.025 400.888L571.736 399.935C575.339 398.392 583.218 397.509 586.106 400.832C586.573 401.394 586.916 402.049 587.112 402.753C587.309 403.457 587.354 404.194 587.246 404.917C587.137 405.64 586.877 406.331 586.483 406.946C586.088 407.562 585.568 408.087 584.956 408.487C582.419 410.281 578.619 409.889 575.829 409.034C573.039 408.178 568.819 404.519 567.417 403.257C566.282 404.295 565.132 405.346 564.081 406.412C563.366 407.155 562.679 407.814 561.978 408.613L559.959 410.898C558.739 412.384 557.463 413.913 556.3 415.399C555.486 416.436 554.729 417.432 553.972 418.427C555.136 417.46 557.491 415.623 557.702 415.469C561.024 413.38 568.693 411.333 572.044 414.165C572.587 414.653 573.021 415.249 573.319 415.916C573.616 416.583 573.77 417.304 573.77 418.034C573.77 418.764 573.616 419.486 573.319 420.153C573.021 420.82 572.587 421.416 572.044 421.904C569.801 424.063 565.987 424.287 563.099 423.839C559.903 423.348 554.127 419.633 553.411 419.114C552.15 420.768 550.944 422.395 549.822 423.937C545.939 429.307 542.911 433.933 540.836 437.186C540.836 437.312 540.695 437.41 540.625 437.522L537.933 436.218L538.354 435.573C540.527 432.335 543.696 427.736 547.733 422.395C549.009 420.698 550.397 418.932 551.841 417.109C550.338 415.474 548.934 413.751 547.635 411.95C544.537 413.155 538.116 413.198 537.274 413.198C537.148 415.287 537.036 417.305 536.952 419.212C536.672 425.844 536.7 431.367 536.77 435.223V435.672L533.812 434.27C533.812 430.428 533.966 425.241 534.358 419.1C534.485 416.997 534.667 414.74 534.877 412.426C534.05 412.23 527.362 410.506 524.839 408.487C522.553 406.664 520.142 403.692 520.226 400.594C520.218 399.863 520.365 399.139 520.657 398.468C520.948 397.798 521.378 397.197 521.918 396.705C522.458 396.212 523.096 395.84 523.79 395.611C524.485 395.382 525.219 395.303 525.946 395.378C530.307 395.939 533.966 402.963 534.681 406.832C534.681 407.057 534.905 409.636 534.989 411.165C535.087 410.225 535.157 409.314 535.27 408.361C535.452 406.44 535.704 404.533 535.971 402.472C536.125 401.491 536.293 400.481 536.447 399.472C536.602 398.462 536.868 397.425 537.078 396.402C537.611 394.004 538.256 391.607 538.971 389.209C537.288 389.041 531.33 388.34 528.764 386.868C526.199 385.396 523.395 382.844 523.016 379.76C522.899 379.039 522.935 378.302 523.122 377.596C523.31 376.89 523.644 376.232 524.103 375.664C524.562 375.096 525.136 374.632 525.787 374.301C526.438 373.971 527.152 373.781 527.881 373.745C532.269 373.633 536.952 380.026 538.242 383.741C538.326 383.966 538.957 386.728 539.265 388.256C539.714 386.854 540.135 385.382 540.667 383.938C542.069 379.732 543.654 375.624 545.196 371.46C545.672 370.184 546.121 368.908 546.598 367.633C545.995 367.633 538.887 366.903 536.027 365.249C533.489 363.847 530.657 361.225 530.264 358.141C530.149 357.421 530.187 356.684 530.375 355.979C530.564 355.274 530.898 354.617 531.357 354.05C531.815 353.482 532.389 353.018 533.038 352.687C533.688 352.355 534.401 352.164 535.129 352.126C539.532 352.014 544.214 358.421 545.504 362.123C545.602 362.403 546.5 366.329 546.682 367.408C547.691 364.604 548.687 361.8 549.486 358.996C550.67 355.21 551.607 351.351 552.29 347.444C552.009 347.444 544.593 346.743 541.663 345.06C539.111 343.588 536.279 341.023 535.9 337.938C535.783 337.217 535.819 336.48 536.007 335.774C536.194 335.068 536.528 334.41 536.987 333.842C537.447 333.275 538.02 332.81 538.671 332.48C539.323 332.149 540.036 331.959 540.765 331.924C545.154 331.811 549.836 338.219 551.126 341.92C551.21 342.158 551.911 345.201 552.206 346.645H552.444C553.023 342.696 553.248 338.703 553.117 334.714C553.117 332.526 552.907 330.423 552.696 328.391C551.294 328.391 544.929 328.391 542.125 327.185C539.321 325.979 536.335 323.764 535.606 320.75C535.412 320.044 535.368 319.304 535.479 318.58C535.59 317.856 535.853 317.164 536.25 316.549C536.647 315.933 537.17 315.409 537.783 315.009C538.397 314.61 539.089 314.344 539.812 314.23C544.172 313.642 549.528 319.488 551.224 323.021C551.309 323.217 552.038 325.278 552.528 326.792C552.43 325.867 552.332 324.928 552.206 323.988C551.771 320.694 551.154 317.707 550.593 315.058C550.257 313.557 549.935 312.254 549.612 310.95C548.21 310.249 542.714 307.375 540.836 305.033C538.957 302.692 537.274 299.341 538.032 296.327C538.192 295.619 538.499 294.952 538.933 294.369C539.367 293.787 539.918 293.302 540.55 292.945C541.183 292.589 541.883 292.369 542.606 292.299C543.329 292.229 544.058 292.312 544.747 292.541Z" fill="#C80036"/>
<path d="M624.213 360.314C620.778 360.174 613.908 356.641 613.908 356.641C613.908 356.641 617.595 352.827 617.861 352.603C620.932 350.164 628.306 347.233 631.966 349.673C632.564 350.092 633.067 350.633 633.441 351.259C633.816 351.886 634.054 352.585 634.14 353.31C634.227 354.036 634.158 354.771 633.941 355.468C633.723 356.165 633.36 356.809 632.877 357.356C630.9 359.753 627.143 360.426 624.213 360.314Z" fill="#C80036"/>
<g opacity="0.5">
<path d="M553.257 327.76C553.173 327.76 554.239 322.53 554.337 322.152C555.543 318.422 560.085 311.917 564.473 311.917C565.204 311.94 565.921 312.116 566.579 312.433C567.237 312.751 567.821 313.204 568.292 313.761C568.764 314.319 569.114 314.97 569.318 315.671C569.522 316.373 569.577 317.109 569.478 317.833C569.156 320.918 566.38 323.554 563.87 325.068C560.926 326.904 553.257 327.76 553.257 327.76Z" fill="white"/>
<path d="M544.747 292.541C548.883 294.028 550.944 301.682 550.804 305.608C550.804 305.945 550.019 311.216 549.949 311.216H549.864C550.187 312.422 550.537 313.712 550.888 315.142C551.505 317.777 552.178 320.75 552.696 324.058C553.298 327.603 553.691 331.179 553.874 334.77C554.098 338.793 553.962 342.828 553.468 346.827C553.462 346.873 553.462 346.92 553.468 346.967C554.014 345.803 555.641 342.593 555.781 342.354C557.94 339.074 564.025 333.942 568.273 335.162C568.97 335.375 569.615 335.732 570.165 336.211C570.715 336.69 571.158 337.279 571.465 337.941C571.772 338.602 571.936 339.321 571.946 340.05C571.957 340.779 571.813 341.502 571.525 342.172C570.404 345.074 567.039 346.869 564.221 347.682C561.038 348.579 553.944 347.514 553.383 347.43C552.782 351.484 551.911 355.493 550.776 359.431C550.121 361.73 549.411 364.025 548.645 366.315C549.135 365.319 549.598 364.436 549.668 364.324C551.827 361.043 557.926 355.912 562.16 357.132C562.857 357.344 563.502 357.702 564.052 358.18C564.602 358.659 565.045 359.248 565.352 359.91C565.659 360.571 565.823 361.29 565.834 362.019C565.844 362.748 565.701 363.472 565.413 364.142C564.291 367.03 560.926 368.838 558.108 369.637C555.29 370.437 549.177 369.637 547.579 369.441L546.696 372.063C545.294 376.269 543.766 380.475 542.49 384.597C542.027 385.999 541.621 387.513 541.214 388.971C541.663 388.088 542.041 387.345 542.111 387.246C544.27 383.952 550.355 378.834 554.589 380.054C555.287 380.267 555.931 380.625 556.482 381.103C557.032 381.582 557.476 382.171 557.784 382.832C558.092 383.493 558.258 384.211 558.27 384.94C558.282 385.669 558.141 386.393 557.856 387.064C556.734 389.952 553.355 391.761 550.537 392.56C547.719 393.359 542.21 392.658 540.303 392.392C539.924 393.892 539.56 395.406 539.265 396.878C539.083 397.888 538.845 398.841 538.719 399.879L538.298 402.879C538.102 404.8 537.877 406.776 537.737 408.655C537.625 409.973 537.541 411.221 537.457 412.468C537.905 411.066 538.859 408.164 538.929 407.94C540.486 404.858 542.802 402.224 545.658 400.285C545.817 399.931 546.01 399.593 546.233 399.276C546.63 398.663 547.152 398.141 547.764 397.744C548.377 397.347 549.066 397.084 549.787 396.971C550.508 396.859 551.245 396.9 551.949 397.091C552.654 397.283 553.31 397.621 553.874 398.084C557.211 400.958 556.37 408.837 554.842 412.454C554.757 412.665 553.51 414.88 552.71 416.254C553.313 415.511 553.874 414.852 554.505 414.039C555.725 412.539 556.987 411.08 558.332 409.51L560.393 407.281C561.066 406.524 561.88 405.809 562.623 405.052C564.375 403.355 566.24 401.715 568.161 400.117C566.857 399.037 562.258 395.168 560.94 392.532C559.622 389.896 558.683 386.209 560.057 383.419C560.359 382.753 560.797 382.159 561.344 381.674C561.891 381.189 562.534 380.825 563.232 380.606C563.929 380.386 564.664 380.316 565.39 380.4C566.116 380.483 566.817 380.719 567.445 381.092C571.161 383.419 571.539 391.34 570.572 395.112C570.572 395.35 569.506 398.014 568.932 399.458C570.095 398.491 571.245 397.537 572.451 396.654C575.928 393.976 579.531 391.368 583.106 388.747L586.372 386.321C585.91 385.943 580.358 381.456 578.872 378.498C577.568 375.876 576.615 372.175 577.989 369.399C578.289 368.732 578.727 368.136 579.273 367.65C579.82 367.164 580.462 366.798 581.16 366.577C581.857 366.356 582.593 366.285 583.32 366.368C584.046 366.45 584.747 366.686 585.377 367.058C589.106 369.399 589.471 377.306 588.504 381.078C588.433 381.358 586.989 385.172 586.583 386.125C588.966 384.344 591.336 382.55 593.593 380.685C596.661 378.173 599.564 375.466 602.285 372.582C602.075 372.413 596.257 367.745 594.742 364.73C593.425 362.109 592.485 358.407 593.859 355.617C594.16 354.952 594.597 354.358 595.142 353.873C595.688 353.389 596.329 353.024 597.025 352.803C597.72 352.582 598.454 352.51 599.179 352.592C599.905 352.673 600.605 352.906 601.234 353.276C604.963 355.617 605.342 363.539 604.374 367.296C604.304 367.548 603.21 370.465 602.664 371.824C602.728 371.879 602.799 371.926 602.874 371.965C605.533 368.987 607.921 365.777 610.01 362.375C611.188 360.524 612.197 358.674 613.151 356.865C611.973 356.108 606.659 352.659 604.991 350.023C603.323 347.388 602.061 343.981 603.112 341.065C603.339 340.371 603.71 339.732 604.199 339.191C604.689 338.65 605.287 338.217 605.955 337.923C606.623 337.628 607.345 337.477 608.076 337.479C608.806 337.482 609.527 337.638 610.192 337.938C614.16 339.845 615.394 347.752 614.847 351.566C614.847 351.776 614.286 353.893 613.88 355.421C614.286 354.608 614.735 353.753 615.113 352.954C616.515 349.967 617.707 347.135 618.689 344.626C619.249 343.224 619.712 341.822 620.091 340.644C619.32 339.312 616.319 333.858 616.025 330.83C615.73 327.802 616.207 324.114 618.492 322.011C619.013 321.499 619.635 321.103 620.319 320.847C621.003 320.591 621.732 320.482 622.461 320.527C623.19 320.572 623.901 320.77 624.548 321.108C625.195 321.446 625.764 321.916 626.217 322.488C628.853 326.007 626.344 333.536 624.072 336.732C623.876 337.013 620.301 340.938 620.259 340.938V340.854C619.866 342.046 619.446 343.308 618.941 344.696C618.016 347.233 616.936 350.093 615.548 353.108C614.081 356.395 612.429 359.597 610.599 362.697C608.557 366.17 606.212 369.454 603.589 372.511L603.491 372.61C604.584 371.937 607.697 370.156 607.963 370.044C611.58 368.488 619.46 367.619 622.348 370.927C622.813 371.49 623.154 372.145 623.349 372.849C623.544 373.552 623.589 374.289 623.48 375.011C623.372 375.733 623.113 376.424 622.719 377.04C622.326 377.655 621.808 378.18 621.198 378.582C618.661 380.377 614.861 379.984 612.057 379.143C608.903 378.148 603.645 373.339 603.168 372.96C600.426 376.007 597.485 378.869 594.364 381.526C592.555 383.083 590.677 384.597 588.756 386.097C589.723 385.55 590.593 385.059 590.719 385.003C594.322 383.447 602.201 382.578 605.089 385.887C605.556 386.449 605.899 387.103 606.095 387.807C606.292 388.511 606.337 389.249 606.229 389.971C606.12 390.694 605.86 391.386 605.466 392.001C605.071 392.616 604.551 393.141 603.94 393.541C601.416 395.336 597.603 394.943 594.813 394.102C592.023 393.261 587.354 389.195 586.148 388.116C585.405 388.691 584.746 389.265 583.947 389.826C580.428 392.532 576.937 395.21 573.502 397.944C572.31 398.911 571.175 399.893 570.025 400.888L571.736 399.935C575.339 398.392 583.218 397.509 586.106 400.832C586.573 401.394 586.916 402.049 587.112 402.753C587.309 403.457 587.354 404.194 587.246 404.917C587.137 405.64 586.877 406.331 586.483 406.946C586.088 407.562 585.568 408.087 584.956 408.487C582.419 410.281 578.619 409.889 575.829 409.034C573.039 408.178 568.819 404.519 567.417 403.257C566.282 404.295 565.132 405.346 564.081 406.412C563.366 407.155 562.679 407.814 561.978 408.613L559.959 410.898C558.739 412.384 557.463 413.913 556.3 415.399C555.486 416.436 554.729 417.432 553.972 418.427C555.136 417.46 557.491 415.623 557.702 415.469C561.024 413.38 568.693 411.333 572.044 414.165C572.587 414.653 573.021 415.249 573.319 415.916C573.616 416.583 573.77 417.304 573.77 418.034C573.77 418.764 573.616 419.486 573.319 420.153C573.021 420.82 572.587 421.416 572.044 421.904C569.801 424.063 565.987 424.287 563.099 423.839C559.903 423.348 554.127 419.633 553.411 419.114C552.15 420.768 550.944 422.395 549.822 423.937C545.939 429.307 542.911 433.933 540.836 437.186C540.836 437.312 540.695 437.41 540.625 437.522L537.933 436.218L538.354 435.573C540.527 432.335 543.696 427.736 547.733 422.395C549.009 420.698 550.397 418.932 551.841 417.109C550.338 415.474 548.934 413.751 547.635 411.95C544.537 413.155 538.116 413.198 537.274 413.198C537.148 415.287 537.036 417.305 536.952 419.212C536.672 425.844 536.7 431.367 536.77 435.223V435.672L533.812 434.27C533.812 430.428 533.966 425.241 534.358 419.1C534.485 416.997 534.667 414.74 534.877 412.426C534.05 412.23 527.362 410.506 524.839 408.487C522.553 406.664 520.142 403.692 520.226 400.594C520.218 399.863 520.365 399.139 520.657 398.468C520.948 397.798 521.378 397.197 521.918 396.705C522.458 396.212 523.096 395.84 523.79 395.611C524.485 395.382 525.219 395.303 525.946 395.378C530.307 395.939 533.966 402.963 534.681 406.832C534.681 407.057 534.905 409.636 534.989 411.165C535.087 410.225 535.157 409.314 535.27 408.361C535.452 406.44 535.704 404.533 535.971 402.472C536.125 401.491 536.293 400.481 536.447 399.472C536.602 398.462 536.868 397.425 537.078 396.402C537.611 394.004 538.256 391.607 538.971 389.209C537.288 389.041 531.33 388.34 528.764 386.868C526.199 385.396 523.395 382.844 523.016 379.76C522.899 379.039 522.935 378.302 523.122 377.596C523.31 376.89 523.644 376.232 524.103 375.664C524.562 375.096 525.136 374.632 525.787 374.301C526.438 373.971 527.152 373.781 527.881 373.745C532.269 373.633 536.952 380.026 538.242 383.741C538.326 383.966 538.957 386.728 539.265 388.256C539.714 386.854 540.135 385.382 540.667 383.938C542.069 379.732 543.654 375.624 545.196 371.46C545.672 370.184 546.121 368.908 546.598 367.633C545.995 367.633 538.887 366.903 536.027 365.249C533.489 363.847 530.657 361.225 530.264 358.141C530.149 357.421 530.187 356.684 530.375 355.979C530.564 355.274 530.898 354.617 531.357 354.05C531.815 353.482 532.389 353.018 533.038 352.687C533.688 352.355 534.401 352.164 535.129 352.126C539.532 352.014 544.214 358.421 545.504 362.123C545.602 362.403 546.5 366.329 546.682 367.408C547.691 364.604 548.687 361.8 549.486 358.996C550.67 355.21 551.607 351.351 552.29 347.444C552.009 347.444 544.593 346.743 541.663 345.06C539.111 343.588 536.279 341.023 535.9 337.938C535.783 337.217 535.819 336.48 536.007 335.774C536.194 335.068 536.528 334.41 536.987 333.842C537.447 333.275 538.02 332.81 538.671 332.48C539.323 332.149 540.036 331.959 540.765 331.924C545.154 331.811 549.836 338.219 551.126 341.92C551.21 342.158 551.911 345.201 552.206 346.645H552.444C553.023 342.696 553.248 338.703 553.117 334.714C553.117 332.526 552.907 330.423 552.696 328.391C551.294 328.391 544.929 328.391 542.125 327.185C539.321 325.979 536.335 323.764 535.606 320.75C535.412 320.044 535.368 319.304 535.479 318.58C535.59 317.856 535.853 317.164 536.25 316.549C536.647 315.933 537.17 315.409 537.783 315.009C538.397 314.61 539.089 314.344 539.812 314.23C544.172 313.642 549.528 319.488 551.224 323.021C551.309 323.217 552.038 325.278 552.528 326.792C552.43 325.867 552.332 324.928 552.206 323.988C551.771 320.694 551.154 317.707 550.593 315.058C550.257 313.557 549.935 312.254 549.612 310.95C548.21 310.249 542.714 307.375 540.836 305.033C538.957 302.692 537.274 299.341 538.032 296.327C538.192 295.619 538.499 294.952 538.933 294.369C539.367 293.787 539.918 293.302 540.55 292.945C541.183 292.589 541.883 292.369 542.606 292.299C543.329 292.229 544.058 292.312 544.747 292.541Z" fill="white"/>
<path d="M624.213 360.314C620.778 360.174 613.908 356.641 613.908 356.641C613.908 356.641 617.595 352.827 617.861 352.603C620.932 350.164 628.306 347.233 631.966 349.673C632.564 350.092 633.067 350.633 633.441 351.259C633.816 351.886 634.054 352.585 634.14 353.31C634.227 354.036 634.158 354.771 633.941 355.468C633.723 356.165 633.36 356.809 632.877 357.356C630.9 359.753 627.143 360.426 624.213 360.314Z" fill="white"/>
</g>
<path d="M584.101 446.327C584.101 446.327 563.254 396.079 551.589 398.266C539.924 400.453 571.595 478.376 571.595 478.376C571.595 478.376 534.919 409.188 509.907 409.188C484.896 409.188 519.077 485.653 550.762 511.141C550.762 511.141 500.738 457.248 471.563 468.913C442.387 480.578 529.956 535.185 529.956 535.185C529.956 535.185 479.106 519.161 484.938 531.54C490.77 543.92 506.613 546.107 506.613 546.107L449.131 549.023H649.126L604.108 544.649C604.108 544.649 650.794 521.348 638.289 511.87C625.783 502.393 598.276 522.792 598.276 522.792C598.276 522.792 645.789 470.357 636.62 450.701C627.451 431.045 586.597 486.382 586.597 486.382C586.597 486.382 619.95 415.749 613.235 403.355C606.519 390.962 584.101 446.327 584.101 446.327Z" fill="#C80036"/>
<path opacity="0.4" d="M584.101 446.327C584.101 446.327 563.254 396.079 551.589 398.266C539.924 400.453 571.595 478.376 571.595 478.376C571.595 478.376 534.919 409.188 509.907 409.188C484.896 409.188 519.077 485.653 550.762 511.141C550.762 511.141 500.738 457.248 471.563 468.913C442.387 480.578 529.956 535.185 529.956 535.185C529.956 535.185 479.106 519.161 484.938 531.54C490.77 543.92 506.613 546.107 506.613 546.107L449.131 549.023H649.126L604.108 544.649C604.108 544.649 650.794 521.348 638.289 511.87C625.783 502.393 598.276 522.792 598.276 522.792C598.276 522.792 645.789 470.357 636.62 450.701C627.451 431.045 586.597 486.382 586.597 486.382C586.597 486.382 619.95 415.749 613.235 403.355C606.519 390.962 584.101 446.327 584.101 446.327Z" fill="white"/>
<path d="M590.775 448.977C572.437 503.164 572.437 541.509 572.437 541.509C572.437 541.509 594.112 542.35 616.614 525.68" stroke="#263238" stroke-linecap="round" stroke-linejoin="round"/>
<path d="M581.606 478.152C577.822 461.954 572.802 446.069 566.59 430.638" stroke="#263238" stroke-linecap="round" stroke-linejoin="round"/>
<path d="M527.418 446.481L574.091 515.67C574.091 515.67 605.776 489.032 616.614 473.988" stroke="#263238" stroke-linecap="round" stroke-linejoin="round"/>
<path d="M573.264 532.339C573.264 532.339 524.082 508.996 504.075 495.663" stroke="#263238" stroke-linecap="round" stroke-linejoin="round"/>
<path d="M261.753 194.934L250.299 176.652H149.411V194.934V201.509V505.659H564.684V194.934H261.753Z" fill="#263238"/>
<path d="M561.95 203.318H152.495V499.028H561.95V203.318Z" fill="white"/>
<mask id="mask0_155_256" style="mask-type:luminance" maskUnits="userSpaceOnUse" x="152" y="203" width="410" height="297">
<path d="M561.95 203.318H152.495V499.028H561.95V203.318Z" fill="white"/>
</mask>
<g mask="url(#mask0_155_256)">
<path opacity="0.17" d="M563.954 200.78H554.449V501.271H563.954V200.78Z" fill="black"/>
<path opacity="0.17" d="M563.954 382.466H554.449V498.832H563.954V382.466Z" fill="black"/>
<path d="M562.482 199.322H150.869V215.403H562.482V199.322Z" fill="#C80036" stroke="#263238" stroke-miterlimit="10"/>
</g>
<path d="M561.95 203.318H152.495V499.028H561.95V203.318Z" stroke="#263238" stroke-linecap="round" stroke-linejoin="round"/>
<g opacity="0.17">
<path d="M365.824 230.909H337.181C336.85 230.909 336.521 230.844 336.215 230.717C335.909 230.59 335.631 230.405 335.397 230.17C335.162 229.936 334.976 229.658 334.849 229.352C334.723 229.045 334.657 228.717 334.657 228.386C334.656 228.053 334.719 227.724 334.845 227.416C334.971 227.108 335.157 226.828 335.392 226.592C335.626 226.356 335.905 226.169 336.212 226.042C336.519 225.914 336.848 225.848 337.181 225.848H365.824C366.156 225.848 366.486 225.914 366.793 226.042C367.1 226.169 367.379 226.356 367.613 226.592C367.848 226.828 368.033 227.108 368.159 227.416C368.285 227.724 368.349 228.053 368.347 228.386C368.347 228.717 368.282 229.045 368.155 229.352C368.029 229.658 367.843 229.936 367.608 230.17C367.374 230.405 367.096 230.59 366.79 230.717C366.483 230.844 366.155 230.909 365.824 230.909Z" fill="black"/>
<path d="M423.11 230.909H394.467C393.799 230.906 393.159 230.639 392.686 230.166C392.214 229.694 391.947 229.054 391.943 228.386C391.943 227.715 392.209 227.072 392.681 226.596C393.154 226.121 393.796 225.852 394.467 225.848H423.11C423.783 225.848 424.428 226.115 424.904 226.591C425.38 227.067 425.647 227.713 425.647 228.386C425.644 229.056 425.375 229.698 424.899 230.171C424.424 230.644 423.78 230.909 423.11 230.909Z" fill="black"/>
<path d="M480.409 230.909H451.766C451.096 230.909 450.453 230.644 449.977 230.171C449.502 229.698 449.233 229.056 449.229 228.386C449.229 227.713 449.496 227.067 449.972 226.591C450.448 226.115 451.093 225.848 451.766 225.848H480.409C481.08 225.852 481.722 226.121 482.195 226.596C482.668 227.072 482.933 227.715 482.933 228.386C482.929 229.054 482.662 229.694 482.19 230.166C481.717 230.639 481.078 230.906 480.409 230.909Z" fill="black"/>
<path d="M537.695 230.909H509.052C508.721 230.909 508.393 230.844 508.086 230.717C507.78 230.59 507.502 230.405 507.268 230.17C507.033 229.936 506.847 229.658 506.721 229.352C506.594 229.045 506.529 228.717 506.529 228.386C506.527 228.053 506.591 227.724 506.717 227.416C506.843 227.108 507.028 226.828 507.263 226.592C507.497 226.356 507.776 226.169 508.083 226.042C508.39 225.914 508.72 225.848 509.052 225.848H537.695C538.366 225.852 539.007 226.121 539.48 226.596C539.953 227.072 540.219 227.715 540.219 228.386C540.215 229.054 539.948 229.694 539.475 230.166C539.003 230.639 538.363 230.906 537.695 230.909Z" fill="black"/>
</g>
<path d="M191.191 351.608H234.47" stroke="#263238" stroke-width="3" stroke-linecap="round" stroke-linejoin="round"/>
<path d="M233.699 358.351H238.424" stroke="#263238" stroke-linecap="round" stroke-linejoin="round"/>
<path d="M206.599 358.351H230.839" stroke="#263238" stroke-linecap="round" stroke-linejoin="round"/>
<path d="M187.882 358.351H204.033" stroke="#263238" stroke-linecap="round" stroke-linejoin="round"/>
<path d="M218.572 365.095H238.424" stroke="#263238" stroke-linecap="round" stroke-linejoin="round"/>
<path d="M207.734 365.095H215.445" stroke="#263238" stroke-linecap="round" stroke-linejoin="round"/>
<path d="M187.882 365.095H204.313" stroke="#263238" stroke-linecap="round" stroke-linejoin="round"/>
<path d="M198.607 371.824H238.424" stroke="#263238" stroke-linecap="round" stroke-linejoin="round"/>
<path d="M187.882 371.824H194.906" stroke="#263238" stroke-linecap="round" stroke-linejoin="round"/>
<path d="M228.568 378.568H238.424" stroke="#263238" stroke-linecap="round" stroke-linejoin="round"/>
<path d="M209.739 378.568H225.133" stroke="#263238" stroke-linecap="round" stroke-linejoin="round"/>
<path d="M187.882 378.568H206.599" stroke="#263238" stroke-linecap="round" stroke-linejoin="round"/>
<path d="M204.313 385.312H238.424" stroke="#263238" stroke-linecap="round" stroke-linejoin="round"/>
<path d="M187.882 385.312H201.173" stroke="#263238" stroke-linecap="round" stroke-linejoin="round"/>
<path d="M289.892 351.608H333.171" stroke="#263238" stroke-width="3" stroke-linecap="round" stroke-linejoin="round"/>
<path d="M332.4 358.351H337.125" stroke="#263238" stroke-linecap="round" stroke-linejoin="round"/>
<path d="M305.3 358.351H329.54" stroke="#263238" stroke-linecap="round" stroke-linejoin="round"/>
<path d="M286.583 358.351H302.734" stroke="#263238" stroke-linecap="round" stroke-linejoin="round"/>
<path d="M317.273 365.095H337.125" stroke="#263238" stroke-linecap="round" stroke-linejoin="round"/>
<path d="M306.435 365.095H314.146" stroke="#263238" stroke-linecap="round" stroke-linejoin="round"/>
<path d="M286.583 365.095H303.014" stroke="#263238" stroke-linecap="round" stroke-linejoin="round"/>
<path d="M297.308 371.824H337.125" stroke="#263238" stroke-linecap="round" stroke-linejoin="round"/>
<path d="M286.583 371.824H293.607" stroke="#263238" stroke-linecap="round" stroke-linejoin="round"/>
<path d="M327.269 378.568H337.125" stroke="#263238" stroke-linecap="round" stroke-linejoin="round"/>
<path d="M308.44 378.568H323.834" stroke="#263238" stroke-linecap="round" stroke-linejoin="round"/>
<path d="M286.583 378.568H305.299" stroke="#263238" stroke-linecap="round" stroke-linejoin="round"/>
<path d="M303.014 385.312H337.125" stroke="#263238" stroke-linecap="round" stroke-linejoin="round"/>
<path d="M286.583 385.312H299.874" stroke="#263238" stroke-linecap="round" stroke-linejoin="round"/>
<path d="M388.592 351.608H431.872" stroke="#263238" stroke-width="3" stroke-linecap="round" stroke-linejoin="round"/>
<path d="M431.101 358.351H435.826" stroke="#263238" stroke-linecap="round" stroke-linejoin="round"/>
<path d="M404 358.351H428.241" stroke="#263238" stroke-linecap="round" stroke-linejoin="round"/>
<path d="M385.284 358.351H401.435" stroke="#263238" stroke-linecap="round" stroke-linejoin="round"/>
<path d="M415.973 365.095H435.826" stroke="#263238" stroke-linecap="round" stroke-linejoin="round"/>
<path d="M405.136 365.095H412.847" stroke="#263238" stroke-linecap="round" stroke-linejoin="round"/>
<path d="M385.284 365.095H401.715" stroke="#263238" stroke-linecap="round" stroke-linejoin="round"/>
<path d="M396.009 371.824H435.826" stroke="#263238" stroke-linecap="round" stroke-linejoin="round"/>
<path d="M385.284 371.824H392.308" stroke="#263238" stroke-linecap="round" stroke-linejoin="round"/>
<path d="M425.97 378.568H435.826" stroke="#263238" stroke-linecap="round" stroke-linejoin="round"/>
<path d="M407.141 378.568H422.535" stroke="#263238" stroke-linecap="round" stroke-linejoin="round"/>
<path d="M385.284 378.568H404" stroke="#263238" stroke-linecap="round" stroke-linejoin="round"/>
<path d="M401.715 385.312H435.826" stroke="#263238" stroke-linecap="round" stroke-linejoin="round"/>
<path d="M385.284 385.312H398.575" stroke="#263238" stroke-linecap="round" stroke-linejoin="round"/>
<path d="M487.293 351.608H530.573" stroke="#263238" stroke-width="3" stroke-linecap="round" stroke-linejoin="round"/>
<path d="M529.802 358.351H534.526" stroke="#263238" stroke-linecap="round" stroke-linejoin="round"/>
<path d="M502.701 358.351H526.942" stroke="#263238" stroke-linecap="round" stroke-linejoin="round"/>
<path d="M483.984 358.351H500.135" stroke="#263238" stroke-linecap="round" stroke-linejoin="round"/>
<path d="M514.674 365.095H534.527" stroke="#263238" stroke-linecap="round" stroke-linejoin="round"/>
<path d="M503.837 365.095H511.548" stroke="#263238" stroke-linecap="round" stroke-linejoin="round"/>
<path d="M483.984 365.095H500.416" stroke="#263238" stroke-linecap="round" stroke-linejoin="round"/>
<path d="M494.71 371.824H534.527" stroke="#263238" stroke-linecap="round" stroke-linejoin="round"/>
<path d="M483.984 371.824H491.008" stroke="#263238" stroke-linecap="round" stroke-linejoin="round"/>
<path d="M524.67 378.568H534.526" stroke="#263238" stroke-linecap="round" stroke-linejoin="round"/>
<path d="M505.842 378.568H521.236" stroke="#263238" stroke-linecap="round" stroke-linejoin="round"/>
<path d="M483.984 378.568H502.701" stroke="#263238" stroke-linecap="round" stroke-linejoin="round"/>
<path d="M500.416 385.312H534.526" stroke="#263238" stroke-linecap="round" stroke-linejoin="round"/>
<path d="M483.984 385.312H497.275" stroke="#263238" stroke-linecap="round" stroke-linejoin="round"/>
<path d="M547.859 329.891H166.516V251.224H547.859V329.891Z" fill="#C80036"/>
<path opacity="0.7" d="M547.859 329.891H166.516V251.224H547.859V329.891Z" fill="white"/>
<path d="M451.36 329.891H263.085V251.224H451.36V329.891Z" fill="#C80036"/>
<path opacity="0.92" d="M451.36 329.891H263.085V251.224H451.36V329.891Z" fill="white"/>
<path d="M412.889 274.021H425.717" stroke="#263238" stroke-linecap="round" stroke-linejoin="round"/>
<path d="M339.452 274.021H405.164" stroke="#263238" stroke-linecap="round" stroke-linejoin="round"/>
<path d="M288.728 274.021H332.484" stroke="#263238" stroke-linecap="round" stroke-linejoin="round"/>
<path d="M371.923 280.765H425.717" stroke="#263238" stroke-linecap="round" stroke-linejoin="round"/>
<path d="M342.537 280.765H363.412" stroke="#263238" stroke-linecap="round" stroke-linejoin="round"/>
<path d="M288.728 280.765H333.269" stroke="#263238" stroke-linecap="round" stroke-linejoin="round"/>
<path d="M317.805 287.508H425.717" stroke="#263238" stroke-linecap="round" stroke-linejoin="round"/>
<path d="M288.728 287.508H307.753" stroke="#263238" stroke-linecap="round" stroke-linejoin="round"/>
<path d="M398.981 294.252H425.717" stroke="#263238" stroke-linecap="round" stroke-linejoin="round"/>
<path d="M347.948 294.252H389.7" stroke="#263238" stroke-linecap="round" stroke-linejoin="round"/>
<path d="M288.728 294.252H339.452" stroke="#263238" stroke-linecap="round" stroke-linejoin="round"/>
<path d="M333.269 300.981H425.717" stroke="#263238" stroke-linecap="round" stroke-linejoin="round"/>
<path d="M288.728 300.981H324.759" stroke="#263238" stroke-linecap="round" stroke-linejoin="round"/>
<path d="M547.859 498.047H166.516V419.38H547.859V498.047Z" fill="#C80036"/>
<path opacity="0.7" d="M547.859 498.047H166.516V419.38H547.859V498.047Z" fill="white"/>
<mask id="mask1_155_256" style="mask-type:luminance" maskUnits="userSpaceOnUse" x="466" y="387" width="85" height="112">
<path d="M550.804 387.443H466.137V498.537H550.804V387.443Z" fill="white"/>
</mask>
<g mask="url(#mask1_155_256)">
<path d="M502.729 449.313C502.729 449.313 480.395 458.286 476.89 459.393C473.385 460.501 473.175 462.015 473.175 466.824C473.175 471.633 473.834 493.322 473.834 495.074C473.834 496.827 473.61 500.107 473.61 500.107H546.78C546.78 500.107 541.957 480.479 539.111 471.212C536.265 461.945 537.583 461.132 532.55 458.076C527.516 455.019 514.324 450.631 511.52 449.972C508.612 449.516 505.672 449.295 502.729 449.313Z" fill="#263238" stroke="#263238" stroke-linecap="round" stroke-linejoin="round"/>
<path d="M503.823 446.901C503.823 446.901 498.565 446.467 496.378 450.855C494.191 455.243 488.933 465.464 488.933 465.464L495.284 469.404L487.896 473.175C489.13 478.584 490.665 483.92 492.494 489.158C493.767 492.595 495.227 495.961 496.869 499.238C496.869 499.238 507.524 487.195 511.73 483.466C514.503 480.812 516.798 477.701 518.516 474.269L513.048 469.235L522.469 468.142C522.469 468.142 520.058 455.888 516.987 450.855C513.917 445.822 503.823 446.901 503.823 446.901Z" fill="#263238" stroke="#263238" stroke-linecap="round" stroke-linejoin="round"/>
<path d="M493.069 489.298C493.462 490.391 493.882 491.429 494.289 492.34" stroke="white" stroke-width="0.5" stroke-linecap="round" stroke-linejoin="round"/>
<path d="M493.868 456.309L488.933 465.464L495.284 469.404L488.485 473.259C488.485 473.259 490.069 480.171 492.06 486.368" stroke="white" stroke-width="0.5" stroke-linecap="round" stroke-linejoin="round"/>
<path d="M518.74 452.159L522.427 468.142L513.006 469.235L518.474 474.268C518.474 474.268 507.959 486.592 503.598 491.569" stroke="white" stroke-width="0.5" stroke-linecap="round" stroke-linejoin="round"/>
<path d="M532.508 476.68L528.568 500.991" stroke="white" stroke-width="0.5" stroke-linecap="round" stroke-linejoin="round"/>
<path d="M478.432 472.306C478.432 472.306 477.998 486.971 478.208 491.569C478.382 494.484 478.972 497.359 479.961 500.107" stroke="white" stroke-width="0.5" stroke-linecap="round" stroke-linejoin="round"/>
<path d="M518.936 482.596L522.652 477.563L525.722 482.596H518.936Z" fill="white" stroke="#263238" stroke-miterlimit="10"/>
<path d="M523.31 434.424C523.31 434.424 527.026 433.989 527.909 439.471C528.792 444.953 526.156 451.949 517.394 451.949C508.631 451.949 509.304 445.373 509.515 440.564C509.725 435.756 523.31 434.424 523.31 434.424Z" fill="#263238" stroke="#263238" stroke-miterlimit="10"/>
<path d="M501.636 443.411C501.636 443.411 501.411 449.748 500.977 456.982C500.542 464.216 497.037 474.058 497.037 482.372C497.007 486.979 497.227 491.585 497.696 496.168C497.696 496.168 504.916 482.148 508.197 474.058C511.478 465.969 515.207 442.527 515.207 442.527L501.636 443.411Z" fill="white" stroke="#263238" stroke-miterlimit="10"/>
<path d="M523.086 429.012C524.716 425.819 525.617 422.304 525.722 418.721C525.722 413.253 524.628 405.809 518.277 402.514C511.926 399.219 499.659 401.421 496.602 407.772C494.539 411.831 493.572 416.36 493.798 420.908C494.019 423.367 494.532 425.791 495.326 428.129C495.326 428.129 496.21 423.923 502.112 421.792C508.015 419.661 514.38 417.403 517.436 418.988C520.492 420.572 523.086 429.012 523.086 429.012Z" fill="#263238" stroke="#263238" stroke-linecap="round" stroke-linejoin="round"/>
<path d="M495.509 426.769C495.509 426.769 492.873 422.829 491.779 425.675C490.686 428.521 492.228 432.685 493.967 433.554C495.705 434.424 496.602 433.989 496.602 433.989L495.509 426.769Z" fill="white" stroke="#263238" stroke-linecap="round" stroke-linejoin="round"/>
<path d="M523.086 427.428C523.086 427.428 526.157 424.357 526.157 427.203C526.002 429.845 525.021 432.37 523.353 434.424C522.035 436.176 521.376 435.307 521.376 435.307L523.086 427.428Z" fill="white" stroke="#263238" stroke-linecap="round" stroke-linejoin="round"/>
<path d="M517.885 414.824L520.058 408.697C520.143 408.457 520.13 408.193 520.021 407.963C519.912 407.733 519.716 407.556 519.476 407.47C519.236 407.385 518.972 407.398 518.742 407.507C518.512 407.616 518.335 407.812 518.249 408.052L516.427 413.169C514.509 412.716 512.519 412.658 510.578 413.001C508.638 413.343 506.787 414.078 505.141 415.16C499.448 418.889 494.85 422.17 494.85 422.17C494.85 422.17 495.074 434.648 497.472 439.246C499.869 443.845 504.047 449.313 507.552 449.313C511.057 449.313 517.184 441.658 519.595 439.246C522.007 436.835 523.535 427.428 523.535 424.357C523.535 422.156 519.918 417.361 517.885 414.824Z" fill="white" stroke="#263238" stroke-miterlimit="10"/>
<path d="M509.262 471.072C505.706 471.394 502.123 470.915 498.775 469.67C497.773 473.868 497.19 478.156 497.037 482.47C497.007 487.077 497.227 491.683 497.696 496.266C497.696 496.266 504.916 482.246 508.197 474.156C508.547 473.203 508.926 472.151 509.262 471.072Z" fill="#C80036" stroke="#263238" stroke-miterlimit="10"/>
</g>
<mask id="mask2_155_256" style="mask-type:luminance" maskUnits="userSpaceOnUse" x="366" y="387" width="86" height="112">
<path d="M451.57 387.443H366.903V498.537H451.57V387.443Z" fill="white"/>
</mask>
<g mask="url(#mask2_155_256)">
<path d="M405.781 437.69C400.196 438.324 394.65 439.26 389.167 440.494C382.76 442.149 379.676 442.864 379.676 445.948C379.676 449.032 378.961 462.323 376.872 468.268C374.783 474.212 372.357 482.751 372.357 485.835C372.357 488.919 376.872 501.972 376.872 501.972H385.171C385.171 501.972 382.087 486.774 382.087 485.358C382.087 483.942 386.363 471.338 386.363 471.338L386.602 502.435H430.063L429.601 472.754C429.601 472.754 433.386 484.868 433.386 486.999C433.386 489.13 431.984 503.15 431.984 503.15H440.228C440.228 503.15 444.266 487.728 444.027 482.26C443.789 476.792 439.821 459.463 439.289 454.22C438.756 448.976 441.896 446.144 436.204 442.583C430.512 439.022 417.446 436.891 414.599 436.653C411.633 436.711 408.68 437.059 405.781 437.69Z" fill="#C80036" stroke="#263238" stroke-miterlimit="10"/>
<path d="M386.321 471.408L387.036 459.533L384.414 450.519" stroke="#263238" stroke-linecap="round" stroke-linejoin="round"/>
<path d="M429.531 457.641V472.825" stroke="#263238" stroke-linecap="round" stroke-linejoin="round"/>
<path d="M429.755 461.917L433.554 456.211" stroke="#263238" stroke-linecap="round" stroke-linejoin="round"/>
<path d="M409.819 453.841L408.403 502.028" stroke="#263238" stroke-linecap="round" stroke-linejoin="round"/>
<path d="M409.104 431.998C406.991 432.114 404.982 432.95 403.412 434.368C400.804 436.751 399.85 446.004 399.85 446.004C399.85 446.004 408.164 443.635 409.58 443.2C410.996 442.766 423.6 445.57 423.6 445.57C423.6 445.57 422.423 437.27 419.1 433.709C415.777 430.148 409.104 431.998 409.104 431.998Z" fill="#263238" stroke="#263238" stroke-linecap="round" stroke-linejoin="round"/>
<path d="M405.781 424.399C405.781 424.399 407.688 427.203 407.688 435.615C407.688 444.027 408.627 452.706 409.819 453.841C411.01 454.977 415.987 442.625 415.987 437.017C416.082 433.309 416.977 429.665 418.609 426.334C418.609 426.334 412.665 422.296 409.58 421.82C408.738 421.688 407.877 421.882 407.172 422.361C406.467 422.839 405.97 423.568 405.781 424.399Z" fill="white" stroke="#263238" stroke-linecap="round" stroke-linejoin="round"/>
<path d="M408.066 444.869C408.445 449.481 409.09 453.112 409.819 453.841C410.548 454.57 412.833 449.944 414.403 444.981C412.298 445.279 410.159 445.241 408.066 444.869Z" fill="#263238" stroke="#263238" stroke-linecap="round" stroke-linejoin="round"/>
<path d="M420.264 401.617C420.264 401.617 421.666 402.094 424.301 399.71C426.937 397.327 425.703 392.826 424.54 393.78C423.797 394.386 423.153 395.105 422.633 395.911C422.173 394.521 421.325 393.292 420.19 392.369C419.055 391.445 417.68 390.864 416.226 390.695C411.249 390.219 405.304 397.102 405.304 397.102C405.304 397.102 394.397 405.178 395.574 411.585C396.752 417.992 402.935 423.684 405.781 424.399C408.627 425.114 413.856 419.899 412.903 415.384C411.95 410.87 411.249 404.168 412.903 403.51C415.319 402.741 417.776 402.109 420.264 401.617Z" fill="#263238" stroke="#263238" stroke-linecap="round" stroke-linejoin="round"/>
<path d="M405.304 420.6C405.304 420.6 401.28 417.796 400.327 419.899C399.374 422.002 401.519 425.829 404.127 427.007C406.734 428.185 409.104 424.399 409.104 424.399C409.104 424.399 417.417 431.045 423.124 431.283C428.83 431.521 429.068 427.007 428.115 418.469C427.161 409.931 424.315 403.271 422.184 400.902C420.053 398.532 411.739 400.663 409.118 402.794C406.496 404.925 404.912 406.832 407.463 407.309C410.015 407.786 412.44 408.711 410.071 411.347C407.702 413.982 406.51 413.001 407.267 414.908C408.024 416.814 411.066 418.707 408.22 419.66L405.304 420.6Z" fill="white" stroke="#263238" stroke-linecap="round" stroke-linejoin="round"/>
</g>
<mask id="mask3_155_256" style="mask-type:luminance" maskUnits="userSpaceOnUse" x="255" y="386" width="86" height="113">
<path d="M340.476 386.91H255.809V498.551H340.476V386.91Z" fill="white"/>
</mask>
<g mask="url(#mask3_155_256)">
<path d="M300.981 433.218C300.981 433.218 271.063 436.779 270.137 439.387C269.212 441.994 258.276 467.427 259.931 469.768C261.585 472.109 264.922 472.572 267.53 472.572C269.377 472.407 271.124 471.661 272.521 470.441L264.922 502.687H319.993L321.661 480.129C321.661 480.129 328.068 482.933 332.344 482.512C336.62 482.091 335.667 478.713 334.714 472.306C333.76 465.898 333.312 449.509 331.629 446.425C329.947 443.34 309.786 434.788 309.786 434.788L300.981 433.218Z" fill="#263238" stroke="#263238" stroke-linecap="round" stroke-linejoin="round"/>
<path d="M322.109 471.885V457.164L323.287 454.318" stroke="white" stroke-linecap="round" stroke-linejoin="round"/>
<path d="M274.147 459.533L276.531 449.565L276.054 447.434" stroke="white" stroke-linecap="round" stroke-linejoin="round"/>
<path d="M280.4 503.696C280.4 503.696 284.9 484.223 287.046 472.123C289.191 460.024 298.121 433.218 298.121 433.218L311.903 437.017C311.903 437.017 302.636 464.076 300.266 475.712C297.897 487.349 295.906 503.837 295.906 503.837L280.4 503.696Z" fill="#C80036" stroke="#263238" stroke-miterlimit="10"/>
<path d="M300.028 430.414C300.028 430.414 295.99 430.414 294.56 433.218C293.13 436.022 291.237 446.986 291.237 446.986C291.237 446.986 299.79 443.186 300.505 443.186C301.22 443.186 304.542 443.424 306.197 445.317C307.851 447.21 311.426 451.724 311.426 451.724C311.426 451.724 316.88 442.948 315.464 437.256C314.979 435.38 313.914 433.704 312.421 432.468C310.928 431.232 309.084 430.499 307.15 430.372L300.028 430.414Z" fill="#C80036" stroke="#263238" stroke-miterlimit="10"/>
<path d="M298.626 424.161C298.626 424.161 298.149 440.789 298.626 445.527C299.103 450.266 299.818 451.458 299.818 451.458C299.818 451.458 303.856 444.812 305.033 442.443C306.211 440.074 309.786 437.452 311.454 435.321C313.123 433.19 314.258 425.114 314.258 425.114C314.258 425.114 308.09 429.867 304.767 428.675C302.416 427.635 300.32 426.095 298.626 424.161Z" fill="white" stroke="#263238" stroke-linecap="round" stroke-linejoin="round"/>
<path d="M308.44 394.116C304.402 394.705 300.463 396.724 299.327 400.663C298.374 403.986 297.925 414.908 297.673 420.362C297.42 425.815 300.28 432.713 302.65 433.428C304.628 434.13 306.756 434.295 308.819 433.905C310.01 433.428 315.478 426.068 316.894 424.638C318.31 423.208 322.586 409.917 322.586 405.178C322.691 402.84 322.03 400.533 320.704 398.605C319.378 396.677 317.46 395.234 315.24 394.495C313.025 393.893 310.708 393.764 308.44 394.116Z" fill="white" stroke="#263238" stroke-linecap="round" stroke-linejoin="round"/>
<path d="M320.203 416.394C320.203 416.394 324.002 413.057 323.007 417.333C322.701 418.611 322.118 419.806 321.299 420.833C320.48 421.86 319.445 422.695 318.268 423.278L320.203 416.394Z" fill="white" stroke="#263238" stroke-linecap="round" stroke-linejoin="round"/>
<path d="M298.121 411.823C298.121 411.823 295.317 409.216 295.317 412.777C295.426 415.109 296.259 417.348 297.701 419.184L298.121 411.823Z" fill="white" stroke="#263238" stroke-linecap="round" stroke-linejoin="round"/>
<path d="M320.203 416.394C321.435 412.762 322.23 408.997 322.572 405.178C322.677 402.84 322.016 400.533 320.69 398.605C319.364 396.677 317.446 395.234 315.226 394.495C313.011 393.893 310.694 393.764 308.426 394.116C304.388 394.705 300.449 396.724 299.313 400.663C298.582 404.592 298.156 408.572 298.037 412.566C299.243 411.627 301.753 409.328 301.22 406.594C300.505 403.033 299.075 401.378 301.682 399.71C304.29 398.042 307.389 400.425 311.665 401.855C315.941 403.285 320.203 401.378 321.395 402.556C322.586 403.734 317.595 408.739 318.31 410.632C319.025 412.524 320.68 414.669 320.203 416.338V416.394Z" fill="#263238" stroke="#263238" stroke-linecap="round" stroke-linejoin="round"/>
<path d="M286.008 461.917C286.008 461.917 282.447 456.926 280.078 456.687C277.708 456.449 272.002 461.917 272.002 461.917H286.008Z" fill="white" stroke="#263238" stroke-linecap="round" stroke-linejoin="round"/>
<path d="M308.566 462.379H311.903L312.604 469.039L309.043 468.086L308.566 462.379Z" fill="white" stroke="#263238" stroke-linecap="round" stroke-linejoin="round"/>
<path d="M311.903 462.379L317.833 465.001L319.249 472.362L312.604 469.039L311.903 462.379Z" fill="white" stroke="#263238" stroke-linecap="round" stroke-linejoin="round"/>
<path d="M330.872 475.278L296.93 461.987C294.973 462.949 293.138 464.139 291.462 465.534C290.472 466.529 289.74 467.752 289.331 469.095C289.331 469.095 305.468 480.732 313.305 484.293C321.142 487.854 332.54 489.045 334.433 487.097C336.326 485.148 335.835 477.843 334.672 476.652C334.042 476.003 333.325 475.446 332.54 474.997" fill="#263238"/>
<path d="M330.872 475.278L296.93 461.987C294.973 462.949 293.138 464.139 291.462 465.534C290.472 466.529 289.74 467.752 289.331 469.095C289.331 469.095 305.468 480.732 313.305 484.293C321.142 487.854 332.54 489.045 334.433 487.097C336.326 485.148 335.835 477.843 334.672 476.652C334.042 476.003 333.325 475.446 332.54 474.997" stroke="#263238" stroke-linecap="round" stroke-linejoin="round"/>
<path d="M308.566 461.258L309.043 468.142C309.043 468.142 284.115 473.834 274.862 475.502C265.609 477.171 260.618 475.965 259.202 471.703C257.786 467.441 262.525 462.197 264.656 461.02C266.787 459.842 308.566 461.258 308.566 461.258Z" fill="#263238" stroke="#263238" stroke-linecap="round" stroke-linejoin="round"/>
</g>
<mask id="mask4_155_256" style="mask-type:luminance" maskUnits="userSpaceOnUse" x="170" y="387" width="76" height="112">
<path d="M245.56 387.443H170.595V498.537H245.56V387.443Z" fill="white"/>
</mask>
<g mask="url(#mask4_155_256)">
<path d="M216.875 444.981C216.875 444.981 226.381 447.35 230.18 448.542C233.98 449.733 235.157 451.15 235.157 453.996C235.157 456.842 233.026 469.418 233.026 471.324V484.153C233.026 487.714 236.587 500.766 236.587 500.766H190.321C190.321 500.766 185.106 480.83 181.545 469.922C177.984 459.015 177.507 455.201 181.068 453.533C189.533 450.431 198.17 447.819 206.935 445.71C210.227 445.235 213.549 444.991 216.875 444.981Z" fill="#C80036" stroke="#263238" stroke-miterlimit="10"/>
<path d="M230.657 460.641C230.657 460.641 233.461 473.708 232.55 478.447C231.638 483.185 225.189 501.243 225.189 501.243" stroke="#263238" stroke-linecap="round" stroke-linejoin="round"/>
<path d="M181.04 453.519C181.04 453.519 176.834 454.234 177.956 459.702C179.077 465.169 173.68 500.514 173.68 500.514H184.125C184.125 500.514 191.247 481.755 192.424 477.255C193.602 472.754 194.569 469.179 192.424 465.38" fill="#C80036"/>
<path d="M181.04 453.519C181.04 453.519 176.834 454.234 177.956 459.702C179.077 465.169 173.68 500.514 173.68 500.514H184.125C184.125 500.514 191.247 481.755 192.424 477.255C193.602 472.754 194.569 469.179 192.424 465.38" stroke="#263238" stroke-miterlimit="10"/>
<path d="M225.273 421.862L226.83 470.217H212.796V426.026L225.273 421.862Z" fill="#263238" stroke="#263238" stroke-linecap="round" stroke-linejoin="round"/>
<path d="M207.145 456.617C207.145 456.617 211.183 474.843 212.852 480.353C214.52 485.863 214.744 498.579 214.254 500.29C213.763 502 220.184 500.29 220.184 500.29C220.184 500.29 221.852 487.672 222.806 480.353C223.759 473.035 220.899 459.225 220.899 459.225L217.815 447.112L206.178 449.257L207.145 456.617Z" fill="white" stroke="#263238" stroke-linecap="round" stroke-linejoin="round"/>
<path d="M217.31 436.667C216.648 440.446 216.729 444.317 217.548 448.065C218.95 453.294 222.778 462.786 219.455 465.394C216.132 468.001 211.618 466.585 209.248 461.833C206.879 457.08 204.734 445.219 204.734 435.489C204.734 425.759 205.687 424.091 209.01 424.091C212.333 424.091 217.31 436.667 217.31 436.667Z" fill="white" stroke="#263238" stroke-linecap="round" stroke-linejoin="round"/>
<path d="M210.468 432.166C208.333 434.022 205.822 435.395 203.108 436.19C199.547 436.905 197.654 427.414 197.177 417.964C196.7 408.515 199.084 403.243 204.061 400.874C209.038 398.504 221.151 399.682 225.904 401.575C230.657 403.467 236.349 406.566 236.349 411.543C236.349 416.52 229.928 420.6 228.035 421.721C226.142 422.843 221.628 424.525 218.782 427.414C216.323 429.49 213.505 431.101 210.468 432.166Z" fill="#263238" stroke="#263238" stroke-linecap="round" stroke-linejoin="round"/>
<path d="M210.468 432.166C210.468 432.166 213.272 439.289 218.544 439.513C223.815 439.737 229.76 427.652 229.942 422.423C230.124 417.193 224.712 408.178 224.712 408.178C224.712 408.178 215.459 429.306 210.468 432.166Z" fill="white" stroke="#263238" stroke-linecap="round" stroke-linejoin="round"/>
<path d="M209.052 421.483L209.515 472.754H193.616L197.177 413.169" fill="#263238"/>
<path d="M209.052 421.483L209.515 472.754H193.616L197.177 413.169" stroke="#263238" stroke-linecap="round" stroke-linejoin="round"/>
</g>
</svg>
