<svg width="77" height="71" viewBox="0 0 77 71" fill="none" xmlns="http://www.w3.org/2000/svg">
<rect width="76.3862" height="71" rx="13" fill="#C80036" fill-opacity="0.9"/>
<path d="M26.1733 9.69615L23.5177 12.374C23.163 12.7309 22.9872 13.141 22.9891 13.6038C22.991 14.0654 23.1702 14.4739 23.5278 14.8278L44.5779 35.7056L23.7017 56.7559C23.3471 57.1129 23.1713 57.5228 23.1732 57.9851C23.1751 58.4475 23.3543 58.8559 23.7118 59.2098L26.3898 61.8653C26.7466 62.2199 27.1565 62.3957 27.6189 62.3938C28.0809 62.3919 28.4894 62.2121 28.8433 61.8551L53.5981 36.8953C53.9522 36.5385 54.1282 36.1284 54.1263 35.6662C54.1244 35.2039 53.945 34.7961 53.588 34.4424L28.6276 9.686C28.2706 9.33211 27.8607 9.15724 27.3988 9.15915C26.9364 9.16107 26.528 9.33931 26.1733 9.69615Z" fill="white" fill-opacity="0.9"/>
</svg>
