<svg width="351" height="351" viewBox="0 0 351 351" fill="none" xmlns="http://www.w3.org/2000/svg">
<path d="M87.9113 273.246C136.286 296.3 214.714 296.307 263.088 273.246C311.463 250.186 311.456 212.811 263.088 189.758C214.721 166.704 136.286 166.704 87.9113 189.758C39.5365 212.811 39.5435 250.193 87.9113 273.246Z" fill="#F5F5F5"/>
<path d="M262.921 256.209C271.83 256.209 279.053 252.767 279.053 248.522C279.053 244.277 271.83 240.835 262.921 240.835C254.012 240.835 246.789 244.277 246.789 248.522C246.789 252.767 254.012 256.209 262.921 256.209Z" fill="#EBEBEB"/>
<path d="M84.2402 249.624L89.9475 246.332C93.134 243.731 95.5594 240.319 96.9675 236.455C98.7295 231.597 98.4838 227.904 97.2202 226.051C95.6688 223.77 91.6463 224.17 91.4849 228.971C91.1479 238.434 88.3891 244.998 84.2402 249.624Z" fill="#C80036"/>
<path opacity="0.2" d="M84.2402 249.624L89.9475 246.332C93.134 243.731 95.5594 240.319 96.9675 236.455C98.7295 231.597 98.4838 227.904 97.2202 226.051C95.6688 223.77 91.6463 224.17 91.4849 228.971C91.1479 238.434 88.3891 244.998 84.2402 249.624Z" fill="black"/>
<path d="M84.2393 249.975C84.165 249.974 84.0928 249.95 84.0333 249.905C83.9738 249.861 83.93 249.798 83.9081 249.727C83.8862 249.656 83.8875 249.58 83.9117 249.51C83.9359 249.44 83.9818 249.379 84.0427 249.336C97.2403 240.21 94.685 227.483 94.657 227.357C94.6473 227.311 94.6468 227.263 94.6555 227.217C94.6642 227.171 94.6819 227.126 94.7076 227.087C94.7334 227.048 94.7667 227.014 94.8055 226.987C94.8444 226.96 94.8882 226.942 94.9342 226.932C94.9803 226.922 95.0279 226.922 95.0742 226.931C95.1205 226.939 95.1646 226.957 95.204 226.983C95.2435 227.008 95.2775 227.042 95.304 227.081C95.3306 227.119 95.3493 227.163 95.359 227.209C95.359 227.343 98.0546 240.505 84.4639 249.912C84.398 249.957 84.3191 249.979 84.2393 249.975Z" fill="white"/>
<path d="M72.8037 256.23C72.8037 256.23 70.8171 254.615 71.2944 252.425C71.7718 250.235 73.0564 248.662 70.8592 245.84C68.6619 243.018 68.0512 239.256 70.6767 237.22C72.6774 235.64 75.8013 237.873 76.9245 233.71C77.7528 230.663 77.472 223.917 81.3541 221.671C85.2361 219.424 87.6721 222.808 87.0613 227.385C86.5278 231.478 85.7697 235.416 86.3593 236.511C87.4966 238.617 89.4411 238.329 89.3499 242.176C89.2726 245.756 85.882 248.719 85.882 248.719L72.8037 256.23Z" fill="#C80036"/>
<path d="M79.3249 252.797C79.2391 252.796 79.1565 252.765 79.092 252.708C79.0276 252.651 78.9857 252.573 78.9739 252.488C77.9701 244.17 80.3779 229.807 82.3435 225.539C82.3601 225.491 82.3866 225.448 82.4213 225.412C82.4559 225.376 82.4979 225.347 82.5445 225.329C82.5911 225.31 82.6411 225.301 82.6912 225.304C82.7413 225.306 82.7903 225.319 82.8349 225.342C82.8768 225.361 82.9145 225.388 82.9458 225.422C82.9771 225.455 83.0013 225.495 83.017 225.538C83.0327 225.581 83.0396 225.627 83.0372 225.673C83.0349 225.719 83.0234 225.764 83.0034 225.805C81.0589 230.017 78.7353 244.422 79.697 252.376C79.7069 252.468 79.6799 252.56 79.6221 252.633C79.5642 252.705 79.4801 252.752 79.3881 252.762L79.3249 252.797Z" fill="white"/>
<path d="M79.1365 246.318C79.0827 246.32 79.0293 246.308 78.982 246.283C76.5461 245.096 75.0017 240.863 74.9385 240.667C74.9213 240.623 74.913 240.576 74.9142 240.529C74.9153 240.483 74.9259 240.436 74.9452 240.394C74.9645 240.351 74.9922 240.312 75.0266 240.28C75.0611 240.249 75.1015 240.224 75.1457 240.208C75.1898 240.192 75.2367 240.185 75.2836 240.187C75.3304 240.19 75.3763 240.202 75.4185 240.222C75.4607 240.243 75.4984 240.272 75.5293 240.307C75.5602 240.342 75.5837 240.383 75.5984 240.428C75.5984 240.47 77.1077 244.57 79.2909 245.63C79.3625 245.665 79.4202 245.723 79.4546 245.794C79.4889 245.866 79.4978 245.947 79.4799 246.025C79.4619 246.102 79.4181 246.172 79.3558 246.221C79.2934 246.27 79.216 246.297 79.1365 246.297V246.318Z" fill="white"/>
<path d="M79.093 249.126C79.0227 249.126 78.954 249.104 78.8963 249.064C78.8385 249.024 78.7945 248.967 78.7701 248.901C78.7352 248.815 78.7355 248.719 78.771 248.634C78.8065 248.549 78.8743 248.481 78.9597 248.445C83.0593 246.802 85.6146 241.923 85.6427 241.867C85.6855 241.784 85.7595 241.722 85.8484 241.693C85.9372 241.665 86.0337 241.673 86.1165 241.716C86.1994 241.759 86.2618 241.833 86.2901 241.922C86.3184 242.011 86.3103 242.107 86.2675 242.19C86.1552 242.401 83.5648 247.357 79.2475 249.098C79.1994 249.12 79.1461 249.13 79.093 249.126Z" fill="white"/>
<path d="M222.393 211.358C222.393 211.358 219.325 206.388 219.024 200.99C218.722 195.591 219.908 193.345 221.537 192.699C223.165 192.053 223.292 194.04 224.127 195.212C224.963 196.385 226.668 195.718 227.3 192.06C227.932 188.403 230.235 182.232 235.022 181.032C240.287 179.726 237.465 185.904 236.138 188.312C234.812 190.719 233.787 194.005 234.657 194.896C235.528 195.788 236.883 194.138 238.167 195.668C239.733 197.515 234.868 204.163 232.074 205.77L222.393 211.358Z" fill="#C80036"/>
<path d="M226.597 209.273C226.551 209.271 226.506 209.261 226.464 209.241C226.422 209.222 226.384 209.194 226.353 209.161C226.322 209.127 226.297 209.087 226.281 209.044C226.265 209 226.258 208.954 226.26 208.908C226.735 200.224 229.444 191.81 234.122 184.479C234.149 184.44 234.183 184.408 234.222 184.383C234.262 184.359 234.306 184.342 234.352 184.335C234.398 184.328 234.444 184.33 234.49 184.341C234.535 184.353 234.577 184.373 234.614 184.401C234.687 184.456 234.737 184.537 234.751 184.628C234.766 184.718 234.744 184.811 234.691 184.886C230.096 192.11 227.437 200.394 226.969 208.943C226.966 208.989 226.955 209.035 226.934 209.076C226.914 209.118 226.886 209.155 226.852 209.186C226.817 209.216 226.777 209.24 226.733 209.255C226.689 209.27 226.643 209.276 226.597 209.273Z" fill="white"/>
<path d="M226.997 205.124C226.939 205.124 226.881 205.109 226.829 205.082C224.863 203.994 223.775 200.765 223.733 200.632C223.718 200.588 223.711 200.541 223.713 200.495C223.716 200.449 223.728 200.403 223.748 200.362C223.768 200.32 223.797 200.282 223.831 200.252C223.866 200.221 223.907 200.197 223.951 200.182C224.039 200.154 224.135 200.161 224.218 200.203C224.301 200.245 224.364 200.319 224.393 200.407C224.393 200.407 225.446 203.517 227.201 204.465C227.28 204.512 227.339 204.587 227.364 204.676C227.388 204.765 227.378 204.86 227.334 204.942C227.303 205.002 227.254 205.052 227.194 205.084C227.134 205.117 227.065 205.131 226.997 205.124Z" fill="white"/>
<path d="M227.342 202.997C227.264 202.997 227.189 202.97 227.128 202.922C227.067 202.873 227.024 202.806 227.005 202.731C226.994 202.686 226.991 202.64 226.998 202.595C227.004 202.55 227.02 202.506 227.043 202.467C227.067 202.428 227.098 202.394 227.135 202.367C227.172 202.34 227.213 202.32 227.258 202.309C232.326 201.025 234.081 198.371 234.095 198.343C234.12 198.304 234.153 198.27 234.191 198.243C234.229 198.217 234.272 198.198 234.317 198.188C234.362 198.178 234.409 198.176 234.455 198.184C234.5 198.192 234.544 198.209 234.583 198.234C234.623 198.259 234.656 198.292 234.683 198.33C234.71 198.368 234.729 198.41 234.739 198.456C234.749 198.501 234.75 198.548 234.742 198.594C234.734 198.639 234.717 198.683 234.692 198.722C234.615 198.842 232.79 201.628 227.433 202.99L227.342 202.997Z" fill="white"/>
<path d="M146.015 200.449C146.015 200.449 139.283 198.806 138.932 186.198C138.56 172.594 140.582 156.715 132.614 155.43C124.646 154.145 120.224 163.854 120.322 175.191C120.413 185.117 124.415 206.669 145.987 210.895L146.015 200.449Z" fill="#C80036"/>
<path opacity="0.2" d="M146.015 200.449C146.015 200.449 139.283 198.806 138.932 186.198C138.56 172.594 140.582 156.715 132.614 155.43C124.646 154.145 120.224 163.854 120.322 175.191C120.413 185.117 124.415 206.669 145.987 210.895L146.015 200.449Z" fill="black"/>
<path d="M146.015 209.603H145.952C141.101 208.719 137.149 206.044 134.207 201.664C125.488 188.655 128.233 164.366 129.139 160.126C129.159 160.036 129.213 159.957 129.291 159.906C129.368 159.855 129.462 159.836 129.553 159.852C129.644 159.874 129.723 159.93 129.774 160.008C129.825 160.087 129.844 160.182 129.827 160.274C128.935 164.486 126.204 188.466 134.79 201.27C136.04 203.256 137.688 204.96 139.631 206.275C141.575 207.59 143.77 208.487 146.078 208.908C146.124 208.917 146.167 208.934 146.206 208.959C146.245 208.985 146.279 209.018 146.305 209.056C146.331 209.095 146.349 209.138 146.359 209.184C146.368 209.23 146.368 209.277 146.359 209.322C146.344 209.402 146.301 209.474 146.238 209.526C146.175 209.577 146.096 209.605 146.015 209.603Z" fill="white"/>
<path d="M146.015 241.958C139.058 242.899 127.763 242.885 121.241 237.746C114.72 232.608 116.082 228.185 118.588 226.339C121.094 224.493 123.27 222.387 118.96 218.287C114.65 214.187 107.728 207.602 105.482 197.725C103.235 187.848 104.344 181.671 108.753 179.614C113.028 177.62 114.158 180.793 116.777 187.336C119.395 193.878 125.285 188.269 130.325 190.312C135.366 192.355 135.162 196.399 135.478 199.873C135.794 203.348 137.458 204.31 140.315 204.31C143.172 204.31 146.015 205.953 146.015 209.224V241.958Z" fill="#C80036"/>
<path d="M146.015 230.488C145.985 230.494 145.954 230.494 145.924 230.488C145.622 230.403 138.427 228.311 127.946 218.687C116.784 208.438 111.519 193.064 111.463 192.91C111.436 192.821 111.444 192.726 111.486 192.643C111.528 192.561 111.6 192.498 111.687 192.467C111.775 192.438 111.87 192.445 111.953 192.485C112.036 192.526 112.099 192.598 112.13 192.685C112.179 192.839 117.395 208.045 128.423 218.168C138.757 227.666 146.036 229.793 146.113 229.814C146.158 229.827 146.199 229.848 146.235 229.877C146.271 229.906 146.301 229.942 146.323 229.982C146.345 230.022 146.359 230.067 146.364 230.113C146.369 230.158 146.365 230.205 146.352 230.249C146.329 230.32 146.284 230.381 146.223 230.425C146.163 230.468 146.09 230.49 146.015 230.488Z" fill="white"/>
<path d="M130.873 221.13C130.803 221.131 130.733 221.11 130.676 221.07C130.618 221.029 130.574 220.972 130.55 220.905C128.297 215.121 127.784 202.745 127.742 202.218C127.74 202.126 127.774 202.036 127.837 201.968C127.9 201.9 127.987 201.859 128.079 201.853C128.171 201.854 128.259 201.89 128.326 201.952C128.394 202.014 128.436 202.099 128.444 202.19C128.444 202.316 128.971 214.973 131.182 220.653C131.199 220.696 131.207 220.742 131.206 220.789C131.205 220.835 131.195 220.881 131.176 220.923C131.157 220.966 131.13 221.004 131.096 221.036C131.062 221.068 131.022 221.093 130.978 221.109C130.945 221.121 130.909 221.128 130.873 221.13Z" fill="white"/>
<path d="M130.817 229.449C130.17 229.454 129.523 229.421 128.88 229.35C128.834 229.345 128.789 229.33 128.749 229.308C128.708 229.285 128.673 229.254 128.644 229.218C128.615 229.181 128.594 229.14 128.581 229.095C128.569 229.05 128.565 229.003 128.571 228.957C128.576 228.911 128.591 228.867 128.614 228.826C128.636 228.786 128.667 228.75 128.703 228.721C128.74 228.693 128.782 228.672 128.826 228.659C128.871 228.647 128.918 228.643 128.964 228.648C129.027 228.648 135.563 229.393 138.56 226.339C138.592 226.302 138.63 226.272 138.673 226.25C138.717 226.229 138.764 226.217 138.812 226.215C138.861 226.213 138.909 226.22 138.954 226.238C138.999 226.255 139.04 226.281 139.075 226.315C139.109 226.349 139.136 226.39 139.154 226.435C139.172 226.48 139.181 226.528 139.179 226.576C139.178 226.625 139.166 226.672 139.146 226.716C139.125 226.76 139.095 226.799 139.059 226.83C136.89 229.07 133.106 229.449 130.817 229.449Z" fill="white"/>
<path d="M125.763 96.518L125.005 92.1445L121.102 94.7138C120.745 94.0118 120.24 93.3962 119.621 92.9097L121.488 87.8553L117.978 87.076L115.409 91.99C114.479 92.1469 113.578 92.4402 112.734 92.8605L111.618 89.154L107.448 92.4323L107.722 96.7847C106.873 97.7359 106.103 98.7549 105.419 99.8314L101.979 99.6559L99.5646 105.068L102.52 106.332C102.211 107.451 102.016 108.599 101.937 109.758L98.1816 113.212L98.9328 117.592L102.843 115.023C103.198 115.724 103.703 116.338 104.324 116.82L102.492 121.881L106.002 122.653L109.68 119.073C110.53 118.94 110.319 117.339 111.246 116.883L112.362 120.575L116.525 117.304L116.42 115.591C117.262 114.651 120.449 112.58 121.137 111.499L122 110.095L124.415 104.682L123.292 102.646L122.043 99.9929L125.763 96.518ZM113.022 110.916C109.821 113.429 108.81 113.984 108.269 110.621C107.729 107.259 109.561 102.148 112.762 99.6278C115.963 97.1076 117.185 96.9321 117.76 100.288C118.336 103.643 116.23 108.431 113.022 110.916Z" fill="#E0E0E0"/>
<path d="M118.005 87.076L122.561 89.7015L119.992 94.6015L115.436 91.976L118.005 87.076Z" fill="#F5F5F5"/>
<path d="M129.561 94.77L125.658 97.3393L121.102 94.7139L125.005 92.1445L129.561 94.77Z" fill="#F5F5F5"/>
<path d="M128.935 107.287L125.98 106.03L121.424 103.405L124.379 104.661L128.935 107.287Z" fill="#E0E0E0"/>
<path d="M102.484 121.881L107.04 124.5L108.908 119.445L104.352 116.82L102.484 121.881Z" fill="#E0E0E0"/>
<path d="M116.876 123.201L112.327 120.576L111.211 116.883L115.767 119.508L116.876 123.201Z" fill="#E0E0E0"/>
<path d="M130.312 99.1434L129.561 94.77L125.658 97.3393C125.299 96.637 124.791 96.0214 124.17 95.5352L126.037 90.4808L122.562 89.7015L119.986 94.6155C119.056 94.7724 118.155 95.0657 117.311 95.486L116.202 91.7935L112.032 95.0718L112.306 99.4242C111.456 100.382 110.686 101.408 110.003 102.492L106.556 102.316L104.142 107.729L107.097 108.992C106.791 110.115 106.596 111.265 106.514 112.425L102.766 115.83L103.517 120.21L107.42 117.641C107.779 118.341 108.287 118.955 108.908 119.438L107.041 124.493L110.551 125.272L113.12 120.358C114.053 120.203 114.957 119.907 115.802 119.48L116.911 123.173L121.081 119.902L120.807 115.549C121.656 114.598 122.426 113.579 123.11 112.502L126.556 112.671L128.971 107.259L125.974 106.002C126.285 104.88 126.482 103.73 126.563 102.569L130.312 99.1434ZM117.585 113.57C114.391 116.083 111.33 115.402 110.747 112.046C110.165 108.691 112.292 103.924 115.493 101.411C118.694 98.8977 121.748 99.5857 122.33 102.941C122.913 106.297 120.786 111.056 117.585 113.57Z" fill="#EBEBEB"/>
<path d="M116.202 91.7795L111.646 89.154L107.477 92.4323L112.033 95.0578L116.202 91.7795Z" fill="#F5F5F5"/>
<path d="M107.477 92.4323L107.75 96.7847L112.306 99.4102L112.033 95.0578L107.477 92.4323Z" fill="#E0E0E0"/>
<path d="M110.004 102.457L105.448 99.8314L102.008 99.663L106.557 102.288L110.004 102.457Z" fill="#F5F5F5"/>
<path d="M102.007 99.663L99.5918 105.068L104.141 107.694L106.556 102.288L102.007 99.663Z" fill="#E0E0E0"/>
<path d="M106.514 112.383L101.965 109.758L98.209 113.212L102.758 115.837L106.514 112.383Z" fill="#F5F5F5"/>
<path d="M103.516 120.218L98.9601 117.592L98.209 113.212L102.758 115.837L103.516 120.218Z" fill="#E0E0E0"/>
<path d="M122.562 89.7015L118.006 87.076L121.488 87.8553L126.037 90.4807L122.562 89.7015Z" fill="#F5F5F5"/>
<path d="M105.363 76.6654V70.1298L100.161 72.4745C99.8854 71.3656 99.4096 70.3165 98.7569 69.3787L102.035 62.7728L98.0339 60.4633L93.9482 66.6058C92.8097 66.5063 91.6625 66.6181 90.5646 66.9357L89.989 61.2565L84.3308 64.5278L83.7622 70.8458C82.5308 71.937 81.3985 73.1351 80.3786 74.426L76.2929 73.022L72.2915 79.9578L75.5628 82.7658C74.9584 84.2944 74.4886 85.8729 74.1588 87.4832L68.957 91.1407V97.6833L74.1588 95.3386C74.4344 96.4475 74.9102 97.4966 75.5628 98.4344L72.3056 105.047L76.307 107.357L80.3926 101.214C81.5312 101.313 82.6783 101.202 83.7762 100.884L84.3449 106.564L90.003 103.292L90.5786 96.9743C92.3446 96.3299 93.909 95.2305 95.1136 93.7872L98.0479 94.8191L102.049 87.8904L99.5923 85.7844C100.126 84.0282 100.323 82.1873 100.175 80.3579L105.363 76.6654ZM87.1599 92.9939C82.8215 95.5001 80.1399 93.6959 80.1399 88.7047C80.1399 83.7135 83.7271 77.5429 88.0725 75.0368C92.4179 72.5306 95.0434 74.3348 95.0434 79.3681C95.0434 84.4015 91.5053 90.4808 87.1599 92.9939Z" fill="#E0E0E0"/>
<path d="M102.582 63.0817L98.0329 60.4633L93.9473 66.6058L98.4962 69.2312L102.582 63.0817Z" fill="#F5F5F5"/>
<path d="M109.918 72.7553L105.362 70.1298L100.16 72.4745L104.716 75.1L109.918 72.7553Z" fill="#F5F5F5"/>
<path d="M88.8793 109.189L84.3303 106.564L83.7617 100.884L88.3107 103.51L88.8793 109.189Z" fill="#E0E0E0"/>
<path d="M72.2852 105.047L76.8411 107.673L80.1195 101.067L75.5635 98.4415L72.2852 105.047Z" fill="#E0E0E0"/>
<path d="M109.919 79.326V72.7904L104.718 75.114C104.445 74.0042 103.969 72.9545 103.314 72.0182L106.592 65.4124L102.591 63.0958L98.5049 69.2453C97.3663 69.1424 96.2185 69.2543 95.1212 69.5752L94.5456 63.882L88.8875 67.1533L88.3118 73.4713C87.0822 74.5643 85.95 75.7622 84.9282 77.0515L80.8426 75.6475L76.8412 82.5833L80.1195 85.3913C79.5118 86.9188 79.042 88.4975 78.7155 90.1087L73.5137 93.7662V100.309L78.7155 97.9641C78.988 99.074 79.464 100.124 80.1195 101.06L76.8412 107.666L80.8426 109.975L84.9282 103.833C86.0668 103.932 87.2139 103.82 88.3118 103.503L88.8875 109.182L94.5456 105.911L95.1142 99.5927C96.3456 98.5016 97.4779 97.3035 98.4978 96.0126L102.583 97.4165L106.585 90.4878L103.307 87.6798C103.914 86.1523 104.384 84.5735 104.711 82.9624L109.919 79.326ZM91.7165 95.6545C87.3711 98.1607 83.8471 96.1249 83.8471 91.1126C83.8471 86.1003 87.3571 79.9999 91.7165 77.4868C96.0759 74.9736 99.5789 77.0164 99.5789 82.0287C99.5789 87.041 96.0549 93.1063 91.7165 95.6194V95.6545Z" fill="#EBEBEB"/>
<path d="M80.3786 74.4401L84.9276 77.0656L80.8419 75.6405L76.293 73.008L80.3786 74.4401Z" fill="#F0F0F0"/>
<path d="M76.2915 73.0151L72.2891 79.9532L76.8435 82.5806L80.846 75.6425L76.2915 73.0151Z" fill="#F5F5F5"/>
<path d="M72.2852 79.9438L76.8411 82.5693L80.1195 85.3913L75.5635 82.7729L72.2852 79.9438Z" fill="#E0E0E0"/>
<path d="M74.1588 87.4902L78.7148 90.1157L73.513 93.7731L68.957 91.1477L74.1588 87.4902Z" fill="#F5F5F5"/>
<path d="M68.957 91.1477L73.513 93.7732V100.316L68.957 97.6904V91.1477Z" fill="#E0E0E0"/>
<path d="M94.5442 63.882L89.9882 61.2565L84.3301 64.5278L88.879 67.1533L94.5442 63.882Z" fill="#F5F5F5"/>
<path d="M152.951 251.351L218.939 213.247C219.085 213.195 219.21 213.1 219.3 212.975C219.389 212.849 219.437 212.699 219.437 212.545C219.437 212.39 219.389 212.24 219.3 212.114C219.21 211.989 219.085 211.894 218.939 211.843L212.839 208.333C212.461 208.142 212.044 208.043 211.621 208.043C211.198 208.043 210.781 208.142 210.403 208.333L144.394 246.402C144.248 246.453 144.122 246.548 144.033 246.674C143.944 246.8 143.896 246.95 143.896 247.104C143.896 247.258 143.944 247.408 144.033 247.534C144.122 247.66 144.248 247.755 144.394 247.806L150.515 251.316C150.89 251.512 151.306 251.617 151.729 251.623C152.152 251.629 152.571 251.536 152.951 251.351Z" fill="#E0E0E0"/>
<path d="M217.127 66.1284L157.626 100.484C156.741 101.062 156.005 101.839 155.477 102.754C154.949 103.668 154.644 104.695 154.586 105.749V246.9C154.586 248.838 155.948 249.624 157.626 248.655L217.127 214.3C218.013 213.724 218.75 212.946 219.278 212.031C219.806 211.116 220.111 210.09 220.167 209.035V67.8834C220.167 65.9459 218.812 65.1597 217.127 66.1284Z" fill="#455A64"/>
<path d="M157.627 100.484L217.129 66.1284C218.631 65.2579 219.874 65.7985 220.126 67.3078C219.986 66.3588 219.646 65.4504 219.13 64.6421C218.613 63.8339 217.931 63.1442 217.129 62.6184L214.658 61.2144C213.716 60.7365 212.674 60.4874 211.618 60.4874C210.562 60.4874 209.521 60.7365 208.579 61.2144L149.07 95.5422C148.174 96.1042 147.435 96.8844 146.922 97.8097L155.479 102.724C155.992 101.806 156.731 101.035 157.627 100.484Z" fill="#37474F"/>
<path d="M146.016 241.958C146.073 243.013 146.378 244.039 146.907 244.954C147.435 245.869 148.171 246.646 149.055 247.223L151.533 248.627C152.391 249.056 153.33 249.299 154.288 249.341C155.246 249.382 156.202 249.22 157.093 248.866C155.689 249.414 154.573 248.606 154.573 246.872V105.749C154.608 104.69 154.915 103.658 155.465 102.752L146.907 97.8378C146.365 98.7371 146.059 99.7583 146.016 100.807V241.958Z" fill="#263238"/>
<path d="M159.263 119.291L215.514 86.8234C216.525 86.2478 217.34 86.7181 217.34 87.8764V192.348C217.306 192.981 217.123 193.597 216.806 194.146C216.489 194.695 216.046 195.162 215.514 195.507L159.284 227.975C158.273 228.557 157.459 228.087 157.459 226.922V122.45C157.491 121.819 157.671 121.204 157.984 120.655C158.298 120.106 158.736 119.639 159.263 119.291Z" fill="white"/>
<path d="M187.378 88.6556C187.067 88.8595 186.809 89.1334 186.623 89.4552C186.438 89.7771 186.331 90.138 186.311 90.5089C186.311 91.2109 186.788 91.4706 187.378 91.1267C187.689 90.9241 187.948 90.6505 188.134 90.3283C188.319 90.0062 188.426 89.6446 188.445 89.2734C188.445 88.5924 187.967 88.3187 187.378 88.6556Z" fill="#37474F"/>
<path d="M187.378 216.735C186.151 217.538 185.13 218.619 184.398 219.89C183.666 221.161 183.244 222.586 183.166 224.05C183.166 226.739 185.054 227.834 187.378 226.486C188.605 225.683 189.625 224.602 190.357 223.332C191.089 222.061 191.511 220.636 191.59 219.171C191.604 216.483 189.709 215.388 187.378 216.735Z" fill="#37474F"/>
<path d="M177.276 99.5226C176.659 99.9321 176.147 100.481 175.781 101.125C175.415 101.769 175.206 102.49 175.17 103.229C175.17 104.591 176.125 105.146 177.276 104.465C177.899 104.059 178.418 103.512 178.79 102.868C179.162 102.224 179.377 101.501 179.417 100.758C179.417 99.3962 178.462 98.8416 177.276 99.5226Z" fill="#37474F"/>
<path d="M182.52 99.0593C182.52 99.9719 183.222 100.316 184.043 99.8315L198.083 91.7093C198.518 91.4377 198.882 91.0673 199.147 90.6281C199.412 90.189 199.569 89.6935 199.606 89.1821C199.606 88.2765 198.904 87.9326 198.083 88.4169L184.043 96.5391C183.609 96.81 183.245 97.1794 182.98 97.6172C182.715 98.055 182.558 98.5491 182.52 99.0593Z" fill="#37474F"/>
<path d="M150.761 123.812C151.259 124.136 151.673 124.574 151.971 125.088C152.269 125.603 152.441 126.181 152.473 126.774C152.473 127.869 151.708 128.312 150.761 127.764C150.264 127.438 149.851 127.001 149.555 126.486C149.258 125.971 149.087 125.394 149.055 124.802C149.055 123.713 149.82 123.271 150.761 123.812Z" fill="#37474F"/>
<path d="M150.761 136.995C151.259 137.32 151.673 137.757 151.971 138.272C152.269 138.787 152.441 139.364 152.473 139.958C152.473 141.046 151.708 141.488 150.761 140.948C150.264 140.622 149.851 140.184 149.555 139.67C149.258 139.155 149.087 138.578 149.055 137.985C149.055 136.89 149.82 136.448 150.761 136.995Z" fill="#37474F"/>
<path d="M150.227 124.079C150.725 124.403 151.139 124.84 151.437 125.355C151.735 125.87 151.907 126.447 151.939 127.041C151.939 128.129 151.174 128.571 150.227 128.031C149.728 127.706 149.314 127.269 149.016 126.754C148.718 126.24 148.546 125.662 148.514 125.068C148.521 123.973 149.286 123.552 150.227 124.079Z" fill="#455A64"/>
<path d="M150.227 137.255C150.726 137.58 151.141 138.019 151.439 138.535C151.736 139.051 151.908 139.63 151.939 140.225C151.939 141.313 151.174 141.755 150.227 141.207C149.727 140.884 149.312 140.447 149.014 139.932C148.716 139.417 148.545 138.839 148.514 138.245C148.521 137.157 149.286 136.715 150.227 137.255Z" fill="#455A64"/>
<path d="M228.724 91.1828C228.724 90.0175 227.91 89.5471 226.899 90.1298L220.167 94.0119L170.669 122.597C170.137 122.943 169.695 123.409 169.378 123.958C169.06 124.507 168.877 125.123 168.844 125.756V230.2C168.844 231.365 169.658 231.836 170.669 231.253L220.188 202.66L226.899 198.785C227.431 198.44 227.873 197.974 228.19 197.425C228.508 196.876 228.691 196.26 228.724 195.626V91.1828Z" fill="white"/>
<path d="M229.428 91.1828C229.472 90.8307 229.411 90.4735 229.253 90.1557C229.096 89.8379 228.848 89.5737 228.54 89.3962C228.233 89.2186 227.88 89.1356 227.526 89.1574C227.172 89.1793 226.832 89.3051 226.549 89.519L220.126 93.2326L170.319 122.015C169.678 122.419 169.145 122.974 168.766 123.631C168.386 124.288 168.173 125.027 168.143 125.784V230.2C168.115 230.55 168.182 230.902 168.338 231.217C168.494 231.532 168.732 231.799 169.027 231.99C169.279 232.136 169.565 232.211 169.856 232.208C170.267 232.195 170.669 232.076 171.021 231.864L220.863 203.082L227.272 199.382C227.91 198.973 228.44 198.418 228.819 197.762C229.198 197.106 229.414 196.369 229.449 195.612L229.428 91.1828ZM220.14 201.881L219.564 202.218L170.347 230.635C170.265 230.699 170.169 230.743 170.067 230.765C169.965 230.787 169.859 230.786 169.758 230.761C169.666 230.705 169.575 230.509 169.575 230.186V125.756C169.611 125.247 169.763 124.752 170.018 124.309C170.274 123.867 170.626 123.488 171.049 123.201L220.217 94.77L227.237 90.7054C227.32 90.6419 227.416 90.5976 227.518 90.5757C227.62 90.5539 227.726 90.555 227.827 90.5791C227.918 90.6352 228.01 90.8318 228.01 91.1547V195.626C227.973 196.136 227.822 196.631 227.566 197.074C227.311 197.516 226.958 197.895 226.535 198.182L220.126 201.881H220.14Z" fill="#C80036"/>
<path d="M198.784 115.451C205.102 111.815 210.192 114.749 210.192 122.043C210.192 129.337 205.081 138.189 198.784 141.797C192.488 145.405 187.377 142.499 187.377 135.212C187.377 127.925 192.488 119.094 198.784 115.451Z" fill="#C80036"/>
<path d="M198.785 121.179C200.828 120 202.485 120.955 202.485 123.285C202.416 124.569 202.044 125.819 201.402 126.932C200.759 128.046 199.863 128.992 198.785 129.695C196.743 130.874 195.086 129.919 195.086 127.589C195.155 126.305 195.527 125.055 196.169 123.942C196.812 122.828 197.708 121.882 198.785 121.179Z" fill="#C80036"/>
<path d="M205.995 133.759C205.995 129.884 203.278 128.312 199.916 130.249L197.81 131.464C194.454 133.401 191.73 138.119 191.73 141.994V143.04C193.675 143.678 196.118 143.334 198.75 141.797C201.667 139.998 204.133 137.556 205.96 134.658L205.995 133.759Z" fill="#C80036"/>
<path opacity="0.7" d="M198.785 121.179C200.828 120 202.485 120.955 202.485 123.285C202.416 124.569 202.044 125.819 201.402 126.932C200.759 128.046 199.863 128.992 198.785 129.695C196.743 130.874 195.086 129.919 195.086 127.589C195.155 126.305 195.527 125.055 196.169 123.942C196.812 122.828 197.708 121.882 198.785 121.179Z" fill="white"/>
<path opacity="0.7" d="M205.995 133.759C205.995 129.884 203.278 128.312 199.916 130.249L197.81 131.464C194.454 133.401 191.73 138.119 191.73 141.994V143.04C193.675 143.678 196.118 143.334 198.75 141.797C201.667 139.998 204.133 137.556 205.96 134.658L205.995 133.759Z" fill="white"/>
<path d="M176.714 157.838L191.393 149.365C192.095 148.978 192.608 149.287 192.608 150.067V150.551C192.586 150.973 192.464 151.383 192.253 151.749C192.042 152.115 191.747 152.426 191.393 152.657L176.714 161.13C176.048 161.516 175.5 161.2 175.5 160.428V159.944C175.523 159.522 175.645 159.111 175.856 158.746C176.067 158.38 176.361 158.069 176.714 157.838Z" fill="#C80036"/>
<path opacity="0.1" d="M176.714 157.838L191.393 149.365C192.095 148.978 192.608 149.287 192.608 150.067V150.551C192.586 150.973 192.464 151.383 192.253 151.749C192.042 152.115 191.747 152.426 191.393 152.657L176.714 161.13C176.048 161.516 175.5 161.2 175.5 160.428V159.944C175.523 159.522 175.645 159.111 175.856 158.746C176.067 158.38 176.361 158.069 176.714 157.838Z" fill="black"/>
<path d="M176.111 168.066L220.519 142.429C220.849 142.232 221.123 142.387 221.123 142.78V147.961C221.111 148.171 221.05 148.375 220.945 148.558C220.84 148.741 220.694 148.897 220.519 149.014L176.111 174.651C175.774 174.847 175.5 174.686 175.5 174.3V169.119C175.512 168.908 175.574 168.702 175.68 168.519C175.786 168.337 175.933 168.181 176.111 168.066Z" fill="#C80036"/>
<path opacity="0.2" d="M176.111 168.066L220.519 142.429C220.849 142.232 221.123 142.387 221.123 142.78V147.961C221.111 148.171 221.05 148.375 220.945 148.558C220.84 148.741 220.694 148.897 220.519 149.014L176.111 174.651C175.774 174.847 175.5 174.686 175.5 174.3V169.119C175.512 168.908 175.574 168.702 175.68 168.519C175.786 168.337 175.933 168.181 176.111 168.066Z" fill="white"/>
<path d="M176.714 180.884L191.393 172.411C192.095 172.025 192.608 172.341 192.608 173.113V173.598C192.586 174.02 192.465 174.431 192.254 174.797C192.043 175.163 191.748 175.473 191.393 175.704L176.714 184.177C176.048 184.57 175.5 184.254 175.5 183.475V182.99C175.524 182.569 175.646 182.159 175.857 181.793C176.068 181.427 176.362 181.116 176.714 180.884Z" fill="#C80036"/>
<path opacity="0.1" d="M176.714 180.884L191.393 172.411C192.095 172.025 192.608 172.341 192.608 173.113V173.598C192.586 174.02 192.465 174.431 192.254 174.797C192.043 175.163 191.748 175.473 191.393 175.704L176.714 184.177C176.048 184.57 175.5 184.254 175.5 183.475V182.99C175.524 182.569 175.646 182.159 175.857 181.793C176.068 181.427 176.362 181.116 176.714 180.884Z" fill="black"/>
<path d="M176.111 191.113L220.519 165.475C220.849 165.279 221.123 165.44 221.123 165.826V171.007C221.111 171.217 221.05 171.422 220.945 171.605C220.84 171.787 220.694 171.943 220.519 172.06L176.111 197.697C175.774 197.894 175.5 197.739 175.5 197.346V192.166C175.512 191.954 175.574 191.749 175.68 191.566C175.786 191.383 175.933 191.228 176.111 191.113Z" fill="#C80036"/>
<path opacity="0.2" d="M176.111 191.113L220.519 165.475C220.849 165.279 221.123 165.44 221.123 165.826V171.007C221.111 171.217 221.05 171.422 220.945 171.605C220.84 171.787 220.694 171.943 220.519 172.06L176.111 197.697C175.774 197.894 175.5 197.739 175.5 197.346V192.166C175.512 191.954 175.574 191.749 175.68 191.566C175.786 191.383 175.933 191.228 176.111 191.113Z" fill="white"/>
<path d="M193.822 194.054L211.372 183.938C212.074 183.545 212.593 183.861 212.593 184.64V190.059C212.57 190.482 212.448 190.893 212.235 191.259C212.023 191.625 211.727 191.936 211.372 192.165L193.822 202.288C193.12 202.674 192.607 202.359 192.607 201.586V196.16C192.632 195.739 192.754 195.329 192.965 194.963C193.176 194.597 193.469 194.286 193.822 194.054Z" fill="#C80036"/>
<path opacity="0.1" d="M193.822 194.054L211.372 183.938C212.074 183.545 212.593 183.861 212.593 184.64V190.059C212.57 190.482 212.448 190.893 212.235 191.259C212.023 191.625 211.727 191.936 211.372 192.165L193.822 202.288C193.12 202.674 192.607 202.359 192.607 201.586V196.16C192.632 195.739 192.754 195.329 192.965 194.963C193.176 194.597 193.469 194.286 193.822 194.054Z" fill="black"/>
<path d="M235.381 171.183C235.381 171.183 226.76 159.291 226.255 157.845C225.855 156.778 226.255 155.191 226.381 154.454C226.508 153.717 226.62 152.074 226.746 151.646C226.957 150.846 225.925 151.007 225.342 151.737C224.76 152.467 224.563 153.928 224.261 154.166C223.959 154.405 221.664 151.056 220.463 149.512C219.263 147.968 218.512 147.027 217.775 147.603C217.248 148.017 217.641 148.915 218.512 150.235C219.02 150.946 219.489 151.684 219.916 152.446C220.049 152.734 219.333 152.755 218.947 153.352C218.645 153.815 218.947 154.566 218.526 154.924C218.267 155.122 218.089 155.407 218.027 155.727C217.965 156.047 218.023 156.378 218.189 156.658C218.97 157.885 219.978 158.953 221.158 159.803C222.45 160.695 222.97 161.011 223.735 162.225C224.5 163.44 231.366 175.844 231.829 176.588C232.292 177.332 233.184 178.849 234.539 178.891C235.893 178.933 246.985 169.386 247.554 168.908C249.379 167.385 249.962 167.167 250.27 168.536C250.377 169.023 250.457 169.515 250.509 170.01C250.727 171.751 251.913 177.971 251.913 177.971C251.913 177.971 257.529 180.688 262.141 179.375C266.753 178.062 268.312 176.104 268.312 176.104L266.002 172.341C266.627 170.79 269.512 164.5 270.446 160.098L255.985 157.76C255.69 157.697 255.212 157.578 254.581 157.416C253.787 157.206 251.773 156.511 250.249 157.845C245.279 162.176 235.395 171.183 235.395 171.183" fill="#FFA8A7"/>
<path d="M264.051 244.149L261.461 247.75C262.638 248.299 263.925 248.575 265.224 248.557C267.547 248.641 268.186 247.855 268.27 247.701C268.663 246.858 268.053 245.342 267.884 244.036L264.051 244.149Z" fill="#37474F"/>
<path d="M261.607 246.023C261.607 246.023 258.462 245.819 256.293 245.553C254.124 245.286 252.404 246.339 252.909 247.23C253.415 248.122 254.615 248.866 256.482 249.491C258.076 250.031 259.992 250.417 261.649 250.895C263.306 251.372 264.457 251.997 265.419 251.66C266.493 251.288 266.956 250.86 266.865 250.073C266.631 248.955 266.34 247.849 265.994 246.76L261.607 246.023Z" fill="#37474F"/>
<path d="M268.27 240.533C268.27 240.533 267.877 243.805 267.849 244.507C267.821 245.209 264.655 245.433 264.051 244.149L263.953 240.147L268.27 240.533Z" fill="#F28F8F"/>
<path d="M265.083 242.541L266.213 247.511C266.213 247.511 266.319 248.115 263.735 248.501C261.152 248.887 257.094 247.146 256.4 246.795C255.705 246.444 255.627 245.735 258.169 245.876C260.71 246.016 261.608 246.023 261.608 246.023L260.78 243.826L265.083 242.541Z" fill="#FFA8A7"/>
<path d="M270.405 160.056L272.195 159.558C272.195 159.558 275.936 171.4 276.351 172.545C276.765 173.689 277.235 174.896 276.428 176.307C275.466 177.985 270.405 184.731 270.405 184.731L267.189 181.586L270.84 174.903L267.611 168.375L270.405 160.056Z" fill="#F28F8F"/>
<path d="M252.018 144.675C251.599 143.887 251.386 143.006 251.399 142.113C251.413 141.221 251.652 140.346 252.095 139.572C253.879 136.265 257.852 134.658 262.583 135.268C264.774 135.556 267.357 137.374 268.768 140.091C270.326 143.103 270.474 149.168 270.874 151.464L252.018 144.675Z" fill="#37474F"/>
<path d="M251.891 145.974C251.891 145.974 250.768 148.115 250.964 148.312C251.256 148.482 251.574 148.6 251.905 148.663L251.891 145.974Z" fill="#FFA8A7"/>
<path d="M255.303 139.207C254.081 140 251.975 141.46 251.884 146.269C251.786 151.183 252.488 152.804 253.218 153.373C253.709 153.759 256.595 153.562 257.83 153.275C259.066 152.987 262.625 151.225 263.91 148.55C265.419 145.405 265.11 140.828 262.871 139.424C261.731 138.75 260.438 138.377 259.115 138.339C257.791 138.301 256.48 138.599 255.303 139.207Z" fill="#FFA8A7"/>
<path d="M268.27 176.076C270.432 179.445 272.482 182.394 272.931 186.198C273.858 194.194 270.825 203.334 270.172 209.252C271.4 210.935 272.108 212.942 272.208 215.023C272.208 217.473 268.27 240.533 268.27 240.533C268.27 240.533 265.406 241.404 263.953 240.147L261.25 197.725L262.654 192.559L268.27 176.076Z" fill="#C80036"/>
<path opacity="0.2" d="M268.27 176.076C270.432 179.445 272.482 182.394 272.931 186.198C273.858 194.194 270.825 203.334 270.172 209.252C271.4 210.935 272.108 212.942 272.208 215.023C272.208 217.473 268.27 240.533 268.27 240.533C268.27 240.533 265.406 241.404 263.953 240.147L261.25 197.725L262.654 192.559L268.27 176.076Z" fill="black"/>
<path d="M261.25 197.725L262.654 192.559C265.342 191.851 267.935 190.821 270.376 189.491C270.376 189.491 268.916 192.151 264.718 193.612L262.549 200.245L262.366 215.444L261.25 197.725Z" fill="#C80036"/>
<path opacity="0.3" d="M261.25 197.725L262.654 192.559C265.342 191.851 267.935 190.821 270.376 189.491C270.376 189.491 268.916 192.151 264.718 193.612L262.549 200.245L262.366 215.444L261.25 197.725Z" fill="black"/>
<path d="M268.27 176.076C269.428 177.971 272.194 181.2 271.604 184.31C270.902 188.073 268.866 190.719 262.675 192.559L256.862 213.619C256.862 213.619 259.888 216.427 260.814 219.143C261.741 221.86 265.083 242.555 265.083 242.555C265.083 242.555 264.044 244.247 260.779 243.84C260.779 243.84 249.4 217.866 248.6 216.174C247.628 214.461 247.288 212.461 247.638 210.523C247.996 207.799 251.85 177.985 251.85 177.985L268.27 176.076Z" fill="#C80036"/>
<path opacity="0.2" d="M268.27 176.076C269.428 177.971 272.194 181.2 271.604 184.31C270.902 188.073 268.866 190.719 262.675 192.559L256.862 213.619C256.862 213.619 259.888 216.427 260.814 219.143C261.741 221.86 265.083 242.555 265.083 242.555C265.083 242.555 264.044 244.247 260.779 243.84C260.779 243.84 249.4 217.866 248.6 216.174C247.628 214.461 247.288 212.461 247.638 210.523C247.996 207.799 251.85 177.985 251.85 177.985L268.27 176.076Z" fill="black"/>
<path d="M270.404 160.056L255.942 157.718C255.648 157.655 255.17 157.536 254.538 157.374C254.538 157.374 253.921 166.444 250.207 168.522C250.298 168.957 250.376 169.442 250.446 169.996C250.663 171.737 251.85 177.957 251.85 177.957C251.85 177.957 257.466 180.674 262.078 179.361C266.69 178.048 268.248 176.09 268.248 176.09L265.939 172.327C266.585 170.761 269.491 164.472 270.404 160.056Z" fill="#C80036"/>
<path opacity="0.7" d="M270.404 160.056L255.942 157.718C255.648 157.655 255.17 157.536 254.538 157.374C254.538 157.374 253.921 166.444 250.207 168.522C250.298 168.957 250.376 169.442 250.446 169.996C250.663 171.737 251.85 177.957 251.85 177.957C251.85 177.957 257.466 180.674 262.078 179.361C266.69 178.048 268.248 176.09 268.248 176.09L265.939 172.327C266.585 170.761 269.491 164.472 270.404 160.056Z" fill="white"/>
<path d="M266.592 170.832C264.672 171.985 262.66 172.978 260.576 173.801C262.467 173.763 264.319 173.252 265.961 172.313L266.592 170.832Z" fill="#C80036"/>
<path d="M254.947 139.445C254.947 139.445 254.245 144.008 255.901 146.69C255.901 146.69 256.519 144.872 258.056 145.216C259.594 145.56 259.678 147.588 258.597 148.726C258.322 149.045 257.963 149.28 257.561 149.404C257.158 149.528 256.729 149.536 256.322 149.428C256.322 149.428 256.077 152.727 255.943 155.493C255.81 158.259 255.08 164.289 258.19 166.725C261.3 169.161 269.106 170.017 272.763 164.907C274.799 162.064 272.096 157.037 270.84 151.4C269.682 146.22 269.029 138.54 263.532 137.304C258.035 136.069 254.947 139.445 254.947 139.445Z" fill="#37474F"/>
<path d="M275.114 77.1007L273.956 77.8027C274.053 77.3906 274.107 76.9694 274.117 76.5461C274.117 74.1944 272.467 73.2467 270.432 74.4401C269.812 74.8138 269.259 75.2883 268.796 75.8441C268.796 72.6851 266.578 71.4004 263.84 72.9799C262.397 73.9208 261.196 75.1885 260.335 76.6802C259.474 78.1719 258.977 79.8455 258.884 81.5654C258.884 81.7269 258.884 81.8813 258.884 82.0357C258.178 81.947 257.464 82.1112 256.869 82.4991C255.796 83.1981 254.903 84.1402 254.263 85.2489C253.623 86.3576 253.253 87.6018 253.183 88.8802C253.183 89.1774 253.214 89.4739 253.275 89.7648L252.657 90.1228C250.979 91.0915 249.617 92.9799 249.617 94.3348C249.617 95.6896 250.979 96.0126 252.657 95.0368L275.121 82.0849C276.799 81.1161 278.161 79.2277 278.161 77.8729C278.161 76.518 276.792 76.1249 275.114 77.1007Z" fill="#EBEBEB"/>
</svg>
