<svg width="577" height="577" viewBox="0 0 577 577" fill="none" xmlns="http://www.w3.org/2000/svg">
<path d="M104.691 432.046C201.385 482.557 358.144 482.557 454.826 432.046C551.508 381.536 551.52 299.636 454.826 249.126C358.132 198.615 201.373 198.615 104.691 249.126C8.00879 299.636 7.99724 381.536 104.691 432.046Z" fill="#FAFAFA"/>
<path d="M336.772 363.66C314.026 376.781 314.026 398.072 336.772 411.205C359.517 424.337 396.376 424.337 419.121 411.205C441.867 398.072 441.855 376.781 419.121 363.66C396.387 350.539 359.506 350.527 336.772 363.66Z" fill="#EBEBEB"/>
<path d="M97.2938 175.443L158.225 156.494L111.349 188.968L97.2938 175.443Z" fill="#C80036"/>
<path d="M158.225 156.494L92.597 167.319L78.5413 153.782L158.225 156.494Z" fill="#C80036"/>
<path d="M92.597 167.319V183.555L97.2938 175.443L158.225 156.494L92.597 167.319Z" fill="#455A64"/>
<path d="M92.597 183.555L101.979 179.955L97.2938 175.442L92.597 183.555Z" fill="#C80036"/>
<path d="M97.2938 175.442L101.979 179.955L100.479 180.52L97.2938 175.442Z" fill="#455A64"/>
<path d="M82.4995 181.109C82.3054 181.113 82.1158 181.051 81.9611 180.934C81.8063 180.817 81.6954 180.651 81.6461 180.463C81.5969 180.276 81.6121 180.077 81.6895 179.899C81.7668 179.721 81.9017 179.574 82.0725 179.482C83.1111 178.905 84.1612 178.328 85.1998 177.878C85.3028 177.822 85.416 177.788 85.5327 177.777C85.6493 177.766 85.7668 177.779 85.8782 177.816C85.9896 177.852 86.0925 177.91 86.1808 177.987C86.269 178.064 86.3407 178.158 86.3915 178.263C86.4423 178.369 86.4711 178.484 86.4763 178.601C86.4815 178.718 86.4629 178.834 86.4216 178.944C86.3803 179.054 86.3172 179.154 86.2362 179.238C86.1551 179.323 86.0577 179.39 85.9499 179.436C84.946 179.92 83.9189 180.44 82.9149 181.005C82.7865 181.072 82.6442 181.107 82.4995 181.109Z" fill="#E0E0E0"/>
<path d="M71.8481 274.306C71.6712 274.308 71.498 274.255 71.3518 274.156C69.475 272.833 67.697 271.375 66.0319 269.793C65.9264 269.725 65.837 269.634 65.7701 269.528C65.7032 269.421 65.6604 269.301 65.6445 269.177C65.6287 269.052 65.6402 268.925 65.6783 268.805C65.7165 268.685 65.7803 268.575 65.8653 268.482C65.9504 268.39 66.0546 268.317 66.1708 268.268C66.287 268.22 66.4123 268.198 66.538 268.203C66.6637 268.208 66.7868 268.24 66.8987 268.298C67.0106 268.355 67.1086 268.436 67.1859 268.536C68.792 270.06 70.5084 271.464 72.3212 272.736C72.4706 272.843 72.5821 272.995 72.6396 273.169C72.6972 273.344 72.6977 273.532 72.6411 273.707C72.5846 273.881 72.4739 274.034 72.3251 274.141C72.1763 274.249 71.9971 274.307 71.8134 274.306H71.8481ZM62.8007 265.905C62.6729 265.906 62.5465 265.879 62.4306 265.825C62.3148 265.771 62.2125 265.692 62.1314 265.593C60.6773 263.818 59.3543 261.94 58.1732 259.973C58.0538 259.776 58.0177 259.539 58.0729 259.315C58.1281 259.091 58.27 258.898 58.4674 258.779C58.6648 258.659 58.9016 258.623 59.1256 258.678C59.3496 258.734 59.5425 258.875 59.6618 259.073C60.7996 260.97 62.0723 262.782 63.47 264.497C63.6142 264.673 63.6829 264.899 63.6613 265.126C63.6397 265.353 63.5295 265.562 63.3546 265.708C63.2 265.839 63.0031 265.909 62.8007 265.905ZM56.3037 255.403C56.136 255.405 55.9715 255.358 55.8302 255.267C55.6888 255.177 55.5767 255.048 55.5074 254.895C54.5644 252.806 53.755 250.659 53.084 248.468C53.0348 248.254 53.0681 248.03 53.1774 247.841C53.2866 247.651 53.4636 247.51 53.6728 247.446C53.8819 247.381 54.1077 247.399 54.3047 247.494C54.5016 247.589 54.6551 247.756 54.7342 247.96C55.3722 250.08 56.143 252.157 57.0422 254.18C57.0906 254.284 57.1179 254.396 57.1226 254.51C57.1273 254.625 57.1092 254.739 57.0695 254.846C57.0298 254.953 56.9692 255.052 56.8913 255.135C56.8133 255.219 56.7195 255.287 56.6153 255.334C56.517 255.377 56.4111 255.401 56.3037 255.403ZM52.5532 243.621C52.353 243.619 52.1597 243.548 52.0061 243.419C51.8525 243.291 51.7481 243.113 51.7108 242.917C51.2702 240.675 50.9581 238.409 50.776 236.131C50.7577 235.902 50.8312 235.674 50.9806 235.499C51.1299 235.324 51.3427 235.215 51.5723 235.197C51.8018 235.178 52.0293 235.252 52.2046 235.401C52.3799 235.55 52.4887 235.763 52.507 235.993C52.6768 238.205 52.9773 240.405 53.4071 242.582C53.4306 242.694 53.4315 242.809 53.4098 242.921C53.3881 243.032 53.3442 243.139 53.2807 243.233C53.2173 243.328 53.1356 243.409 53.0403 243.472C52.9451 243.534 52.8383 243.577 52.7263 243.598L52.5532 243.621ZM51.4569 231.296C51.3428 231.296 51.2298 231.273 51.1247 231.229C51.0195 231.185 50.9243 231.12 50.8447 231.038C50.7651 230.956 50.7027 230.859 50.6612 230.753C50.6196 230.647 50.5998 230.533 50.6029 230.419C50.6299 228.135 50.784 225.854 51.0645 223.587C51.0658 223.466 51.0928 223.346 51.1437 223.235C51.1945 223.125 51.2681 223.026 51.3596 222.946C51.4511 222.866 51.5586 222.806 51.6748 222.77C51.7911 222.734 51.9137 222.723 52.0345 222.738C52.1553 222.752 52.2716 222.792 52.3759 222.855C52.4802 222.918 52.5701 223.002 52.6397 223.101C52.7094 223.201 52.7572 223.315 52.78 223.434C52.8029 223.554 52.8003 223.677 52.7724 223.795C52.5056 226.001 52.3592 228.22 52.3339 230.442C52.3324 230.556 52.3085 230.668 52.2636 230.772C52.2187 230.877 52.1537 230.971 52.0723 231.051C51.9908 231.13 51.8946 231.193 51.789 231.235C51.6834 231.277 51.5705 231.298 51.4569 231.296ZM52.8648 219.006C52.7998 219.017 52.7335 219.017 52.6686 219.006C52.4456 218.956 52.2513 218.82 52.128 218.628C52.0048 218.436 51.9627 218.202 52.0108 217.979C52.5164 215.744 53.164 213.543 53.9495 211.39C53.9878 211.277 54.0487 211.174 54.1285 211.086C54.2084 210.998 54.3055 210.928 54.4137 210.879C54.5219 210.83 54.639 210.805 54.7577 210.803C54.8763 210.801 54.9941 210.824 55.1035 210.87C55.2149 210.91 55.317 210.972 55.4039 211.052C55.4908 211.132 55.5606 211.229 55.6091 211.337C55.6576 211.444 55.6838 211.561 55.6862 211.679C55.6885 211.797 55.667 211.915 55.6228 212.024C54.8656 214.106 54.2412 216.234 53.7533 218.394C53.6963 218.582 53.5774 218.744 53.416 218.856C53.2546 218.967 53.0602 219.02 52.8648 219.006ZM56.973 207.351C56.8399 207.356 56.7081 207.324 56.5922 207.258C56.4889 207.21 56.3963 207.142 56.3199 207.057C56.2434 206.973 56.1846 206.874 56.147 206.766C56.1094 206.659 56.0936 206.545 56.1007 206.431C56.1078 206.317 56.1376 206.206 56.1883 206.104C57.1955 204.048 58.3286 202.055 59.581 200.138C59.7071 199.959 59.8963 199.835 60.1104 199.79C60.3245 199.745 60.5477 199.783 60.735 199.896C60.918 200.018 61.0465 200.207 61.0938 200.422C61.1411 200.637 61.1035 200.862 60.9889 201.05C59.7716 202.901 58.673 204.829 57.7 206.82C57.6403 206.967 57.5406 207.095 57.4121 207.189C57.2837 207.283 57.1316 207.339 56.973 207.351ZM63.6085 196.965C63.4155 196.967 63.2278 196.901 63.0777 196.78C62.9877 196.709 62.9127 196.621 62.8569 196.521C62.8012 196.421 62.7659 196.311 62.753 196.197C62.7401 196.083 62.7499 195.968 62.7819 195.858C62.8139 195.748 62.8673 195.646 62.9392 195.557C64.3813 193.775 65.9224 192.076 67.5552 190.468C67.7175 190.305 67.9374 190.214 68.1668 190.214C68.3962 190.214 68.6161 190.305 68.7784 190.468C68.9405 190.63 69.0315 190.85 69.0315 191.079C69.0315 191.309 68.9405 191.528 68.7784 191.691C67.2057 193.26 65.7188 194.912 64.324 196.641C64.2346 196.74 64.1233 196.817 63.9991 196.865C63.8749 196.913 63.7411 196.931 63.6085 196.918V196.965ZM72.2866 188.102C72.1607 188.102 72.0365 188.074 71.9228 188.02C71.8091 187.966 71.7087 187.887 71.6288 187.79C71.4826 187.613 71.4116 187.386 71.431 187.157C71.4504 186.929 71.5587 186.717 71.7327 186.567C73.4894 185.106 75.3189 183.735 77.2142 182.459C77.4002 182.345 77.6224 182.305 77.8364 182.348C78.0504 182.391 78.2403 182.513 78.3682 182.69C78.497 182.881 78.545 183.116 78.5018 183.343C78.4585 183.57 78.3276 183.77 78.1374 183.901C76.2883 185.143 74.5049 186.479 72.7943 187.906C72.6494 188.022 72.472 188.09 72.2866 188.102Z" fill="#E0E0E0"/>
<path d="M79.7876 278.818C79.6637 278.819 79.5413 278.791 79.4298 278.737C78.3566 278.252 77.2949 277.733 76.2794 277.179C76.1801 277.127 76.0921 277.056 76.0204 276.969C75.9487 276.883 75.8946 276.783 75.8614 276.676C75.8282 276.569 75.8164 276.456 75.8268 276.345C75.8371 276.233 75.8694 276.124 75.9217 276.025C76.0294 275.827 76.2104 275.678 76.4259 275.612C76.6415 275.545 76.8747 275.565 77.0757 275.667C78.0681 276.198 79.0952 276.706 80.1338 277.179C80.3119 277.262 80.4565 277.403 80.5439 277.579C80.6313 277.755 80.6562 277.955 80.6146 278.147C80.573 278.339 80.4673 278.511 80.3149 278.635C80.1625 278.759 79.9725 278.828 79.776 278.829L79.7876 278.818Z" fill="#E0E0E0"/>
<path d="M474.513 236.939L523.327 205.689L544.826 212.59L474.513 236.939Z" fill="#C80036"/>
<path d="M474.513 236.939L516.704 201.765L507.321 190.941L474.513 236.939Z" fill="#C80036"/>
<path d="M516.704 201.765V209.924L474.513 236.939L516.704 201.765Z" fill="#455A64"/>
<path d="M526.224 198.361C526.015 198.362 525.813 198.284 525.659 198.142C525.488 197.989 525.384 197.775 525.369 197.547C525.354 197.318 525.429 197.093 525.578 196.919C527.081 195.242 528.414 193.422 529.559 191.483C529.675 191.284 529.866 191.14 530.089 191.081C530.312 191.023 530.549 191.055 530.748 191.172C530.947 191.288 531.091 191.479 531.15 191.701C531.208 191.924 531.176 192.161 531.059 192.36C529.851 194.392 528.452 196.305 526.882 198.073C526.799 198.165 526.698 198.238 526.584 198.288C526.471 198.338 526.348 198.363 526.224 198.361ZM532.825 187.606C532.722 187.622 532.617 187.622 532.513 187.606C532.404 187.564 532.304 187.501 532.22 187.419C532.136 187.338 532.069 187.24 532.024 187.132C531.979 187.025 531.956 186.909 531.957 186.792C531.957 186.675 531.982 186.559 532.029 186.452C532.844 184.35 533.455 182.174 533.852 179.955C533.893 179.728 534.023 179.527 534.212 179.397C534.402 179.266 534.635 179.215 534.862 179.257C535.088 179.298 535.289 179.428 535.42 179.617C535.551 179.806 535.601 180.04 535.56 180.266C535.135 182.592 534.489 184.872 533.633 187.075C533.567 187.235 533.455 187.371 533.311 187.466C533.167 187.56 532.997 187.609 532.825 187.606ZM535.294 175.223C535.181 175.222 535.07 175.198 534.966 175.153C534.862 175.108 534.768 175.043 534.69 174.961C534.611 174.879 534.55 174.783 534.509 174.678C534.468 174.572 534.449 174.459 534.452 174.346C534.452 174.046 534.452 173.746 534.452 173.446C534.447 171.487 534.293 169.531 533.99 167.595C533.957 167.368 534.015 167.136 534.151 166.95C534.287 166.765 534.49 166.64 534.717 166.603C534.945 166.573 535.175 166.631 535.36 166.767C535.545 166.902 535.67 167.104 535.71 167.33C536.022 169.354 536.18 171.398 536.183 173.446C536.183 173.758 536.183 174.069 536.183 174.381C536.174 174.61 536.076 174.825 535.91 174.983C535.744 175.14 535.523 175.227 535.294 175.223ZM533.552 162.714C533.366 162.713 533.186 162.652 533.038 162.54C532.89 162.427 532.783 162.27 532.733 162.091C532.071 159.926 531.241 157.815 530.251 155.778C530.201 155.676 530.171 155.565 530.164 155.452C530.157 155.338 530.173 155.224 530.21 155.116C530.248 155.009 530.307 154.91 530.383 154.825C530.46 154.741 530.552 154.673 530.655 154.624C530.862 154.525 531.1 154.512 531.316 154.588C531.532 154.664 531.71 154.822 531.809 155.028C532.842 157.145 533.702 159.341 534.383 161.595C534.416 161.703 534.428 161.817 534.417 161.93C534.406 162.043 534.373 162.152 534.319 162.252C534.266 162.352 534.193 162.44 534.104 162.512C534.016 162.583 533.915 162.636 533.806 162.668C533.725 162.7 533.639 162.716 533.552 162.714ZM528.197 151.255C528.052 151.256 527.908 151.22 527.781 151.149C527.653 151.078 527.546 150.975 527.47 150.851C526.233 148.952 524.872 147.136 523.397 145.416C523.322 145.329 523.265 145.229 523.23 145.121C523.194 145.013 523.18 144.898 523.189 144.785C523.197 144.671 523.228 144.56 523.28 144.459C523.331 144.357 523.402 144.266 523.489 144.192C523.574 144.118 523.674 144.062 523.781 144.026C523.888 143.991 524.001 143.977 524.114 143.985C524.227 143.994 524.337 144.025 524.437 144.076C524.538 144.128 524.628 144.198 524.701 144.285C526.233 146.066 527.644 147.947 528.924 149.916C529.031 150.106 529.064 150.329 529.017 150.541C528.97 150.754 528.847 150.942 528.67 151.07C528.532 151.172 528.368 151.232 528.197 151.243V151.255ZM520.119 141.55C519.899 141.549 519.688 141.462 519.531 141.307C517.869 139.752 516.124 138.288 514.303 136.922C514.212 136.854 514.136 136.768 514.078 136.671C514.02 136.573 513.982 136.465 513.966 136.352C513.95 136.24 513.956 136.125 513.984 136.015C514.012 135.905 514.062 135.801 514.13 135.71C514.198 135.619 514.284 135.543 514.382 135.485C514.479 135.427 514.588 135.389 514.7 135.373C514.813 135.357 514.927 135.363 515.037 135.391C515.147 135.419 515.251 135.469 515.342 135.537C517.218 136.939 519.013 138.446 520.719 140.049C520.848 140.168 520.937 140.323 520.975 140.494C521.014 140.665 521 140.843 520.935 141.006C520.87 141.168 520.757 141.307 520.611 141.404C520.466 141.501 520.294 141.552 520.119 141.55ZM509.999 133.864C509.835 133.862 509.675 133.814 509.537 133.726C508.752 133.241 507.933 132.756 507.102 132.283C505.948 131.637 504.794 130.991 503.571 130.379C503.459 130.334 503.358 130.267 503.274 130.181C503.19 130.094 503.125 129.992 503.083 129.879C503.04 129.767 503.022 129.646 503.029 129.526C503.036 129.406 503.068 129.289 503.122 129.182C503.177 129.074 503.254 128.98 503.347 128.904C503.44 128.828 503.549 128.773 503.665 128.741C503.781 128.709 503.902 128.702 504.021 128.72C504.14 128.737 504.254 128.78 504.356 128.844C505.567 129.467 506.779 130.113 507.956 130.783C508.81 131.256 509.641 131.752 510.449 132.26C510.635 132.379 510.769 132.565 510.823 132.78C510.876 132.994 510.846 133.221 510.737 133.414C510.663 133.546 510.556 133.656 510.426 133.735C510.297 133.814 510.15 133.858 509.999 133.864ZM406.543 133.275C406.39 133.274 406.241 133.233 406.109 133.156C405.978 133.079 405.869 132.969 405.793 132.837C405.683 132.642 405.655 132.412 405.713 132.196C405.771 131.981 405.912 131.796 406.104 131.683C408.112 130.529 410.178 129.375 412.267 128.406C412.472 128.306 412.708 128.291 412.924 128.364C413.14 128.438 413.319 128.594 413.421 128.798C413.517 129.005 413.528 129.241 413.453 129.457C413.377 129.672 413.221 129.85 413.017 129.952C410.962 130.956 408.931 132.029 406.958 133.172C406.829 133.234 406.686 133.262 406.543 133.252V133.275ZM498.747 128.002C498.627 128.002 498.508 127.975 498.401 127.921C496.324 127.009 494.177 126.155 492.031 125.394C491.814 125.316 491.636 125.154 491.538 124.946C491.439 124.737 491.428 124.497 491.506 124.28C491.584 124.063 491.745 123.885 491.954 123.787C492.163 123.688 492.402 123.677 492.62 123.755C494.801 124.54 496.982 125.405 499.105 126.34C499.29 126.419 499.442 126.559 499.535 126.738C499.627 126.917 499.655 127.122 499.612 127.319C499.57 127.515 499.461 127.691 499.303 127.816C499.145 127.94 498.948 128.006 498.747 128.002ZM417.91 127.644C417.739 127.645 417.572 127.595 417.43 127.501C417.288 127.406 417.178 127.271 417.113 127.113C417.066 127.007 417.04 126.893 417.038 126.777C417.036 126.661 417.057 126.546 417.1 126.438C417.143 126.331 417.207 126.233 417.289 126.151C417.37 126.068 417.468 126.003 417.575 125.959C419.71 125.059 421.902 124.228 424.095 123.478C424.205 123.432 424.324 123.41 424.443 123.412C424.562 123.415 424.68 123.441 424.788 123.491C424.896 123.541 424.993 123.613 425.073 123.702C425.152 123.791 425.212 123.895 425.249 124.009C425.291 124.12 425.31 124.239 425.306 124.357C425.301 124.476 425.272 124.593 425.222 124.701C425.171 124.808 425.1 124.905 425.011 124.984C424.923 125.063 424.819 125.124 424.707 125.163C422.549 125.901 420.379 126.721 418.29 127.598C418.166 127.632 418.037 127.64 417.91 127.621V127.644ZM486.838 123.651C486.758 123.662 486.676 123.662 486.596 123.651C484.415 123.016 482.176 122.497 479.949 121.955C479.837 121.93 479.732 121.885 479.638 121.819C479.544 121.754 479.465 121.672 479.403 121.576C479.341 121.48 479.299 121.373 479.279 121.261C479.259 121.148 479.261 121.033 479.285 120.922C479.309 120.811 479.355 120.705 479.42 120.611C479.485 120.518 479.568 120.438 479.664 120.376C479.76 120.315 479.867 120.272 479.979 120.252C480.091 120.232 480.207 120.234 480.318 120.258C482.626 120.755 484.865 121.343 487.08 121.989C487.28 122.048 487.453 122.176 487.565 122.351C487.678 122.526 487.724 122.736 487.695 122.943C487.665 123.149 487.562 123.338 487.405 123.474C487.248 123.611 487.046 123.686 486.838 123.686V123.651ZM429.888 123.478C429.699 123.477 429.516 123.415 429.366 123.3C429.216 123.186 429.108 123.025 429.057 122.843C429.026 122.735 429.016 122.621 429.028 122.509C429.041 122.397 429.075 122.288 429.13 122.19C429.185 122.091 429.258 122.004 429.347 121.934C429.436 121.864 429.537 121.812 429.646 121.782C431.873 121.158 434.158 120.628 436.431 120.12C436.546 120.083 436.668 120.071 436.788 120.084C436.909 120.097 437.025 120.135 437.129 120.196C437.234 120.257 437.324 120.339 437.395 120.437C437.466 120.535 437.516 120.646 437.541 120.765C437.566 120.883 437.566 121.005 437.541 121.123C437.516 121.242 437.467 121.354 437.396 121.452C437.325 121.549 437.234 121.632 437.13 121.692C437.025 121.753 436.909 121.791 436.789 121.805C434.55 122.278 432.311 122.832 430.119 123.443L429.888 123.478ZM474.467 120.87H474.294C472.044 120.512 469.747 120.224 467.485 120.016C467.366 120.015 467.249 119.989 467.14 119.94C467.031 119.891 466.934 119.82 466.854 119.732C466.774 119.644 466.713 119.54 466.675 119.427C466.637 119.314 466.622 119.194 466.633 119.075C466.643 118.957 466.678 118.841 466.735 118.737C466.792 118.632 466.87 118.54 466.964 118.467C467.058 118.394 467.166 118.341 467.282 118.312C467.397 118.282 467.518 118.277 467.635 118.297C469.943 118.504 472.251 118.793 474.559 119.162C474.784 119.202 474.985 119.328 475.119 119.513C475.252 119.698 475.308 119.928 475.275 120.154C475.234 120.341 475.133 120.509 474.987 120.632C474.841 120.756 474.658 120.827 474.467 120.835V120.87ZM442.282 120.789C442.077 120.789 441.878 120.716 441.721 120.583C441.565 120.449 441.461 120.265 441.428 120.062C441.395 119.834 441.452 119.603 441.588 119.417C441.724 119.231 441.928 119.107 442.155 119.07C444.463 118.724 446.771 118.435 449.079 118.239C449.193 118.229 449.307 118.242 449.416 118.276C449.525 118.31 449.626 118.366 449.713 118.439C449.8 118.513 449.872 118.603 449.925 118.704C449.978 118.805 450.01 118.916 450.02 119.029C450.029 119.143 450.017 119.257 449.982 119.366C449.948 119.475 449.893 119.576 449.819 119.663C449.746 119.751 449.656 119.823 449.555 119.875C449.453 119.928 449.343 119.96 449.229 119.97C446.921 120.166 444.671 120.431 442.421 120.789H442.282ZM461.842 119.635C459.534 119.554 457.226 119.543 454.976 119.635C454.863 119.641 454.749 119.625 454.642 119.586C454.535 119.547 454.437 119.487 454.354 119.409C454.271 119.332 454.205 119.238 454.159 119.134C454.113 119.03 454.089 118.918 454.087 118.804C454.083 118.69 454.101 118.576 454.141 118.47C454.181 118.363 454.242 118.265 454.321 118.182C454.4 118.099 454.494 118.033 454.598 117.987C454.703 117.941 454.816 117.917 454.93 117.916C457.238 117.835 459.546 117.846 461.854 117.916C461.968 117.919 462.08 117.944 462.183 117.99C462.287 118.037 462.381 118.103 462.459 118.185C462.537 118.268 462.599 118.365 462.639 118.471C462.68 118.577 462.699 118.691 462.696 118.804C462.679 119.021 462.582 119.223 462.425 119.372C462.267 119.522 462.059 119.607 461.842 119.612V119.635Z" fill="#E0E0E0"/>
<path d="M457.492 253.811V251.964H457.042C456.357 250.714 455.317 249.694 454.053 249.033C451.475 247.725 448.624 247.042 445.732 247.042C442.841 247.042 439.99 247.725 437.412 249.033C436.148 249.694 435.108 250.714 434.423 251.964H433.973V253.753C433.973 255.519 435.127 257.296 437.435 258.646C440.015 259.948 442.865 260.627 445.756 260.627C448.646 260.627 451.496 259.948 454.076 258.646C456.361 257.342 457.503 255.565 457.492 253.811Z" fill="#37474F"/>
<path d="M445.732 258.762C452.227 258.762 457.492 255.718 457.492 251.965C457.492 248.211 452.227 245.167 445.732 245.167C439.238 245.167 433.973 248.211 433.973 251.965C433.973 255.718 439.238 258.762 445.732 258.762Z" fill="#455A64"/>
<path d="M442.709 195.372V251.168C442.734 251.433 442.828 251.686 442.982 251.903C443.136 252.12 443.344 252.292 443.586 252.403C444.25 252.738 444.983 252.913 445.727 252.913C446.47 252.913 447.204 252.738 447.867 252.403C448.112 252.295 448.324 252.123 448.48 251.906C448.636 251.689 448.731 251.434 448.756 251.168V195.372H442.709Z" fill="#37474F"/>
<path d="M459.292 153.609C456.349 151.913 453.672 151.774 451.664 152.893L414.286 174.496L433.039 212.105L470.544 190.41V173.954C470.544 166.303 465.501 157.198 459.292 153.609Z" fill="#455A64"/>
<path d="M433.039 195.638V212.105L410.547 199.111V182.655C410.547 175.004 415.578 171.715 421.787 175.304C425.768 177.612 429.265 182.159 431.261 187.144C432.378 189.84 432.981 192.721 433.039 195.638Z" fill="#37474F"/>
<path d="M433.039 195.637V212.105L410.547 199.111L431.261 187.144C432.378 189.84 432.981 192.72 433.039 195.637Z" fill="#263238"/>
<path d="M429.288 201.281C427.222 195.303 420.506 187.548 414.286 183.971C408.066 180.394 404.719 182.321 406.785 188.298L410.535 199.123L433.038 212.117C433.038 212.117 431.365 207.259 429.288 201.281Z" fill="#455A64"/>
<path d="M444.763 196.261L443.505 195.534C443.235 195.41 442.937 195.359 442.641 195.388C442.345 195.416 442.062 195.522 441.82 195.695C441.125 196.15 440.547 196.762 440.132 197.482C439.717 198.201 439.477 199.009 439.432 199.838C439.4 200.135 439.449 200.435 439.573 200.707C439.697 200.979 439.891 201.213 440.136 201.384L441.29 202.054L441.509 201.696C441.748 201.644 441.978 201.555 442.19 201.431C442.885 200.978 443.463 200.368 443.878 199.651C444.293 198.933 444.533 198.127 444.579 197.299C444.577 197.093 444.55 196.887 444.498 196.688L444.763 196.261Z" fill="#263238"/>
<path d="M443.021 196.399C442.326 196.852 441.747 197.461 441.332 198.179C440.917 198.897 440.677 199.703 440.632 200.531C440.632 202.054 441.705 202.665 443.021 201.904C443.716 201.452 444.295 200.842 444.71 200.124C445.125 199.407 445.365 198.601 445.409 197.772C445.444 196.249 444.29 195.638 443.021 196.399Z" fill="#37474F"/>
<path d="M443.021 199.804C442.93 199.804 442.84 199.786 442.756 199.751C442.672 199.716 442.595 199.665 442.531 199.601C442.467 199.537 442.416 199.46 442.381 199.376C442.346 199.292 442.328 199.202 442.328 199.111V175.304C442.328 175.121 442.401 174.944 442.531 174.815C442.661 174.685 442.837 174.612 443.021 174.612C443.204 174.612 443.38 174.685 443.51 174.815C443.64 174.944 443.713 175.121 443.713 175.304V199.111C443.713 199.295 443.64 199.471 443.51 199.601C443.38 199.731 443.204 199.804 443.021 199.804Z" fill="#263238"/>
<path d="M443.644 175.927V182.136L450.302 175.304L443.644 175.927Z" fill="#37474F"/>
<path d="M93.5663 381.87C92.9893 382.182 82.3956 385.182 78.472 380.001C74.5484 374.819 81.0685 366.741 77.3872 363.764C73.7059 360.787 63.3892 363.764 60.9081 357.509C58.427 351.255 65.778 348.554 61.6467 342.242C59.0386 338.261 51.7453 336.068 52.08 332.364C52.5647 326.951 62.5352 325.44 71.2364 331.29C79.9376 337.141 83.9996 332.34 86.7577 331.948C89.5158 331.556 95.4704 332.421 95.2858 342.115C95.1011 351.808 93.5663 381.87 93.5663 381.87Z" fill="#C80036"/>
<path d="M94.2703 368.126C94.1326 368.125 93.9994 368.077 93.894 367.988C93.7886 367.899 93.7175 367.777 93.6933 367.641C90.6582 349.177 69.2746 334.256 58.15 331.048C58.0765 331.028 58.0076 330.994 57.9477 330.946C57.8878 330.899 57.838 330.841 57.8013 330.774C57.7647 330.707 57.7419 330.633 57.7344 330.558C57.7269 330.482 57.7348 330.405 57.7577 330.332C57.8005 330.186 57.9 330.062 58.0342 329.988C58.1683 329.914 58.3263 329.897 58.4732 329.94C69.8401 333.229 91.7199 348.566 94.8357 367.457C94.8591 367.606 94.8226 367.759 94.734 367.883C94.6455 368.006 94.512 368.089 94.3626 368.114L94.2703 368.126Z" fill="white"/>
<path d="M69.0438 352.674C68.9169 352.675 68.7931 352.635 68.6916 352.558C68.5901 352.482 68.5166 352.375 68.4824 352.252C68.4483 352.13 68.4553 352 68.5026 351.882C68.5498 351.765 68.6346 351.666 68.7437 351.601C69.0899 351.393 77.3295 346.581 85.4306 348.831C85.5836 348.871 85.7146 348.97 85.7946 349.106C85.8747 349.243 85.8973 349.405 85.8575 349.558C85.8178 349.711 85.7188 349.842 85.5825 349.922C85.4461 350.002 85.2836 350.025 85.1305 349.985C77.491 347.862 69.413 352.582 69.3323 352.628C69.2425 352.671 69.1424 352.687 69.0438 352.674Z" fill="white"/>
<path d="M395.245 284.369C399.792 284.992 407.535 282.361 408.089 274.79C408.643 267.22 411.77 265.166 417.506 263.931C423.241 262.696 424.926 260.7 425.584 257.1C426.241 253.499 421.879 249.195 423.103 243.771C424.326 238.347 428.411 238.359 432.427 232.231C435 228.284 429.726 222.26 420.945 224.845C412.163 227.43 412.867 233.096 404.085 233.823C395.303 234.55 389.798 239.882 389.625 246.517C389.452 253.153 395.245 284.369 395.245 284.369Z" fill="#C80036"/>
<path opacity="0.2" d="M395.245 284.369C399.792 284.992 407.535 282.361 408.089 274.79C408.643 267.22 411.77 265.166 417.506 263.931C423.241 262.696 424.926 260.7 425.584 257.1C426.241 253.499 421.879 249.195 423.103 243.771C424.326 238.347 428.411 238.359 432.427 232.231C435 228.284 429.726 222.26 420.945 224.845C412.163 227.43 412.867 233.096 404.085 233.823C395.303 234.55 389.798 239.882 389.625 246.517C389.452 253.153 395.245 284.369 395.245 284.369Z" fill="black"/>
<path d="M393.583 269.851H393.514C393.44 269.836 393.369 269.807 393.306 269.764C393.244 269.722 393.19 269.667 393.148 269.604C393.106 269.541 393.077 269.47 393.063 269.396C393.048 269.321 393.049 269.245 393.064 269.17C397.311 248.179 420.471 228.965 426.114 227.003C426.268 226.953 426.434 226.965 426.578 227.038C426.722 227.11 426.831 227.237 426.882 227.39C426.932 227.543 426.92 227.71 426.848 227.854C426.775 227.998 426.648 228.107 426.495 228.157C420.979 230.073 398.349 248.929 394.183 269.459C394.14 269.581 394.058 269.686 393.95 269.757C393.841 269.828 393.712 269.861 393.583 269.851Z" fill="white"/>
<path d="M88.7195 262.408C88.7759 261.368 89.077 260.355 89.5984 259.453C90.1197 258.55 90.8466 257.784 91.72 257.215L245.098 168.657C246.027 168.19 247.053 167.947 248.093 167.947C249.133 167.947 250.158 168.19 251.087 168.657L254.469 170.619C255.344 171.186 256.072 171.952 256.594 172.854C257.115 173.757 257.415 174.771 257.469 175.812V293.382C257.41 294.422 257.108 295.433 256.587 296.335C256.065 297.237 255.34 298.004 254.469 298.575L101.09 387.121C100.161 387.593 99.1328 387.84 98.09 387.84C97.0473 387.84 96.0193 387.593 95.0896 387.121L91.72 385.171C90.8479 384.601 90.122 383.834 89.6008 382.932C89.0796 382.03 88.7777 381.018 88.7195 379.978V262.408Z" fill="#C80036"/>
<path opacity="0.3" d="M88.7195 262.408C88.7759 261.368 89.077 260.355 89.5984 259.453C90.1197 258.55 90.8466 257.784 91.72 257.215L245.098 168.657C246.027 168.19 247.053 167.947 248.093 167.947C249.133 167.947 250.158 168.19 251.087 168.657L254.469 170.619C255.344 171.186 256.072 171.952 256.594 172.854C257.115 173.757 257.415 174.771 257.469 175.812V293.382C257.41 294.422 257.108 295.433 256.587 296.335C256.065 297.237 255.34 298.004 254.469 298.575L101.09 387.121C100.161 387.593 99.1328 387.84 98.09 387.84C97.0473 387.84 96.0193 387.593 95.0896 387.121L91.72 385.171C90.8479 384.601 90.122 383.834 89.6008 382.932C89.0796 382.03 88.7777 381.018 88.7195 379.978V262.408Z" fill="black"/>
<path d="M102.775 267.07L89.5966 259.454C89.0578 260.348 88.756 261.365 88.7195 262.408V379.978C88.7777 381.018 89.0796 382.03 89.6008 382.932C90.122 383.834 90.8479 384.601 91.72 385.171L95.0896 387.121C96.0193 387.593 97.0473 387.84 98.09 387.84C99.1328 387.84 100.161 387.593 101.09 387.121L102.775 386.152V267.07Z" fill="#C80036"/>
<path opacity="0.5" d="M102.775 267.07L89.5966 259.454C89.0578 260.348 88.756 261.365 88.7195 262.408V379.978C88.7777 381.018 89.0796 382.03 89.6008 382.932C90.122 383.834 90.8479 384.601 91.72 385.171L95.0896 387.121C96.0193 387.593 97.0473 387.84 98.09 387.84C99.1328 387.84 100.161 387.593 101.09 387.121L102.775 386.152V267.07Z" fill="black"/>
<path d="M257.469 175.812V293.381C257.43 294.458 257.108 295.505 256.534 296.416C256.091 297.184 255.494 297.852 254.78 298.378L254.665 298.448L254.469 298.575L101.09 387.121C100.797 387.328 100.456 387.458 100.099 387.498C99.7417 387.539 99.3802 387.488 99.0478 387.352C98.7284 387.15 98.4701 386.865 98.3013 386.528C98.1324 386.19 98.0593 385.812 98.09 385.436V267.82C98.0639 267.399 98.1403 266.978 98.3126 266.594C98.4849 266.209 98.748 265.871 99.0793 265.61C99.4106 265.349 99.8002 265.173 100.215 265.095C100.629 265.018 101.057 265.042 101.46 265.166L165.957 280.503L174.404 282.511C175.401 282.698 176.43 282.608 177.38 282.252C178.33 281.896 179.164 281.287 179.793 280.491L189.579 266.863L255.449 175.154C256.557 173.608 257.469 173.896 257.469 175.812Z" fill="#C80036"/>
<path opacity="0.2" d="M257.469 175.812V293.381C257.43 294.458 257.108 295.505 256.534 296.416C256.091 297.184 255.494 297.852 254.78 298.378L254.665 298.448L254.469 298.575L101.09 387.121C100.797 387.328 100.456 387.458 100.099 387.498C99.7417 387.539 99.3802 387.488 99.0478 387.352C98.7284 387.15 98.4701 386.865 98.3013 386.528C98.1324 386.19 98.0593 385.812 98.09 385.436V267.82C98.0639 267.399 98.1403 266.978 98.3126 266.594C98.4849 266.209 98.748 265.871 99.0793 265.61C99.4106 265.349 99.8002 265.173 100.215 265.095C100.629 265.018 101.057 265.042 101.46 265.166L165.957 280.503L174.404 282.511C175.401 282.698 176.43 282.608 177.38 282.252C178.33 281.896 179.164 281.287 179.793 280.491L189.579 266.863L255.449 175.154C256.557 173.608 257.469 173.896 257.469 175.812Z" fill="black"/>
<path d="M254.469 298.575L254.665 298.448L254.78 298.378C255.494 297.852 256.091 297.184 256.534 296.417C257.101 295.519 257.424 294.489 257.469 293.428L189.579 266.886L235.047 309.815L254.469 298.575Z" fill="#C80036"/>
<path opacity="0.6" d="M254.469 298.575L254.665 298.448L254.78 298.378C255.494 297.852 256.091 297.184 256.534 296.417C257.101 295.519 257.424 294.489 257.469 293.428L189.579 266.886L235.047 309.815L254.469 298.575Z" fill="black"/>
<path d="M98.09 385.436C98.0459 385.819 98.1101 386.207 98.2753 386.556C98.4405 386.905 98.7001 387.2 99.0247 387.409C99.3571 387.546 99.7186 387.596 100.076 387.556C100.433 387.515 100.774 387.386 101.067 387.178L153.897 356.586L165.957 280.422L98.09 383.439V385.436Z" fill="#C80036"/>
<path opacity="0.6" d="M98.09 385.436C98.0459 385.819 98.1101 386.207 98.2753 386.556C98.4405 386.905 98.7001 387.2 99.0247 387.409C99.3571 387.546 99.7186 387.596 100.076 387.556C100.433 387.515 100.774 387.386 101.067 387.178L153.897 356.586L165.957 280.422L98.09 383.439V385.436Z" fill="black"/>
<path d="M256.534 296.416C256.091 297.184 255.494 297.852 254.78 298.378L254.665 298.447L101.09 387.121C100.797 387.328 100.456 387.458 100.099 387.498C99.7417 387.539 99.3802 387.488 99.0479 387.352L172.5 270.094C173.976 267.745 176.249 266.007 178.902 265.197C181.556 264.388 184.412 264.561 186.948 265.685L256.534 296.416Z" fill="#C80036"/>
<path opacity="0.2" d="M256.534 296.416C256.091 297.184 255.494 297.852 254.78 298.378L254.665 298.447L101.09 387.121C100.797 387.328 100.456 387.458 100.099 387.498C99.7417 387.539 99.3802 387.488 99.0479 387.352L172.5 270.094C173.976 267.745 176.249 266.007 178.902 265.197C181.556 264.388 184.412 264.561 186.948 265.685L256.534 296.416Z" fill="black"/>
<path d="M98.09 264.358L168.634 295.516C171.174 296.638 174.033 296.806 176.687 295.99C179.341 295.174 181.611 293.428 183.082 291.073L257.157 172.523L98.09 264.358Z" fill="#C80036"/>
<path opacity="0.6" d="M98.09 264.358L168.634 295.516C171.174 296.638 174.033 296.806 176.687 295.99C179.341 295.174 181.611 293.428 183.082 291.073L257.157 172.523L98.09 264.358Z" fill="black"/>
<path d="M98.09 264.358L169.13 290.9C171.585 291.817 174.279 291.871 176.769 291.053C179.258 290.235 181.395 288.594 182.828 286.4L257.157 172.523L98.09 264.358Z" fill="#C80036"/>
<path opacity="0.2" d="M98.09 264.358L169.13 290.9C171.585 291.817 174.279 291.871 176.769 291.053C179.258 290.235 181.395 288.594 182.828 286.4L257.157 172.523L98.09 264.358Z" fill="black"/>
<path d="M114.915 276.891C114.969 275.85 115.269 274.836 115.79 273.933C116.312 273.03 117.04 272.264 117.916 271.698L271.294 183.14C272.224 182.668 273.252 182.421 274.294 182.421C275.337 182.421 276.365 182.668 277.295 183.14L280.676 185.09C281.547 185.66 282.272 186.427 282.791 187.329C283.31 188.232 283.61 189.244 283.665 190.283V307.853C283.608 308.892 283.308 309.903 282.789 310.805C282.27 311.707 281.546 312.474 280.676 313.046L127.286 401.592C126.357 402.059 125.332 402.302 124.292 402.302C123.252 402.302 122.226 402.059 121.297 401.592L117.916 399.642C117.044 399.071 116.319 398.304 115.798 397.402C115.277 396.5 114.974 395.489 114.915 394.449V276.891Z" fill="#455A64"/>
<path d="M114.915 276.891C114.969 275.85 115.269 274.836 115.79 273.933C116.312 273.03 117.04 272.264 117.916 271.698L271.294 183.14C272.224 182.668 273.252 182.421 274.294 182.421C275.337 182.421 276.365 182.668 277.295 183.14L280.676 185.09C281.547 185.66 282.272 186.427 282.791 187.329C283.31 188.232 283.61 189.244 283.665 190.283V307.853C283.608 308.892 283.308 309.903 282.789 310.805C282.27 311.707 281.546 312.474 280.676 313.046L127.286 401.592C126.357 402.059 125.332 402.302 124.292 402.302C123.252 402.302 122.226 402.059 121.297 401.592L117.916 399.642C117.044 399.071 116.319 398.304 115.798 397.402C115.277 396.5 114.974 395.489 114.915 394.449V276.891Z" fill="#455A64"/>
<path d="M128.983 281.576L115.792 273.971C115.252 274.865 114.95 275.882 114.915 276.925V394.46C114.974 395.5 115.277 396.512 115.798 397.414C116.319 398.316 117.044 399.083 117.916 399.653L121.297 401.604C122.226 402.07 123.252 402.314 124.292 402.314C125.332 402.314 126.357 402.07 127.286 401.604L128.983 400.623V281.576Z" fill="#263238"/>
<path d="M283.676 190.283V307.853C283.637 308.929 283.315 309.976 282.742 310.888C282.298 311.656 281.701 312.324 280.988 312.85L280.872 312.919L280.676 313.046L127.298 401.592C127.004 401.799 126.663 401.929 126.306 401.97C125.949 402.01 125.588 401.96 125.255 401.823C124.931 401.614 124.671 401.319 124.506 400.97C124.341 400.621 124.276 400.233 124.32 399.85V282.292C124.294 281.871 124.371 281.45 124.543 281.065C124.715 280.68 124.978 280.342 125.31 280.081C125.641 279.821 126.031 279.644 126.445 279.566C126.86 279.489 127.287 279.514 127.69 279.637L192.187 294.974L200.634 296.982C201.632 297.169 202.661 297.079 203.611 296.724C204.56 296.368 205.395 295.759 206.024 294.963L215.798 281.334L281.668 189.626C282.73 188.102 283.676 188.368 283.676 190.283Z" fill="#37474F"/>
<path d="M280.676 313.045L280.872 312.919L280.988 312.849C281.701 312.323 282.298 311.655 282.742 310.887C283.302 309.992 283.62 308.966 283.665 307.91L215.786 281.368L261.243 324.274L280.676 313.045Z" fill="#263238"/>
<path d="M124.297 399.861C124.253 400.245 124.317 400.633 124.483 400.982C124.648 401.33 124.908 401.626 125.232 401.835C125.564 401.971 125.926 402.022 126.283 401.981C126.64 401.941 126.981 401.811 127.275 401.604L180.082 371.115L192.141 294.951L124.274 397.888L124.297 399.861Z" fill="#263238"/>
<path d="M282.73 310.888C282.287 311.656 281.69 312.324 280.976 312.85L280.861 312.919L127.298 401.592C127.004 401.799 126.663 401.929 126.306 401.97C125.949 402.01 125.588 401.96 125.255 401.823L198.696 284.577C200.168 282.224 202.44 280.481 205.093 279.667C207.747 278.853 210.605 279.023 213.144 280.145L282.73 310.888Z" fill="#37474F"/>
<path d="M124.297 278.841L194.841 309.999C197.38 311.117 200.236 311.284 202.888 310.468C205.539 309.652 207.807 307.908 209.278 305.556L283.353 186.948L124.297 278.841Z" fill="#263238"/>
<path d="M124.297 278.841L195.326 305.383C197.783 306.303 200.479 306.358 202.971 305.54C205.463 304.722 207.602 303.079 209.036 300.883L283.353 186.948L124.297 278.841Z" fill="#37474F"/>
<path d="M227.419 370.215V252.645C227.526 250.415 228.223 248.252 229.438 246.379L302.59 144.516C303.925 142.655 305.784 141.233 307.929 140.431C310.075 139.63 312.41 139.485 314.638 140.015L383.428 156.367C385.645 156.957 387.783 157.809 389.798 158.906L393.179 160.856C394.049 161.428 394.772 162.196 395.291 163.097C395.81 163.999 396.11 165.01 396.168 166.049V283.619C396.109 284.657 395.807 285.667 395.289 286.569C394.77 287.471 394.047 288.238 393.179 288.812L239.79 377.358C238.861 377.828 237.835 378.072 236.795 378.072C235.755 378.072 234.729 377.828 233.8 377.358L230.419 375.408C229.547 374.838 228.821 374.071 228.3 373.169C227.779 372.267 227.477 371.255 227.419 370.215Z" fill="#C80036"/>
<path opacity="0.3" d="M227.419 370.215V252.645C227.526 250.415 228.223 248.252 229.438 246.379L302.59 144.516C303.925 142.655 305.784 141.233 307.929 140.431C310.075 139.63 312.41 139.485 314.638 140.015L383.428 156.367C385.645 156.957 387.783 157.809 389.798 158.906L393.179 160.856C394.049 161.428 394.772 162.196 395.291 163.097C395.81 163.999 396.11 165.01 396.168 166.049V283.619C396.109 284.657 395.807 285.667 395.289 286.569C394.77 287.471 394.047 288.238 393.179 288.812L239.79 377.358C238.861 377.828 237.835 378.072 236.795 378.072C235.755 378.072 234.729 377.828 233.8 377.358L230.419 375.408C229.547 374.838 228.821 374.071 228.3 373.169C227.779 372.267 227.477 371.255 227.419 370.215Z" fill="white"/>
<path d="M241.474 195.822V345.842C241.474 347.746 242.825 348.531 244.475 347.573L388.483 264.485C389.357 263.917 390.084 263.151 390.605 262.249C391.127 261.346 391.427 260.333 391.483 259.292V109.272C391.483 107.357 390.144 106.583 388.483 107.541L244.475 190.629C243.602 191.198 242.875 191.964 242.353 192.867C241.832 193.769 241.531 194.782 241.474 195.822Z" fill="#FAFAFA"/>
<path d="M243.136 348.577C242.764 348.58 242.398 348.485 242.075 348.3C241.68 348.037 241.364 347.672 241.161 347.243C240.957 346.814 240.874 346.338 240.921 345.865V195.845C240.975 194.702 241.302 193.588 241.874 192.597C242.446 191.605 243.247 190.764 244.21 190.145L388.217 107.057C388.593 106.75 389.053 106.566 389.537 106.528C390.02 106.489 390.503 106.599 390.923 106.842C391.342 107.085 391.678 107.449 391.885 107.888C392.093 108.326 392.162 108.817 392.083 109.295V259.315C392.029 260.458 391.703 261.57 391.13 262.56C390.558 263.55 389.757 264.388 388.794 265.005L244.787 348.093C244.289 348.398 243.72 348.565 243.136 348.577ZM389.821 107.645C389.449 107.667 389.087 107.782 388.771 107.98L244.763 191.126C243.979 191.646 243.327 192.341 242.856 193.156C242.386 193.97 242.11 194.883 242.052 195.822V345.842C241.982 346.113 242.004 346.399 242.112 346.656C242.22 346.914 242.409 347.129 242.651 347.269C242.893 347.408 243.174 347.465 243.451 347.431C243.728 347.396 243.986 347.272 244.186 347.077L388.194 263.989C388.979 263.469 389.632 262.775 390.103 261.96C390.573 261.145 390.848 260.232 390.906 259.292V109.272C390.939 109.002 390.902 108.727 390.799 108.475C390.696 108.222 390.53 108 390.317 107.83C390.172 107.725 390 107.661 389.821 107.645Z" fill="#E0E0E0"/>
<path d="M238.37 255.507L227.984 249.506C227.648 250.52 227.461 251.578 227.43 252.645V370.215C227.489 371.255 227.79 372.267 228.312 373.169C228.833 374.071 229.559 374.838 230.431 375.408L233.8 377.358C234.728 377.83 235.754 378.076 236.795 378.076C237.836 378.076 238.862 377.83 239.79 377.358L241.232 376.539L238.37 255.507Z" fill="#C80036"/>
<g opacity="0.1">
<path d="M238.37 255.507L227.984 249.506C227.648 250.52 227.461 251.578 227.43 252.645V370.215C227.489 371.255 227.79 372.267 228.312 373.169C228.833 374.071 229.559 374.838 230.431 375.408L233.8 377.358C234.728 377.83 235.754 378.076 236.795 378.076C237.836 378.076 238.862 377.83 239.79 377.358L241.232 376.539L238.37 255.507Z" fill="black"/>
</g>
<path d="M396.18 166.049V283.619C396.141 284.695 395.818 285.742 395.245 286.654C394.802 287.422 394.205 288.09 393.491 288.616L393.376 288.685L393.179 288.812L239.801 377.358C239.508 377.566 239.167 377.695 238.81 377.736C238.452 377.776 238.091 377.726 237.759 377.589C237.434 377.38 237.174 377.085 237.009 376.736C236.844 376.387 236.78 375.999 236.824 375.616V258.058C236.798 257.637 236.874 257.216 237.046 256.831C237.219 256.446 237.482 256.109 237.813 255.848C238.144 255.587 238.534 255.41 238.949 255.333C239.363 255.255 239.79 255.28 240.194 255.404L304.656 270.74L313.103 272.748C314.102 272.937 315.134 272.849 316.086 272.493C317.038 272.137 317.874 271.527 318.504 270.729L328.29 257.1L394.16 165.392C395.268 163.868 396.18 164.134 396.18 166.049Z" fill="#C80036"/>
<path opacity="0.3" d="M396.18 166.049V283.619C396.141 284.695 395.818 285.742 395.245 286.654C394.802 287.422 394.205 288.09 393.491 288.616L393.376 288.685L393.179 288.812L239.801 377.358C239.508 377.566 239.167 377.695 238.81 377.736C238.452 377.776 238.091 377.726 237.759 377.589C237.434 377.38 237.174 377.085 237.009 376.736C236.844 376.387 236.78 375.999 236.824 375.616V258.058C236.798 257.637 236.874 257.216 237.046 256.831C237.219 256.446 237.482 256.109 237.813 255.848C238.144 255.587 238.534 255.41 238.949 255.333C239.363 255.255 239.79 255.28 240.194 255.404L304.656 270.74L313.103 272.748C314.102 272.937 315.134 272.849 316.086 272.493C317.038 272.137 317.874 271.527 318.504 270.729L328.29 257.1L394.16 165.392C395.268 163.868 396.18 164.134 396.18 166.049Z" fill="white"/>
<path d="M393.179 288.812L393.376 288.685L393.491 288.616C394.205 288.09 394.802 287.422 395.245 286.654C395.806 285.754 396.124 284.724 396.168 283.665L328.29 257.123L373.746 300.04L393.179 288.812Z" fill="#C80036"/>
<path d="M236.801 375.627C236.757 376.01 236.821 376.398 236.986 376.747C237.151 377.096 237.411 377.392 237.736 377.6C238.068 377.737 238.429 377.787 238.786 377.747C239.143 377.707 239.485 377.577 239.778 377.369L292.585 346.881L304.644 270.717L236.778 373.654L236.801 375.627Z" fill="#C80036"/>
<path d="M395.245 286.654C394.802 287.422 394.205 288.09 393.491 288.616L393.376 288.685L239.801 377.358C239.508 377.566 239.167 377.695 238.81 377.736C238.453 377.776 238.091 377.726 237.759 377.589L311.199 260.343C312.672 257.993 314.941 256.251 317.592 255.438C320.243 254.624 323.099 254.792 325.636 255.911L395.245 286.654Z" fill="#C80036"/>
<path opacity="0.3" d="M395.245 286.654C394.802 287.422 394.205 288.09 393.491 288.616L393.376 288.685L239.801 377.358C239.508 377.566 239.167 377.695 238.81 377.736C238.453 377.776 238.091 377.726 237.759 377.589L311.199 260.343C312.672 257.993 314.941 256.251 317.592 255.438C320.243 254.624 323.099 254.792 325.636 255.911L395.245 286.654Z" fill="white"/>
<path d="M304.887 230.373C303.54 230.581 302.164 230.459 300.875 230.017C299.586 229.574 298.424 228.825 297.49 227.834C295.736 225.884 294.859 222.872 294.859 218.821C294.861 214.251 295.841 209.734 297.732 205.573C299.673 201.292 302.353 197.386 305.648 194.033C309.192 190.359 313.232 187.197 317.65 184.64C321.981 182.147 325.678 180.766 328.74 180.497C331.821 180.22 334.141 181.016 335.733 182.863C337.326 184.709 338.11 187.536 338.11 191.322C338.177 195.075 337.288 198.785 335.526 202.1C333.973 205.102 331.605 207.606 328.694 209.324C327.689 210.038 326.457 210.358 325.232 210.224C324.796 210.138 324.394 209.927 324.075 209.618C323.755 209.309 323.532 208.914 323.432 208.482C322.471 210.299 321.25 211.967 319.808 213.432C318.349 214.937 316.687 216.231 314.869 217.275C311.73 219.052 309.226 219.583 307.379 218.971C305.533 218.36 304.656 216.49 304.656 213.374C304.682 209.459 305.889 205.642 308.118 202.423C310.545 198.854 313.769 195.899 317.535 193.791C319.107 192.854 320.817 192.169 322.601 191.76C323.927 191.401 325.325 191.401 326.651 191.76V203.912C326.651 204.893 326.824 205.493 327.159 205.723C327.494 205.954 328.048 205.839 328.832 205.389C330.294 204.438 331.376 203.005 331.89 201.338C332.671 199.087 333.042 196.715 332.987 194.333C332.987 191.302 332.325 189.098 331.002 187.721C330.295 187.03 329.432 186.518 328.486 186.229C327.541 185.94 326.539 185.882 325.567 186.059C322.749 186.49 320.051 187.495 317.639 189.014C312.536 191.844 308.138 195.788 304.771 200.554C301.66 205.025 300.007 210.35 300.04 215.798C300.04 219.114 300.721 221.533 302.083 223.057C302.789 223.819 303.672 224.395 304.655 224.733C305.637 225.072 306.688 225.162 307.714 224.995C310.586 224.588 313.339 223.578 315.792 222.029C317.485 221.05 319.088 219.923 320.581 218.66C321.972 217.512 323.237 216.22 324.355 214.805C324.471 214.657 324.607 214.524 324.759 214.413C324.863 214.355 324.966 214.413 325.059 214.552L326.328 216.86C326.375 216.951 326.409 217.048 326.432 217.148C326.392 217.405 326.266 217.641 326.074 217.817C324.68 219.494 323.135 221.039 321.458 222.433C319.693 223.914 317.805 225.242 315.815 226.403C312.5 228.497 308.773 229.851 304.887 230.373ZM319.889 208.678C320.987 207.381 321.628 205.759 321.712 204.062V197.022C320.065 197.161 318.479 197.709 317.096 198.615C314.895 199.853 313.02 201.598 311.626 203.704C310.319 205.636 309.616 207.914 309.607 210.247C309.607 212.197 310.091 213.363 311.072 213.709C312.053 214.055 313.565 213.709 315.631 212.474C317.303 211.507 318.766 210.216 319.935 208.678H319.889Z" fill="#E0E0E0"/>
<path d="M157.913 241.936L146.662 235.416H146.581C142.738 233.247 137.441 233.57 131.579 236.951C119.797 243.748 110.253 260.285 110.253 273.879C110.253 280.676 112.63 285.419 116.473 287.727L126.94 293.716L128.833 290.566C130.979 290.085 133.041 289.283 134.949 288.189C146.72 281.38 156.275 264.843 156.275 251.261C156.268 249.425 156.044 247.596 155.605 245.814L157.913 241.936Z" fill="#F28F8F"/>
<path d="M157.913 241.936L146.662 235.416H146.581C142.738 233.247 137.441 233.57 131.579 236.951C119.797 243.748 110.253 260.285 110.253 273.879C110.253 280.676 112.63 285.419 116.473 287.727L126.94 293.716L128.833 290.566C130.979 290.085 133.041 289.283 134.949 288.189C146.72 281.38 156.275 264.843 156.275 251.261C156.268 249.425 156.044 247.596 155.605 245.814L157.913 241.936Z" fill="#C80036"/>
<path opacity="0.4" d="M157.913 241.936L146.662 235.416H146.581C142.738 233.247 137.441 233.57 131.579 236.951C119.797 243.748 110.253 260.285 110.253 273.879C110.253 280.676 112.63 285.419 116.473 287.727L126.94 293.716L128.833 290.566C130.979 290.085 133.041 289.283 134.949 288.189C146.72 281.38 156.275 264.843 156.275 251.261C156.268 249.425 156.044 247.596 155.605 245.814L157.913 241.936Z" fill="black"/>
<path d="M142.392 243.148C130.61 249.957 121.066 266.493 121.066 280.076C121.066 293.659 130.61 299.186 142.392 292.389C154.174 285.592 163.718 269.055 163.718 255.461C163.718 241.867 154.174 236.351 142.392 243.148Z" fill="#C80036"/>
<path d="M134.06 283.33C133.841 283.33 133.726 283.203 133.726 283.007C133.748 282.79 133.811 282.579 133.91 282.384L134.983 279.972C135.054 279.736 135.195 279.527 135.387 279.372C135.547 279.3 135.72 279.261 135.895 279.257C136.855 279.2 137.803 279.009 138.711 278.691C139.918 278.285 141.078 277.751 142.173 277.099C143.875 276.176 145.369 274.911 146.558 273.383C147.45 272.227 147.948 270.815 147.977 269.355C147.977 266.805 146.42 266.436 143.304 268.201L140.269 270.036C139.772 270.313 139.426 270.417 139.219 270.325C139.011 270.232 138.907 269.956 138.907 269.494V268.536C138.891 268.129 138.999 267.726 139.219 267.382C139.496 267.007 139.855 266.699 140.269 266.482L143.281 264.739C144.488 264.083 145.511 263.135 146.258 261.981C146.884 261.014 147.228 259.891 147.25 258.739C147.25 256.269 145.512 256.038 142.034 258.046C139.896 259.265 137.97 260.824 136.334 262.662C136.18 262.836 136.01 262.994 135.826 263.135C135.758 263.168 135.681 263.176 135.608 263.159C135.535 263.142 135.469 263.102 135.422 263.043L134.395 261.889C134.338 261.836 134.292 261.772 134.26 261.7C134.228 261.629 134.211 261.552 134.21 261.474C134.234 261.209 134.348 260.96 134.533 260.77C135.556 259.491 136.717 258.33 137.995 257.308C139.484 256.094 141.071 255.006 142.738 254.053C144.244 253.116 145.905 252.456 147.643 252.103C148.19 251.97 148.759 251.958 149.311 252.067C149.863 252.177 150.385 252.406 150.839 252.738C151.249 253.133 151.565 253.615 151.765 254.148C151.965 254.681 152.043 255.252 151.993 255.819C151.967 257.09 151.685 258.342 151.162 259.5C150.605 260.837 149.824 262.071 148.854 263.147C149.353 262.98 149.885 262.942 150.402 263.037C150.918 263.132 151.402 263.356 151.809 263.689C152.164 264.103 152.434 264.584 152.602 265.103C152.771 265.622 152.834 266.169 152.79 266.713C152.701 269.271 151.804 271.736 150.228 273.752C148.292 276.348 145.821 278.497 142.981 280.053C138.919 282.43 135.945 283.523 134.06 283.33Z" fill="white"/>
<path d="M376.054 408.62L376.273 408.423C376.435 408.285 376.608 408.146 376.758 407.996L377.277 407.489L377.797 406.992C378.1 406.707 378.389 406.407 378.662 406.092L382.77 409.162L385.505 411.204C384.509 412.284 383.698 413.52 383.105 414.863C383.105 414.863 382.286 416.19 379.504 415.52C376.066 414.724 375.523 409.67 376.054 408.62Z" fill="#FFA8A7"/>
<path d="M335.814 407.212C332.675 403.565 335.468 397.507 338.514 389.648C341.861 381.005 347.031 366.314 347.031 366.314L383.74 358.732C383.74 358.732 422.849 357.982 426.438 365.46C429.346 371.449 403.588 380.462 399.896 380.785L377.289 381.974L374.912 383.128L359.032 403.219L335.814 407.212Z" fill="#C80036"/>
<path d="M403.45 371.588C400.599 374.487 397.943 377.571 395.499 380.82C388.886 390.052 378.42 406.819 378.42 406.819C378.42 406.819 380.047 412.128 385.044 411.897C385.044 411.897 419.433 379.781 422.249 376.815C426.507 372.315 429.923 364.895 422.56 364.283C415.198 363.671 406.312 368.495 403.45 371.588Z" fill="#C80036"/>
<path d="M395.314 381.005C395.314 381.005 401.454 372.026 407.812 368.311C407.812 368.311 401.488 369.557 391.91 381.212L395.314 381.005Z" fill="#C80036"/>
<path opacity="0.1" d="M395.314 381.005C395.314 381.005 401.454 372.026 407.812 368.311C407.812 368.311 401.488 369.557 391.91 381.212L395.314 381.005Z" fill="black"/>
<path d="M399.492 392.36L397.08 392.822L399.319 401.096C399.319 401.096 401.488 400.888 402.238 400.934C403.331 400.675 404.383 400.267 405.366 399.723L404.789 394.668L402.134 391.898L399.492 392.36Z" fill="#FFA8A7"/>
<path d="M418.533 394.31C419.684 394.774 420.727 395.471 421.597 396.356C422.466 397.242 423.144 398.297 423.587 399.457C424.101 400.669 424.522 401.919 424.845 403.196C425.226 404.534 425.041 406.808 423.345 407.177C422.793 407.242 422.235 407.141 421.741 406.888C418.337 405.573 415.013 404.05 411.528 402.942C408.542 401.836 405.414 401.156 402.238 400.922C402.96 399.811 403.321 398.504 403.271 397.18C403.222 395.856 402.764 394.579 401.961 393.525C401.278 392.893 400.415 392.49 399.492 392.371C400.369 391.979 401.188 391.471 402.031 390.998C403.599 389.901 405.521 389.428 407.42 389.671C408.874 389.982 409.982 391.136 411.216 391.979C413.571 393.514 415.844 393.41 418.533 394.31Z" fill="#263238"/>
<path d="M340.765 399.284C343.8 398.349 348.646 397.518 363.025 396.78C377.404 396.041 397.08 392.81 397.08 392.81C400.426 396.03 399.319 401.084 399.319 401.084C399.319 401.084 373.781 409.162 365.46 410.235C352.212 411.943 347.643 411.816 341.665 410.535C334.949 409.093 330.713 402.365 340.765 399.284Z" fill="#C80036"/>
<path d="M393.318 330.794L404.119 356.609L396.387 361.363L381.524 336.195L393.318 330.794Z" fill="#F28F8F"/>
<path d="M370.976 306.468C376.885 306.537 383.382 308.683 385.621 313.311L394.853 332.352C394.853 332.352 389.637 339.991 381.351 339.449L370.976 306.468Z" fill="#E0E0E0"/>
<path d="M331.694 346.592C331.763 345.588 333.206 340.684 334.752 335.398L345.969 339.276L342.957 348.773L333.506 357.74C331.459 354.407 330.808 350.402 331.694 346.592Z" fill="#FFA8A7"/>
<path d="M358.894 306.826C351.855 308.522 342.265 310.726 339.484 318.366C336.703 326.005 332.721 339.495 332.721 339.495C334.268 342.173 342.75 344.388 345.692 342.842L347.077 338.226V366.291C352.582 372.28 379.735 370.746 383.786 358.709V320.477C383.786 314.361 380.393 307.01 371.011 306.468L358.894 306.826Z" fill="#FAFAFA"/>
<path d="M347.042 338.249L350.574 327.136L347.042 343.223V338.249Z" fill="#E0E0E0"/>
<path d="M356.217 275.541C355.59 275.459 354.953 275.521 354.353 275.721C353.754 275.921 353.207 276.254 352.755 276.695C351.266 278.218 351.601 281.034 352.755 287.496L357.371 288.015L356.217 275.541Z" fill="#263238"/>
<path d="M383.001 273.671C383.989 273.675 384.968 273.475 385.875 273.083C387.282 272.275 387.652 273.879 386.878 275.264C386.367 276.262 385.609 277.113 384.676 277.735C383.742 278.358 382.665 278.73 381.547 278.818C381.547 278.622 380.231 275.229 380.231 275.229L383.001 273.671Z" fill="#263238"/>
<path d="M358.375 288.084C357.694 288.488 356.713 287.184 355.871 286.296C355.54 285.918 355.119 285.63 354.646 285.46C354.174 285.291 353.666 285.244 353.171 285.325C352.675 285.405 352.209 285.611 351.815 285.922C351.421 286.234 351.113 286.64 350.92 287.103C349.524 290.046 352.697 293.958 354.555 295.251C355.076 295.7 355.726 295.974 356.412 296.032C357.098 296.09 357.785 295.929 358.375 295.574L358.859 306.825C359.682 308.628 360.94 310.199 362.518 311.398C364.097 312.596 365.949 313.384 367.907 313.692C374.508 314.58 373.146 309.133 370.976 306.468V302.348C372.629 302.7 374.328 302.786 376.008 302.602C376.862 302.371 378.916 299.89 380.243 297.109C381.732 293.993 384.213 288.454 382.009 279.072C379.631 269.009 368.818 268.686 362.391 272.759C355.963 276.833 358.375 288.084 358.375 288.084Z" fill="#FFA8A7"/>
<path d="M358.375 289.227C358.028 289.227 356.724 287.069 355.871 286.296C354.717 285.222 356.217 275.54 356.217 275.54C356.217 275.54 355.063 271.859 357.371 269.424C359.679 266.989 364.202 267.393 367.503 267.278C371.547 267.3 375.552 266.495 379.274 264.912C383.959 262.881 384.305 262.604 384.882 264.693C385.459 266.782 385.69 271.455 382.897 274.606L381.374 277.087C381.374 277.087 379.955 278.241 375.604 278.818C371.253 279.395 363.799 277.006 362.91 276.879C361.641 276.706 361.375 277.929 360.694 281.276C360.048 284.219 359.529 289.204 358.375 289.227Z" fill="#263238"/>
<path d="M356.228 276.29L352.097 274.075C352.233 273.8 352.422 273.555 352.654 273.355C352.885 273.154 353.154 273.001 353.445 272.906C353.736 272.81 354.044 272.773 354.349 272.798C354.654 272.822 354.952 272.907 355.224 273.048C355.774 273.357 356.185 273.866 356.372 274.469C356.558 275.072 356.507 275.724 356.228 276.29Z" fill="#263238"/>
<path d="M370.965 302.348C370.965 302.348 364.849 301.113 362.714 300.04C361.457 299.381 360.428 298.36 359.759 297.109C360.084 298.364 360.657 299.541 361.444 300.571C363.002 302.567 370.965 304.033 370.965 304.033V302.348Z" fill="#F28F8F"/>
<path d="M371.161 287.853C371.152 288.093 371.073 288.325 370.933 288.52C370.793 288.715 370.599 288.865 370.375 288.95C370.151 289.036 369.906 289.053 369.672 289.001C369.438 288.949 369.224 288.829 369.058 288.656C368.891 288.483 368.779 288.265 368.736 288.029C368.692 287.793 368.719 287.55 368.813 287.329C368.907 287.108 369.063 286.92 369.263 286.787C369.463 286.655 369.698 286.584 369.938 286.584C370.101 286.587 370.263 286.622 370.413 286.688C370.563 286.753 370.699 286.847 370.812 286.965C370.926 287.083 371.015 287.222 371.075 287.375C371.135 287.527 371.164 287.69 371.161 287.853Z" fill="#263238"/>
<path d="M369.869 283.238L367.237 284.68C367.055 284.319 367.017 283.903 367.131 283.515C367.244 283.127 367.501 282.797 367.849 282.591C368.023 282.496 368.215 282.438 368.412 282.419C368.609 282.4 368.808 282.422 368.997 282.482C369.186 282.543 369.36 282.641 369.51 282.771C369.66 282.9 369.782 283.059 369.869 283.238Z" fill="#263238"/>
<path d="M370.434 296.047L373.238 297.109C373.176 297.296 373.077 297.469 372.947 297.617C372.817 297.765 372.658 297.886 372.481 297.972C372.303 298.058 372.111 298.107 371.914 298.118C371.717 298.128 371.52 298.099 371.334 298.032C370.956 297.882 370.651 297.591 370.483 297.221C370.315 296.851 370.298 296.43 370.434 296.047Z" fill="#F28F8F"/>
<path d="M382.089 284.253L379.701 282.407C379.814 282.247 379.958 282.111 380.125 282.008C380.292 281.905 380.479 281.837 380.673 281.808C380.867 281.778 381.065 281.789 381.255 281.838C381.445 281.888 381.623 281.975 381.778 282.095C382.097 282.346 382.307 282.71 382.365 283.112C382.423 283.514 382.324 283.922 382.089 284.253Z" fill="#263238"/>
<path d="M381.351 287.507C381.342 287.747 381.262 287.979 381.123 288.174C380.983 288.369 380.789 288.518 380.565 288.604C380.34 288.689 380.096 288.707 379.862 288.655C379.628 288.603 379.414 288.483 379.248 288.31C379.081 288.137 378.969 287.919 378.926 287.683C378.882 287.447 378.909 287.204 379.003 286.983C379.096 286.762 379.253 286.574 379.453 286.441C379.653 286.309 379.888 286.238 380.128 286.238C380.291 286.241 380.453 286.276 380.603 286.341C380.753 286.407 380.889 286.501 381.002 286.619C381.116 286.737 381.205 286.876 381.265 287.028C381.325 287.181 381.354 287.344 381.351 287.507Z" fill="#263238"/>
<path d="M375.581 287.357L374.427 294.651L378.466 294.178L375.581 287.357Z" fill="#F28F8F"/>
<path d="M417.679 370.18L392.81 355.824C392.592 355.7 392.346 355.634 392.095 355.634C391.844 355.634 391.597 355.7 391.379 355.824L347.769 381.004L373.342 395.822L417.679 370.18Z" fill="#37474F"/>
<path d="M373.111 393.664L359.702 385.932L398.915 363.291L412.393 370.988L373.111 393.664Z" fill="#263238"/>
<path d="M366.522 372.153L366.776 372.292L373.342 376.088L385.032 369.337L385.274 369.199L378.454 365.264L366.522 372.153Z" fill="#263238"/>
<path d="M366.776 372.292L373.342 376.089L385.032 369.338L378.454 365.541L366.776 372.292Z" fill="#263238"/>
<path d="M347.769 381.005V381.593C347.766 382.01 347.871 382.42 348.073 382.784C348.275 383.148 348.568 383.453 348.923 383.67L372.096 397.045C372.46 397.257 372.874 397.369 373.296 397.369C373.718 397.369 374.132 397.257 374.496 397.045L416.432 372.811C416.787 372.593 417.079 372.288 417.282 371.924C417.484 371.56 417.589 371.15 417.586 370.734V370.146L373.342 395.822L347.769 381.005Z" fill="#263238"/>
<path d="M373.342 395.822V397.414C373.748 397.41 374.147 397.299 374.496 397.091L416.432 372.857C416.787 372.639 417.079 372.333 417.282 371.97C417.484 371.606 417.589 371.196 417.586 370.78V370.191L373.342 395.822Z" fill="#263238"/>
<path d="M374.023 396.134C374.42 396.285 374.845 396.346 375.268 396.312C375.692 396.278 376.102 396.15 376.469 395.937L418.221 371.83C418.583 371.623 418.895 371.337 419.132 370.993C419.37 370.65 419.528 370.258 419.594 369.846L424.21 342.6C424.222 342.442 424.222 342.284 424.21 342.126C424.208 341.368 423.905 340.642 423.368 340.107L379.978 365.16C379.711 365.314 379.481 365.526 379.306 365.779C379.13 366.033 379.013 366.322 378.962 366.626L374.023 396.134Z" fill="#263238"/>
<path d="M373.342 395.822L373.631 395.983C373.758 396.056 373.889 396.121 374.023 396.18L378.962 366.672C379.013 366.368 379.13 366.079 379.306 365.825C379.481 365.572 379.711 365.36 379.978 365.206L423.368 340.153C423.191 339.988 422.997 339.841 422.791 339.714L379.32 364.768C379.052 364.922 378.821 365.133 378.643 365.386C378.466 365.64 378.346 365.929 378.293 366.233L373.342 395.822Z" fill="#455A64"/>
<path d="M397.53 370.965C398.187 368.687 399.695 366.749 401.742 365.553C403.762 364.399 405.146 364.918 404.846 366.707C404.189 368.985 402.681 370.923 400.634 372.119C398.615 373.331 397.23 372.742 397.53 370.965Z" fill="#37474F"/>
<path d="M342.957 348.75C342.957 348.75 350.447 377.6 353.609 379.666C356.771 381.732 362.656 383.243 365.472 384.282C368.288 385.321 369.568 386.74 369.084 387.132C368.599 387.525 364.537 387.952 363.129 388.448C361.721 388.944 363.545 391.218 366.66 393.629C369.776 396.041 372.43 395.822 372.084 397.426C371.738 399.03 364.791 400.634 358.929 397.195C353.066 393.756 351.289 389.117 347.793 385.182C344.296 381.247 336.31 364.895 333.506 357.74C333.506 357.74 333.771 344.446 338.122 345.288C342.473 346.131 342.957 348.75 342.957 348.75Z" fill="#FFA8A7"/>
<path d="M378.593 407.212C379.124 408.493 380.958 412.024 385.044 411.828L395.083 402.434L378.593 407.212Z" fill="#C80036"/>
<path opacity="0.1" d="M378.593 407.212C379.124 408.493 380.958 412.024 385.044 411.828L395.083 402.434L378.593 407.212Z" fill="black"/>
<path d="M381.628 423.737C381.531 420.716 382.029 417.704 383.093 414.875C382.61 415.212 382.052 415.428 381.468 415.504C380.883 415.581 380.289 415.515 379.735 415.313C376.377 414.309 375.535 409.624 376.066 408.608C375.581 409.035 375.073 409.439 374.577 409.855C372.985 410.923 371.853 412.55 371.403 414.413C371.173 415.879 371.853 417.321 372.188 418.775C372.834 421.545 372.188 424.43 372.084 427.269C372.108 428.507 372.385 429.728 372.899 430.856C373.413 431.983 374.153 432.993 375.073 433.823C376.019 434.746 377.038 435.591 378.12 436.351C378.513 436.793 379.035 437.103 379.611 437.236C380.188 437.37 380.793 437.322 381.341 437.098C381.889 436.873 382.354 436.485 382.672 435.985C382.99 435.486 383.146 434.9 383.116 434.308C382.678 430.708 381.836 427.488 381.628 423.737Z" fill="#263238"/>
<path d="M385.436 411.228C385.124 411.816 384.847 412.382 384.605 412.947C384.894 412.393 385.171 411.816 385.436 411.228Z" fill="#37474F"/>
</svg>
