<svg width="96" height="96" viewBox="0 0 96 96" fill="none" xmlns="http://www.w3.org/2000/svg">
<g clip-path="url(#clip0_117_101)">
<path d="M96 48C96 74.4563 74.4563 96 48 96V0C74.4563 0 96 21.525 96 48Z" fill="white"/>
<path d="M48 0V96C21.5437 96 0 74.4563 0 48C0 21.525 21.5437 0 48 0Z" fill="#006133"/>
<path d="M54.9562 67.2187C44.325 67.2187 35.7375 58.6124 35.7375 47.9999C35.7375 37.3687 44.3437 28.7812 54.9562 28.7812C61.125 28.7812 66.6187 31.6874 70.1437 36.2062C66.0187 28.8937 58.1812 23.9624 49.1812 23.9624C35.9062 23.9624 25.1437 34.7249 25.1437 47.9999C25.1437 61.2749 35.9062 72.0374 49.1812 72.0374C58.1812 72.0374 66 67.0874 70.1437 59.7937C66.6187 64.3124 61.125 67.2187 54.9562 67.2187Z" fill="#D11133"/>
<path d="M62.625 36.6562L62.6062 45.3187L70.8375 48.0188L62.6062 50.6625L62.5875 59.3438L57.5062 52.3125L49.2562 54.9937L54.375 47.9812L49.2937 40.9688L57.525 43.65L62.625 36.6562Z" fill="#D11133"/>
</g>
<defs>
<clipPath id="clip0_117_101">
<rect width="96" height="96" fill="white"/>
</clipPath>
</defs>
</svg>
