<svg width="75" height="74" viewBox="0 0 75 74" fill="none" xmlns="http://www.w3.org/2000/svg">
<path d="M74.0129 58.4003C74.1699 59.6024 73.8035 60.6476 72.9155 61.5359L62.4897 71.883C62.0193 72.4056 61.4054 72.8502 60.6476 73.2156C59.8899 73.5815 59.1453 73.8167 58.4139 73.9211C58.3616 73.9211 58.2045 73.9345 57.9431 73.9607C57.6821 73.9867 57.3424 74 56.9244 74C55.9312 74 54.3241 73.8302 52.103 73.4903C49.882 73.1505 47.1646 72.3142 43.9509 70.9819C40.7364 69.6492 37.0914 67.65 33.0153 64.9851C28.9391 62.3202 24.6014 58.6617 20.0026 54.0105C16.3444 50.4046 13.3133 46.9554 10.9094 43.6632C8.50541 40.3707 6.5718 37.3266 5.10852 34.5307C3.64512 31.7348 2.54767 29.2002 1.81603 26.9269C1.08439 24.6536 0.587923 22.6938 0.326624 21.0476C0.0653247 19.4014 -0.0391948 18.108 0.0130649 17.1673C0.0653247 16.2267 0.0914546 15.7041 0.0914546 15.5995C0.195974 14.8679 0.431143 14.1232 0.796962 13.3654C1.16278 12.6077 1.60699 11.9936 2.12959 11.5233L12.5554 1.09746C13.2871 0.365819 14.1232 0 15.0639 0C15.7433 0 16.3443 0.195974 16.8669 0.587923C17.3895 0.979871 17.8337 1.46327 18.1995 2.03813L26.5872 17.9512C27.0575 18.7874 27.1882 19.7019 26.9791 20.6949C26.7701 21.6878 26.3259 22.524 25.6465 23.2033L21.8054 27.0444C21.7009 27.149 21.6094 27.3188 21.531 27.554C21.4526 27.7891 21.4135 27.9851 21.4135 28.1419C21.6225 29.2394 22.0928 30.4936 22.8245 31.9046C23.4516 33.1588 24.4184 34.6874 25.7249 36.4904C27.0314 38.2934 28.8866 40.3706 31.2906 42.7223C33.6422 45.1265 35.7326 46.9945 37.5617 48.3274C39.3904 49.6595 40.9196 50.6397 42.1477 51.2669C43.3758 51.894 44.3164 52.2729 44.9696 52.4031L45.9492 52.5992C46.0537 52.5992 46.2239 52.5599 46.4588 52.4816C46.694 52.4031 46.8638 52.3118 46.9685 52.2072L51.4366 47.6605C52.3778 46.8245 53.4747 46.4064 54.7291 46.4064C55.6177 46.4064 56.3229 46.5631 56.8455 46.8768H56.9237L72.0528 55.8132C73.1507 56.4931 73.8038 57.3551 74.0129 58.4003Z" fill="white"/>
</svg>
