<svg width="70" height="52" viewBox="0 0 70 52" fill="none" xmlns="http://www.w3.org/2000/svg">
<path d="M69.3334 43.3331C69.3334 44.8531 68.9058 46.2621 68.221 47.5019L46.3296 23.0085L67.9836 4.06317C68.826 5.39994 69.3334 6.97019 69.3334 8.66705V43.3331ZM34.6668 27.4558L64.7977 1.09199C63.5612 0.415105 62.1689 0 60.6669 0H8.66662C7.16281 0 5.77003 0.415105 4.53858 1.09199L34.6668 27.4558ZM43.067 25.8608L36.0925 31.9672C35.6846 32.3226 35.1766 32.5001 34.6668 32.5001C34.1566 32.5001 33.6486 32.3226 33.2407 31.9672L26.2646 25.8605L4.09632 50.667C5.42509 51.5006 6.98234 52 8.66648 52H60.6669C62.3508 52 63.9087 51.5006 65.2371 50.667L43.067 25.8608ZM1.35006 4.06303C0.507843 5.39979 0 6.97005 0 8.66705V43.3332C0 44.8532 0.425536 46.2623 1.113 47.502L23.0018 23.0044L1.35006 4.06303Z" fill="white"/>
</svg>
