<svg width="75" height="75" viewBox="0 0 75 75" fill="none" xmlns="http://www.w3.org/2000/svg">
<path d="M69.4499 0H5.55624C2.48748 0 0 2.41564 0 5.37806V69.6375C0 72.5906 2.48748 75 5.55624 75H69.4469C72.5188 75 75 72.5906 75 69.6375V5.37806C75 2.41564 72.5186 0 69.4499 0ZM22.7437 62.7781H11.4157V28.925H22.7438L22.7437 62.7781ZM17.0718 24.3062H16.9969C13.1937 24.3062 10.7343 21.6874 10.7343 18.4499C10.7343 15.1217 13.2687 12.5936 17.1437 12.5936C21.0218 12.5936 23.4062 15.1217 23.478 18.4499C23.4812 21.6874 21.0249 24.3062 17.0718 24.3062ZM63.5843 62.7781H52.2781V44.6719C52.2781 40.1218 50.6157 36.9938 46.5156 36.9938C43.3688 36.9938 41.5281 39.0999 40.7188 41.1437C40.4219 41.8374 40.3438 42.853 40.3438 43.8718V62.778H29.0093C29.0093 62.778 29.153 32.0936 29.0093 28.9248H40.3438V33.7249C41.8313 31.4217 44.5251 28.1249 50.5406 28.1249C58.003 28.1249 63.5843 32.9656 63.5843 43.3655V62.7781ZM40.2749 33.8343C40.2843 33.8 40.2998 33.7656 40.3405 33.7282V33.8343H40.2749Z" fill="white"/>
</svg>
