<svg width="600" height="600" viewBox="0 0 600 600" fill="none" xmlns="http://www.w3.org/2000/svg">
<path d="M453.684 104.916C394.284 70.9678 341.676 98.9158 315.36 128.676C289.044 158.436 269.436 188.496 236.4 194.016C203.364 199.536 153.24 185.532 115.896 211.836C78.5519 238.14 78.6959 308.004 108.264 347.616C137.832 387.228 214.332 406.164 302.592 418.896C334.261 423.693 366.58 421.899 397.524 413.628L437.616 399.072C457.2 390.132 473.616 380.064 487.512 371.892C508.656 359.412 516.108 328.992 520.152 306.708C526.022 273.315 525.513 239.112 518.652 205.908C509.796 164.076 489.6 125.424 453.684 104.916Z" fill="#C80036"/>
<path opacity="0.8" d="M453.684 104.916C394.284 70.9678 341.676 98.9158 315.36 128.676C289.044 158.436 269.436 188.496 236.4 194.016C203.364 199.536 153.24 185.532 115.896 211.836C78.5519 238.14 78.6959 308.004 108.264 347.616C137.832 387.228 214.332 406.164 302.592 418.896C334.261 423.693 366.58 421.899 397.524 413.628L437.616 399.072C457.2 390.132 473.616 380.064 487.512 371.892C508.656 359.412 516.108 328.992 520.152 306.708C526.022 273.315 525.513 239.112 518.652 205.908C509.796 164.076 489.6 125.424 453.684 104.916Z" fill="white"/>
<path opacity="0.8" d="M544.488 146.496C543.144 124.32 528 117.048 518.4 127.608C516.119 130.184 514.591 133.338 513.983 136.725C513.376 140.111 513.712 143.6 514.956 146.808C518.328 155.916 524.124 172.08 527.58 184.728C532.668 203.4 530.964 217.824 536.904 210.192C542.844 202.56 546.18 174.504 544.488 146.496Z" fill="#C80036"/>
<path opacity="0.8" d="M544.488 146.496C543.144 124.32 528 117.048 518.4 127.608C516.119 130.184 514.591 133.338 513.983 136.725C513.376 140.111 513.712 143.6 514.956 146.808C518.328 155.916 524.124 172.08 527.58 184.728C532.668 203.4 530.964 217.824 536.904 210.192C542.844 202.56 546.18 174.504 544.488 146.496Z" fill="white"/>
<path d="M288.216 143.1C297.54 141.408 309.42 119.34 324.696 110.004C339.972 100.668 326.4 93.8759 312 100.668C312 100.668 300.96 103.212 292.476 120.192C283.992 137.172 278.88 144.792 288.216 143.1Z" fill="#C80036"/>
<path opacity="0.8" d="M288.216 143.1C297.54 141.408 309.42 119.34 324.696 110.004C339.972 100.668 326.4 93.8759 312 100.668C312 100.668 300.96 103.212 292.476 120.192C283.992 137.172 278.88 144.792 288.216 143.1Z" fill="white"/>
<path d="M272.94 131.22C280.512 128.184 288.768 107.568 280.14 108.624C279.05 108.782 278.019 109.218 277.147 109.891C276.274 110.563 275.59 111.45 275.16 112.464C272.4 118.596 266.124 133.944 272.94 131.22Z" fill="#C80036"/>
<path opacity="0.8" d="M272.94 131.22C280.512 128.184 288.768 107.568 280.14 108.624C279.05 108.782 278.019 109.218 277.147 109.891C276.274 110.563 275.59 111.45 275.16 112.464C272.4 118.596 266.124 133.944 272.94 131.22Z" fill="white"/>
<path d="M319.176 515.028C453.262 515.028 561.96 510.988 561.96 506.004C561.96 501.02 453.262 496.98 319.176 496.98C185.09 496.98 76.3921 501.02 76.3921 506.004C76.3921 510.988 185.09 515.028 319.176 515.028Z" fill="#C80036"/>
<path opacity="0.8" d="M319.176 515.028C453.262 515.028 561.96 510.988 561.96 506.004C561.96 501.02 453.262 496.98 319.176 496.98C185.09 496.98 76.3921 501.02 76.3921 506.004C76.3921 510.988 185.09 515.028 319.176 515.028Z" fill="white"/>
<path d="M435.864 166.8C435.386 166.8 434.929 166.989 434.591 167.327C434.253 167.665 434.064 168.122 434.064 168.6V177.828H401.172V168.6C401.172 168.122 400.982 167.665 400.645 167.327C400.307 166.989 399.849 166.8 399.372 166.8C398.894 166.8 398.437 166.989 398.099 167.327C397.761 167.665 397.572 168.122 397.572 168.6V401.04C397.572 401.517 397.761 401.975 398.099 402.313C398.437 402.65 398.894 402.84 399.372 402.84C399.849 402.84 400.307 402.65 400.645 402.313C400.982 401.975 401.172 401.517 401.172 401.04V349.044H434.064V401.04C434.064 401.517 434.253 401.975 434.591 402.313C434.929 402.65 435.386 402.84 435.864 402.84C436.341 402.84 436.799 402.65 437.137 402.313C437.474 401.975 437.664 401.517 437.664 401.04V168.564C437.654 168.093 437.461 167.644 437.124 167.314C436.787 166.984 436.335 166.8 435.864 166.8ZM434.064 345.48H401.172V333.816H434.064V345.48ZM434.064 330.204H401.172V318.552H434.064V330.204ZM434.064 314.94H401.172V303.324H434.064V314.94ZM434.064 299.688H401.172V288.12H434.064V299.688ZM434.064 284.448H401.172V273.012H434.064V284.448ZM434.064 269.256H401.172V257.748H434.064V269.256ZM434.064 254.136H401.172V242.52H434.064V254.136ZM434.064 238.872H401.172V227.256H434.064V238.872ZM434.064 223.644H401.172V211.992H434.064V223.644ZM434.064 208.38H401.172V196.704H434.064V208.38ZM434.064 193.104H401.172V181.428H434.064V193.104Z" fill="white"/>
<path d="M124.296 354.192C124.296 354.192 151.236 317.316 138.096 308.592C124.428 299.58 118.008 326.88 115.116 340.284C108.948 368.892 110.688 374.964 114.828 368.676L124.296 354.192Z" fill="#C80036"/>
<path opacity="0.5" d="M124.296 354.192C124.296 354.192 151.236 317.316 138.096 308.592C124.428 299.58 118.008 326.88 115.116 340.284C108.948 368.892 110.688 374.964 114.828 368.676L124.296 354.192Z" fill="white"/>
<path d="M134.4 376.872C134.4 376.872 171.852 350.736 162.24 338.28C152.244 325.308 137.304 349.08 130.212 360.792C115.08 385.848 114.768 392.16 120.72 387.552L134.4 376.872Z" fill="#C80036"/>
<path opacity="0.5" d="M134.4 376.872C134.4 376.872 171.852 350.736 162.24 338.28C152.244 325.308 137.304 349.08 130.212 360.792C115.08 385.848 114.768 392.16 120.72 387.552L134.4 376.872Z" fill="white"/>
<path d="M135.216 407.184C135.216 407.184 167.616 392.628 162.084 381.708C156.324 370.344 141.456 386.328 134.34 394.272C119.136 411.24 117.984 416.016 123.204 413.364L135.216 407.184Z" fill="#C80036"/>
<path opacity="0.5" d="M135.216 407.184C135.216 407.184 167.616 392.628 162.084 381.708C156.324 370.344 141.456 386.328 134.34 394.272C119.136 411.24 117.984 416.016 123.204 413.364L135.216 407.184Z" fill="white"/>
<path d="M137.136 437.628C137.136 437.628 169.536 423.072 164.016 412.152C158.244 400.8 143.388 416.772 136.26 424.728C121.068 441.696 119.904 446.472 125.136 443.808L137.136 437.628Z" fill="#C80036"/>
<path opacity="0.5" d="M137.136 437.628C137.136 437.628 169.536 423.072 164.016 412.152C158.244 400.8 143.388 416.772 136.26 424.728C121.068 441.696 119.904 446.472 125.136 443.808L137.136 437.628Z" fill="white"/>
<path d="M99.132 369.6C99.132 369.6 63.516 341.004 54.264 353.724C44.664 366.924 71.616 374.64 84.876 378.144C113.172 385.62 119.316 384.144 113.22 379.728L99.132 369.6Z" fill="#C80036"/>
<path opacity="0.5" d="M99.132 369.6C99.132 369.6 63.516 341.004 54.264 353.724C44.664 366.924 71.616 374.64 84.876 378.144C113.172 385.62 119.316 384.144 113.22 379.728L99.132 369.6Z" fill="white"/>
<path d="M100.188 393.492C100.188 393.492 59.604 372.54 53.064 386.856C46.26 401.748 74.22 403.908 87.864 404.7C117.084 406.404 122.82 403.74 115.968 400.62L100.188 393.492Z" fill="#C80036"/>
<path opacity="0.5" d="M100.188 393.492C100.188 393.492 59.604 372.54 53.064 386.856C46.26 401.748 74.22 403.908 87.864 404.7C117.084 406.404 122.82 403.74 115.968 400.62L100.188 393.492Z" fill="white"/>
<path d="M105.096 420.276C105.096 420.276 70.2959 403.476 65.0999 415.752C59.6879 428.508 83.3759 429.684 94.9799 430.032C119.724 430.8 124.512 428.4 118.644 426L105.096 420.276Z" fill="#C80036"/>
<path opacity="0.5" d="M105.096 420.276C105.096 420.276 70.2959 403.476 65.0999 415.752C59.6879 428.508 83.3759 429.684 94.9799 430.032C119.724 430.8 124.512 428.4 118.644 426L105.096 420.276Z" fill="white"/>
<path d="M106.8 441.912C106.8 441.912 73.968 421.512 67.5 433.164C60.768 445.272 84.204 448.956 95.7 450.54C120.228 453.924 125.232 452.064 119.7 448.98L106.8 441.912Z" fill="#C80036"/>
<path opacity="0.5" d="M106.8 441.912C106.8 441.912 73.968 421.512 67.5 433.164C60.768 445.272 84.204 448.956 95.7 450.54C120.228 453.924 125.232 452.064 119.7 448.98L106.8 441.912Z" fill="white"/>
<path d="M103.692 333.372C103.692 333.372 97.5241 279.816 77.2921 285.288C56.2801 291 73.8721 318.096 82.8001 331.2C101.772 359.088 108.756 362.16 107.256 353.448L103.692 333.372Z" fill="#C80036"/>
<path opacity="0.5" d="M103.692 333.372C103.692 333.372 97.5241 279.816 77.2921 285.288C56.2801 291 73.8721 318.096 82.8001 331.2C101.772 359.088 108.756 362.16 107.256 353.448L103.692 333.372Z" fill="white"/>
<path d="M81.4321 304.8C81.4321 304.8 112.224 362.496 117 389.28C122.496 420.048 123.384 454.416 119.592 481.344" stroke="#C80036" stroke-width="1.25197" stroke-linecap="round" stroke-linejoin="round"/>
<path d="M112.14 371.46L127.224 325.26" stroke="#C80036" stroke-width="1.25197" stroke-linecap="round" stroke-linejoin="round"/>
<path d="M117 389.28L145.392 353.58" stroke="#C80036" stroke-width="1.25197" stroke-linecap="round" stroke-linejoin="round"/>
<path d="M115.188 382.788L74.0762 365.52" stroke="#C80036" stroke-width="1.25197" stroke-linecap="round" stroke-linejoin="round"/>
<path d="M120.564 413.46L151.476 389.772" stroke="#C80036" stroke-width="1.25197" stroke-linecap="round" stroke-linejoin="round"/>
<path d="M118.92 403.296L86.6279 396.576" stroke="#C80036" stroke-width="1.25197" stroke-linecap="round" stroke-linejoin="round"/>
<path d="M120.468 428.028L95.46 424.068" stroke="#C80036" stroke-width="1.25197" stroke-linecap="round" stroke-linejoin="round"/>
<path d="M122.58 444.036L139.404 428.964" stroke="#C80036" stroke-width="1.25197" stroke-linecap="round" stroke-linejoin="round"/>
<path d="M122.244 450.816L93.5039 443.592" stroke="#C80036" stroke-width="1.25197" stroke-linecap="round" stroke-linejoin="round"/>
<path d="M100.956 459.612H134.928V466.644H131.964L125.832 505.008H110.052L103.92 466.644H100.956V459.612Z" fill="#C80036"/>
<path opacity="0.5" d="M100.956 459.612H134.928V466.644H131.964L125.832 505.008H110.052L103.92 466.644H100.956V459.612Z" fill="white"/>
<path d="M156.9 97.3442C155.427 96.0282 153.629 95.1304 151.691 94.7443C149.754 94.3581 147.749 94.4976 145.884 95.1482C139.284 97.3442 132.96 106.884 134.556 114.96C135.672 120.552 140.856 128.796 142.428 131.94C144 135.084 141.792 140.4 136.8 151.44C131.808 162.48 129.876 172.836 144.348 181.956C158.82 191.076 175.2 176.604 183.6 166.224C192 155.844 177.3 131.94 176.04 121.824C174.78 111.708 172.62 92.3162 156.9 97.3442Z" fill="#263238"/>
<path d="M190.92 166.92C187.319 170.523 182.968 173.288 178.177 175.018C173.386 176.748 168.272 177.4 163.2 176.928L159.732 191.388L166.332 224.4L209.424 202.068L199.668 176.868L190.92 166.92Z" fill="#C80036" stroke="#263238" stroke-linecap="round" stroke-linejoin="round"/>
<path opacity="0.3" d="M190.92 166.92C187.319 170.523 182.968 173.288 178.177 175.018C173.386 176.748 168.272 177.4 163.2 176.928L159.732 191.388L166.332 224.4L209.424 202.068L199.668 176.868L190.92 166.92Z" fill="#263238"/>
<path d="M190.92 166.92L184.32 123.192L164.76 127.2L155.004 133.488C155.004 133.488 143.364 142.62 143.364 143.556C143.364 144.492 163.056 177.444 163.056 177.444C168.179 177.748 173.309 176.967 178.11 175.154C182.911 173.34 187.276 170.535 190.92 166.92Z" fill="white"/>
<path d="M190.92 166.92L184.32 123.192L164.76 127.2L155.004 133.488C155.004 133.488 143.364 142.62 143.364 143.556C143.364 144.492 163.056 177.444 163.056 177.444C168.179 177.748 173.309 176.967 178.11 175.154C182.911 173.34 187.276 170.535 190.92 166.92Z" stroke="#263238" stroke-linecap="round" stroke-linejoin="round"/>
<path opacity="0.5" d="M164.676 165.048C164.676 165.048 178.464 154.824 177.192 157.848C175.92 160.872 166.392 168.42 163.836 168.648C161.28 168.876 164.676 165.048 164.676 165.048Z" fill="#C80036"/>
<path d="M165.096 145.632L165.636 146.196L168.996 149.748L169.86 163.392L173.976 162.744L170.724 149.964L175.932 160.788L180.264 156.456L170.952 148.008L170.724 141.3L165.96 138.912" fill="#263238"/>
<path d="M157.524 129.432C157.524 129.432 153.432 131.316 153.432 135.084C153.432 138.852 157.86 147.816 160.632 149.7C163.404 151.584 168.156 142.956 168.156 142.956C168.156 142.956 175.356 146.412 177.276 143.268C179.196 140.124 172.872 129.744 168.792 126.912C164.712 124.08 157.524 129.432 157.524 129.432Z" fill="white" stroke="#263238" stroke-linecap="round" stroke-linejoin="round"/>
<path d="M154.068 125.652C155.193 128.527 156.139 131.468 156.9 134.46C157.524 137.604 166.02 142.956 166.956 143.268C167.892 143.58 168.528 133.2 168.528 133.2L166.02 120.936L154.068 125.652Z" fill="white"/>
<mask id="mask0_191_4" style="mask-type:luminance" maskUnits="userSpaceOnUse" x="154" y="120" width="15" height="24">
<path d="M154.068 125.652C155.193 128.527 156.139 131.468 156.9 134.46C157.524 137.604 166.02 142.956 166.956 143.268C167.892 143.58 168.528 133.2 168.528 133.2L166.02 120.936L154.068 125.652Z" fill="white"/>
</mask>
<g mask="url(#mask0_191_4)">
<g style="mix-blend-mode:multiply" opacity="0.5">
<path d="M166.284 122.244C165.756 122.096 165.219 121.984 164.676 121.908L156 124.968L154.86 127.944C155.436 129.552 156.168 131.712 156.612 133.464C158.034 134.611 159.753 135.331 161.568 135.54C164.172 135.72 166.464 133.704 168.084 131.232L166.284 122.244Z" fill="#C80036"/>
</g>
</g>
<path d="M154.068 125.652C155.193 128.527 156.139 131.468 156.9 134.46C157.524 137.604 166.02 142.956 166.956 143.268C167.892 143.58 168.528 133.2 168.528 133.2L166.02 120.936L154.068 125.652Z" stroke="#263238" stroke-linecap="round" stroke-linejoin="round"/>
<path d="M148.404 120.3C148.404 120.3 144.936 117.48 144.936 120.3C144.936 123.12 148.092 124.704 150.6 124.704" fill="white"/>
<path d="M148.404 120.3C148.404 120.3 144.936 117.48 144.936 120.3C144.936 123.12 148.092 124.704 150.6 124.704" stroke="#263238" stroke-linecap="round" stroke-linejoin="round"/>
<path d="M166.956 111.18C166.956 111.18 169.164 107.724 169.788 111.504C170.075 113.965 169.4 116.442 167.904 118.416L166.956 111.18Z" fill="white" stroke="#263238" stroke-linecap="round" stroke-linejoin="round"/>
<g opacity="0.5">
<path d="M148.404 120.3C148.404 120.3 144.936 117.48 144.936 120.3C144.936 123.12 148.092 124.704 150.6 124.704" fill="#C80036"/>
<path d="M148.404 120.3C148.404 120.3 144.936 117.48 144.936 120.3C144.936 123.12 148.092 124.704 150.6 124.704" stroke="#263238" stroke-linecap="round" stroke-linejoin="round"/>
</g>
<path opacity="0.5" d="M166.956 111.18C166.956 111.18 169.164 107.724 169.788 111.504C170.075 113.965 169.4 116.442 167.904 118.416L166.956 111.18Z" fill="#C80036" stroke="#263238" stroke-linecap="round" stroke-linejoin="round"/>
<path d="M144.504 111.204C144.504 111.204 147.204 122.448 153 128.004C158.796 133.56 165 133.608 167.148 123.708C168.912 115.548 164.532 104.664 164.532 104.664C164.532 104.664 150.396 93.0241 144.504 111.204Z" fill="white"/>
<mask id="mask1_191_4" style="mask-type:luminance" maskUnits="userSpaceOnUse" x="144" y="100" width="24" height="32">
<path d="M144.504 111.204C144.504 111.204 147.204 122.448 153 128.004C158.796 133.56 165 133.608 167.148 123.708C168.912 115.548 164.532 104.664 164.532 104.664C164.532 104.664 150.396 93.0241 144.504 111.204Z" fill="white"/>
</mask>
<g mask="url(#mask1_191_4)">
<g style="mix-blend-mode:multiply" opacity="0.5">
<path d="M154.572 101.004L156.768 106.524C156.768 106.524 160.224 105.756 162.168 109.932C164.112 114.108 166.068 120.228 164.952 124.968C163.884 129.48 161.352 130.968 157.452 131.076C161.7 132.888 165.552 131.076 167.148 123.684C168.912 115.524 164.532 104.64 164.532 104.64C164.532 104.64 159.744 100.716 154.572 101.004Z" fill="#C80036"/>
</g>
</g>
<path d="M144.504 111.204C144.504 111.204 147.204 122.448 153 128.004C158.796 133.56 165 133.608 167.148 123.708C168.912 115.548 164.532 104.664 164.532 104.664C164.532 104.664 150.396 93.0241 144.504 111.204Z" stroke="#263238" stroke-linecap="round" stroke-linejoin="round"/>
<path d="M155.232 117.144C155.568 117.78 155.508 118.464 155.1 118.68C154.692 118.896 154.092 118.548 153.768 117.912C153.444 117.276 153.492 116.604 153.9 116.388C154.308 116.172 154.908 116.52 155.232 117.144Z" fill="#263238"/>
<path d="M161.496 115.2C161.736 115.872 161.58 116.544 161.148 116.688C160.716 116.832 160.164 116.424 159.948 115.752C159.732 115.08 159.864 114.408 160.296 114.264C160.728 114.12 161.256 114.552 161.496 115.2Z" fill="#263238"/>
<path d="M161.928 111.6C161.438 111.271 160.853 111.111 160.264 111.146C159.674 111.18 159.112 111.407 158.664 111.792C156.936 113.136 160.2 119.868 160.2 119.868C160.2 119.868 160.26 121.992 157.536 121.008" stroke="#263238" stroke-width="0.5" stroke-linecap="round" stroke-linejoin="round"/>
<path d="M161.928 123.192C161.741 123.634 161.454 124.027 161.089 124.339C160.725 124.651 160.293 124.874 159.827 124.99C159.362 125.106 158.876 125.113 158.407 125.009C157.939 124.906 157.501 124.694 157.128 124.392" stroke="#263238" stroke-width="0.5" stroke-linecap="round" stroke-linejoin="round"/>
<path d="M154.62 113.388C154.62 113.388 151.548 110.496 150.204 116.076" stroke="#263238" stroke-width="0.5" stroke-linecap="round" stroke-linejoin="round"/>
<path d="M164.712 101.1C161.34 98.1721 158.616 98.2081 157.428 98.5921C156.316 97.8982 155.052 97.4863 153.744 97.3921C144.312 96.1321 143.052 103.392 143.052 110.292C143.052 117.192 137.052 125.388 141.168 126.336C142.295 126.606 143.48 126.471 144.516 125.952C145.552 125.434 146.373 124.567 146.832 123.504C146.832 123.504 151.236 116.304 151.236 111.228C151.236 106.152 156.72 106.632 156.72 106.632C156.957 106.283 157.266 105.988 157.628 105.77C157.989 105.551 158.393 105.413 158.812 105.365C159.232 105.317 159.657 105.361 160.058 105.492C160.459 105.624 160.827 105.841 161.136 106.128C163.632 108.264 163.92 110.772 165.936 111.42C167.952 112.068 171.324 108.828 171.324 108.828C169.403 106.023 167.187 103.432 164.712 101.1Z" fill="#263238"/>
<path d="M156.984 102.984C156.984 102.984 153.192 99.9362 149.784 103.356C146.376 106.776 146.748 113.244 145.608 117.432C144.468 121.62 141.42 122.376 141.42 122.376" stroke="white" stroke-width="0.5" stroke-linecap="round" stroke-linejoin="round"/>
<path d="M154.332 101.844C154.332 101.844 150.24 97.788 145.092 102.924C141.168 106.86 142.92 109.44 142.152 115.908" stroke="white" stroke-width="0.5" stroke-linecap="round" stroke-linejoin="round"/>
<path d="M158.892 101.076C158.892 101.076 166.092 97.656 169.164 106.404" stroke="white" stroke-width="0.5" stroke-linecap="round" stroke-linejoin="round"/>
<path d="M143.364 143.58L132.48 187.38L164.4 196.428L165.972 190.764L145.008 181.092L152.124 155.892C152.124 155.892 151.188 151.176 146.124 145.836" fill="white"/>
<mask id="mask2_191_4" style="mask-type:luminance" maskUnits="userSpaceOnUse" x="132" y="143" width="34" height="54">
<path d="M143.364 143.58L132.48 187.38L164.4 196.428L165.972 190.764L145.008 181.092L152.124 155.892C152.124 155.892 151.188 151.176 146.124 145.836" fill="white"/>
</mask>
<g mask="url(#mask2_191_4)">
<g style="mix-blend-mode:multiply" opacity="0.5">
<path d="M166.02 190.8L145.056 181.128L152.172 155.928C151.615 153.836 150.71 151.852 149.496 150.06L148.812 149.544V156.504C148.812 160.956 143.244 175.152 141.288 178.488C139.332 181.824 136.284 186 136.284 186L142.404 183.216L165.6 192.504L166.02 190.8Z" fill="#C80036"/>
</g>
</g>
<path d="M143.364 143.58L132.48 187.38L164.4 196.428L165.972 190.764L145.008 181.092L152.124 155.892C152.124 155.892 151.188 151.176 146.124 145.836" stroke="#263238" stroke-linecap="round" stroke-linejoin="round"/>
<path d="M233.112 156.732L208.944 151.656L184.26 123.132L187.908 146.076L203.052 160.5L233.484 161.892L233.112 156.732Z" fill="white"/>
<mask id="mask3_191_4" style="mask-type:luminance" maskUnits="userSpaceOnUse" x="184" y="123" width="50" height="39">
<path d="M233.112 156.732L208.944 151.656L184.26 123.132L187.908 146.076L203.052 160.5L233.484 161.892L233.112 156.732Z" fill="white"/>
</mask>
<g mask="url(#mask3_191_4)">
<g style="mix-blend-mode:multiply" opacity="0.5">
<path d="M184.26 123.132L187.2 141.444L189.072 147.168L189.312 147.384C190.02 146.652 194.016 142.5 195.036 142.5C196.056 142.5 207.564 152.52 205.896 153.3L204.216 154.128L232.884 158.856L233.088 156.66L208.968 151.596L184.26 123.132Z" fill="#C80036"/>
</g>
</g>
<path d="M233.112 156.732L208.944 151.656L184.26 123.132L187.908 146.076L203.052 160.5L233.484 161.892L233.112 156.732Z" stroke="#263238" stroke-linecap="round" stroke-linejoin="round"/>
<path d="M458.724 399.6L150.96 354.504C149.981 354.359 149.101 353.831 148.511 353.037C147.922 352.243 147.672 351.247 147.816 350.268L173.448 175.416C173.518 174.932 173.684 174.467 173.934 174.047C174.185 173.627 174.516 173.26 174.908 172.968C175.3 172.676 175.746 172.464 176.221 172.345C176.695 172.226 177.188 172.201 177.672 172.272L183.504 173.124C184.243 173.235 184.998 173.12 185.67 172.795C186.342 172.469 186.901 171.948 187.272 171.3L195.012 157.92C195.247 157.5 195.565 157.133 195.948 156.84C197.76 155.53 200.012 154.979 202.224 155.304L279.804 166.68C281.544 166.93 283.165 167.709 284.448 168.912C284.79 169.255 285.059 169.663 285.24 170.112L292.14 187.2C292.382 187.805 292.779 188.335 293.291 188.737C293.803 189.139 294.411 189.4 295.056 189.492L485.436 217.404C486.414 217.547 487.296 218.072 487.887 218.863C488.479 219.655 488.733 220.65 488.592 221.628L462.96 396.468C462.812 397.445 462.283 398.322 461.489 398.909C460.695 399.496 459.701 399.745 458.724 399.6Z" fill="#263238" stroke="#263238" stroke-miterlimit="10"/>
<path d="M462 398.748H156.948C156.062 398.748 155.185 398.574 154.367 398.235C153.549 397.896 152.806 397.399 152.179 396.773C151.553 396.146 151.056 395.403 150.717 394.585C150.379 393.767 150.204 392.89 150.204 392.004V221.316C150.204 219.527 150.915 217.812 152.179 216.547C153.444 215.283 155.159 214.572 156.948 214.572H157.776C159.126 214.569 160.445 214.164 161.563 213.407C162.681 212.65 163.548 211.577 164.052 210.324L168.696 198.648C169.215 197.3 170.164 196.162 171.396 195.408C172.719 194.627 174.227 194.212 175.764 194.208H254.172C255.226 194.207 256.271 194.398 257.256 194.772C258.625 195.324 259.766 196.322 260.496 197.604L268.476 211.2C269.071 212.216 269.921 213.058 270.942 213.643C271.963 214.228 273.119 214.536 274.296 214.536H462C463.789 214.536 465.504 215.247 466.769 216.511C468.034 217.776 468.744 219.491 468.744 221.28V392.004C468.744 392.89 468.57 393.767 468.231 394.585C467.892 395.403 467.395 396.146 466.769 396.773C466.143 397.399 465.399 397.896 464.581 398.235C463.763 398.574 462.886 398.748 462 398.748Z" fill="#C80036"/>
<mask id="mask4_191_4" style="mask-type:luminance" maskUnits="userSpaceOnUse" x="150" y="194" width="319" height="205">
<path d="M462 398.748H156.948C156.062 398.748 155.185 398.574 154.367 398.235C153.549 397.896 152.806 397.399 152.179 396.773C151.553 396.146 151.056 395.403 150.717 394.585C150.379 393.767 150.204 392.89 150.204 392.004V221.316C150.204 219.527 150.915 217.812 152.179 216.547C153.444 215.283 155.159 214.572 156.948 214.572H157.776C159.126 214.569 160.445 214.164 161.563 213.407C162.681 212.65 163.548 211.577 164.052 210.324L168.696 198.648C169.215 197.3 170.164 196.162 171.396 195.408C172.719 194.627 174.227 194.212 175.764 194.208H254.172C255.226 194.207 256.271 194.398 257.256 194.772C258.625 195.324 259.766 196.322 260.496 197.604L268.476 211.2C269.071 212.216 269.921 213.058 270.942 213.643C271.963 214.228 273.119 214.536 274.296 214.536H462C463.789 214.536 465.504 215.247 466.769 216.511C468.034 217.776 468.744 219.491 468.744 221.28V392.004C468.744 392.89 468.57 393.767 468.231 394.585C467.892 395.403 467.395 396.146 466.769 396.773C466.143 397.399 465.399 397.896 464.581 398.235C463.763 398.574 462.886 398.748 462 398.748Z" fill="white"/>
</mask>
<g mask="url(#mask4_191_4)">
<path opacity="0.1" d="M462 398.748H156.948C156.062 398.748 155.185 398.574 154.367 398.235C153.549 397.896 152.806 397.399 152.179 396.773C151.553 396.146 151.056 395.403 150.717 394.585C150.379 393.767 150.204 392.89 150.204 392.004V221.316C150.204 219.527 150.915 217.812 152.179 216.547C153.444 215.283 155.159 214.572 156.948 214.572H157.776C159.126 214.569 160.445 214.164 161.563 213.407C162.681 212.65 163.548 211.577 164.052 210.324L168.696 198.648C169.215 197.3 170.164 196.162 171.396 195.408C172.719 194.627 174.227 194.212 175.764 194.208H254.172C255.226 194.207 256.271 194.398 257.256 194.772C258.625 195.324 259.766 196.322 260.496 197.604L268.476 211.2C269.071 212.216 269.921 213.058 270.942 213.643C271.963 214.228 273.119 214.536 274.296 214.536H462C463.789 214.536 465.504 215.247 466.769 216.511C468.034 217.776 468.744 219.491 468.744 221.28V392.004C468.744 392.89 468.57 393.767 468.231 394.585C467.892 395.403 467.395 396.146 466.769 396.773C466.143 397.399 465.399 397.896 464.581 398.235C463.763 398.574 462.886 398.748 462 398.748Z" fill="#263238"/>
</g>
<path d="M462 398.748H156.948C156.062 398.748 155.185 398.574 154.367 398.235C153.549 397.896 152.806 397.399 152.179 396.773C151.553 396.147 151.056 395.403 150.717 394.585C150.379 393.767 150.204 392.89 150.204 392.004V221.316C150.204 219.527 150.915 217.812 152.179 216.547C153.444 215.283 155.159 214.572 156.948 214.572H157.776C159.126 214.569 160.445 214.164 161.563 213.407C162.681 212.65 163.548 211.577 164.052 210.324L168.696 198.648C169.215 197.3 170.164 196.162 171.396 195.408C172.719 194.627 174.227 194.212 175.764 194.208H254.172C255.226 194.207 256.271 194.398 257.256 194.772C258.625 195.324 259.766 196.322 260.496 197.604L268.476 211.2C269.071 212.216 269.921 213.058 270.942 213.643C271.963 214.228 273.119 214.536 274.296 214.536H462C463.789 214.536 465.504 215.247 466.769 216.511C468.034 217.776 468.744 219.491 468.744 221.28V392.004C468.744 392.89 468.57 393.767 468.231 394.585C467.892 395.403 467.395 396.147 466.769 396.773C466.143 397.399 465.399 397.896 464.581 398.235C463.763 398.574 462.886 398.748 462 398.748Z" stroke="#263238" stroke-miterlimit="10"/>
<path d="M236.4 213.996H187.584C186.419 213.996 185.302 213.533 184.478 212.71C183.655 211.886 183.192 210.769 183.192 209.604C183.19 209.026 183.303 208.454 183.523 207.92C183.743 207.386 184.066 206.9 184.474 206.491C184.882 206.082 185.367 205.757 185.9 205.536C186.434 205.314 187.006 205.2 187.584 205.2H236.4C237.568 205.2 238.688 205.664 239.514 206.49C240.34 207.316 240.804 208.436 240.804 209.604C240.804 210.182 240.69 210.754 240.468 211.288C240.247 211.821 239.922 212.306 239.513 212.714C239.104 213.122 238.619 213.445 238.084 213.665C237.55 213.885 236.978 213.998 236.4 213.996Z" fill="white"/>
<path d="M462 428.532H156.948C155.159 428.532 153.444 427.822 152.179 426.557C150.915 425.292 150.204 423.577 150.204 421.788V251.1C150.204 249.312 150.915 247.596 152.179 246.332C153.444 245.067 155.159 244.356 156.948 244.356H157.776C159.127 244.355 160.446 243.95 161.564 243.193C162.683 242.436 163.549 241.362 164.052 240.108L168.696 228.444C169.212 227.095 170.162 225.955 171.396 225.204C172.717 224.418 174.227 224.004 175.764 224.004H254.172C255.226 224.003 256.271 224.194 257.256 224.568C258.628 225.12 259.771 226.124 260.496 227.412L268.476 241.02C269.071 242.036 269.921 242.878 270.942 243.463C271.963 244.049 273.119 244.356 274.296 244.356H462C463.789 244.356 465.504 245.067 466.769 246.332C468.034 247.596 468.744 249.312 468.744 251.1V421.788C468.744 423.577 468.034 425.292 466.769 426.557C465.504 427.822 463.789 428.532 462 428.532Z" fill="#263238" stroke="#263238" stroke-miterlimit="10"/>
<path d="M259.788 178.8L211.356 172.8C210.199 172.653 209.148 172.055 208.43 171.135C207.713 170.216 207.389 169.05 207.528 167.892C207.675 166.734 208.276 165.681 209.198 164.966C210.121 164.25 211.29 163.93 212.448 164.076L260.868 170.076C262.026 170.22 263.08 170.818 263.798 171.738C264.516 172.658 264.839 173.826 264.696 174.984C264.625 175.557 264.441 176.111 264.156 176.613C263.871 177.115 263.489 177.555 263.034 177.91C262.578 178.264 262.056 178.525 261.499 178.678C260.943 178.831 260.361 178.872 259.788 178.8Z" fill="#C80036"/>
<path opacity="0.5" d="M259.788 178.8L211.356 172.8C210.199 172.653 209.148 172.055 208.43 171.135C207.713 170.216 207.389 169.05 207.528 167.892C207.675 166.734 208.276 165.681 209.198 164.966C210.121 164.25 211.29 163.93 212.448 164.076L260.868 170.076C262.026 170.22 263.08 170.818 263.798 171.738C264.516 172.658 264.839 173.826 264.696 174.984C264.625 175.557 264.441 176.111 264.156 176.613C263.871 177.115 263.489 177.555 263.034 177.91C262.578 178.264 262.056 178.525 261.499 178.678C260.943 178.831 260.361 178.872 259.788 178.8Z" fill="white"/>
<path d="M236.4 243.792H187.584C187.006 243.792 186.434 243.678 185.9 243.457C185.367 243.235 184.882 242.911 184.474 242.502C184.066 242.093 183.743 241.607 183.523 241.073C183.303 240.539 183.19 239.966 183.192 239.388C183.192 238.222 183.654 237.104 184.478 236.279C185.301 235.453 186.418 234.988 187.584 234.984H236.4C237.568 234.984 238.688 235.448 239.514 236.274C240.34 237.1 240.804 238.22 240.804 239.388C240.804 240.556 240.34 241.677 239.514 242.502C238.688 243.328 237.568 243.792 236.4 243.792Z" fill="#C80036"/>
<path opacity="0.5" d="M236.4 243.792H187.584C187.006 243.792 186.434 243.678 185.9 243.457C185.367 243.235 184.882 242.911 184.474 242.502C184.066 242.093 183.743 241.607 183.523 241.073C183.303 240.539 183.19 239.966 183.192 239.388C183.192 238.222 183.654 237.104 184.478 236.279C185.301 235.453 186.418 234.988 187.584 234.984H236.4C237.568 234.984 238.688 235.448 239.514 236.274C240.34 237.1 240.804 238.22 240.804 239.388C240.804 240.556 240.34 241.677 239.514 242.502C238.688 243.328 237.568 243.792 236.4 243.792Z" fill="white"/>
<path d="M471.972 295.692H146.964C143.471 295.692 140.64 298.524 140.64 302.016V498.684C140.64 502.177 143.471 505.008 146.964 505.008H471.972C475.465 505.008 478.296 502.177 478.296 498.684V302.016C478.296 298.524 475.465 295.692 471.972 295.692Z" fill="white"/>
<mask id="mask5_191_4" style="mask-type:luminance" maskUnits="userSpaceOnUse" x="140" y="295" width="339" height="211">
<path d="M471.972 295.692H146.964C143.471 295.692 140.64 298.524 140.64 302.016V498.684C140.64 502.177 143.471 505.008 146.964 505.008H471.972C475.465 505.008 478.296 502.177 478.296 498.684V302.016C478.296 298.524 475.465 295.692 471.972 295.692Z" fill="white"/>
</mask>
<g mask="url(#mask5_191_4)">
<g style="mix-blend-mode:multiply">
<path d="M478.296 352.032C440.868 387.013 398.343 416.105 352.176 438.312C283.956 470.94 205.98 493.428 160.548 505.008H471.96C472.792 505.01 473.616 504.847 474.384 504.53C475.153 504.213 475.851 503.748 476.44 503.16C477.028 502.573 477.495 501.875 477.814 501.107C478.132 500.339 478.296 499.516 478.296 498.684V352.032Z" fill="#C80036"/>
</g>
<path opacity="0.2" d="M478.296 352.032C440.868 387.013 398.343 416.105 352.176 438.312C283.956 470.94 205.98 493.428 160.548 505.008H471.96C472.792 505.01 473.616 504.847 474.384 504.53C475.153 504.213 475.851 503.748 476.44 503.16C477.028 502.573 477.495 501.875 477.814 501.107C478.132 500.339 478.296 499.516 478.296 498.684V352.032Z" fill="white"/>
</g>
<path d="M471.972 295.692H146.964C143.471 295.692 140.64 298.524 140.64 302.016V498.684C140.64 502.177 143.471 505.008 146.964 505.008H471.972C475.465 505.008 478.296 502.177 478.296 498.684V302.016C478.296 298.524 475.465 295.692 471.972 295.692Z" stroke="#263238" stroke-miterlimit="10"/>
<path d="M145.524 314.076V305.676C145.527 303.998 146.196 302.389 147.384 301.204C148.572 300.018 150.182 299.352 151.86 299.352H165.6" stroke="#263238" stroke-miterlimit="10"/>
<path d="M145.524 441.648V324.312" stroke="#263238" stroke-miterlimit="10"/>
<path d="M473.4 481.68V494.964C473.402 495.796 473.239 496.619 472.922 497.388C472.605 498.157 472.139 498.855 471.552 499.444C470.965 500.032 470.267 500.499 469.499 500.818C468.731 501.136 467.908 501.3 467.076 501.3H456" stroke="#263238" stroke-miterlimit="10"/>
<path d="M473.4 311.124V471.804" stroke="#263238" stroke-miterlimit="10"/>
<path d="M359.664 372.228H259.26C257.451 372.228 255.984 373.695 255.984 375.504V426.732C255.984 428.541 257.451 430.008 259.26 430.008H359.664C361.473 430.008 362.94 428.541 362.94 426.732V375.504C362.94 373.695 361.473 372.228 359.664 372.228Z" fill="#263238" stroke="#263238" stroke-miterlimit="10"/>
<path d="M359.664 372.228H259.26C257.451 372.228 255.984 373.695 255.984 375.504V386.52C255.984 388.329 257.451 389.796 259.26 389.796H359.664C361.473 389.796 362.94 388.329 362.94 386.52V375.504C362.94 373.695 361.473 372.228 359.664 372.228Z" fill="white" stroke="#263238" stroke-miterlimit="10"/>
<path d="M164.4 196.428L166.596 200.52L171.264 203.88C171.557 204.096 171.909 204.218 172.273 204.231C172.637 204.244 172.996 204.147 173.304 203.952L173.712 203.688C174.009 203.508 174.23 203.226 174.333 202.895C174.437 202.564 174.417 202.206 174.276 201.888L171.624 195.792L173.412 197.184C173.696 197.403 174.054 197.503 174.41 197.463C174.766 197.422 175.092 197.245 175.32 196.968C175.518 196.722 175.625 196.415 175.625 196.098C175.625 195.782 175.518 195.475 175.32 195.228L171.156 189.96L165.948 190.764L164.4 196.428Z" fill="white" stroke="#263238" stroke-miterlimit="10"/>
<path d="M173.76 203.688L169.584 198.204" stroke="#263238" stroke-width="0.5" stroke-linecap="round" stroke-linejoin="round"/>
<path d="M171.312 203.88L168.036 199.536" stroke="#263238" stroke-width="0.5" stroke-linecap="round" stroke-linejoin="round"/>
<path d="M233.112 156.732L239.64 157.116L247.584 162.192C247.584 162.192 248.028 163.74 246.924 163.956C245.82 164.172 239.856 161.976 239.856 161.976L233.484 161.892L233.112 156.732Z" fill="white" stroke="#263238" stroke-miterlimit="10"/>
<path d="M233.448 161.088L240.3 164.184C240.3 164.184 241.404 162.636 239.856 161.976L237.6 160.428" fill="white"/>
<path d="M233.448 161.088L240.3 164.184C240.3 164.184 241.404 162.636 239.856 161.976L237.6 160.428" stroke="#263238" stroke-linejoin="round"/>
<path d="M475.524 278.112L472.692 269.64L469.512 265.284C469.46 265.204 469.383 265.144 469.293 265.113C469.203 265.082 469.105 265.081 469.015 265.112C468.924 265.142 468.846 265.201 468.793 265.28C468.74 265.358 468.714 265.453 468.72 265.548V278.1L471.12 281.256L475.524 278.112Z" fill="white"/>
<path d="M521.676 315.156L497.916 315.996C497.039 316.026 496.172 315.807 495.416 315.363C494.659 314.919 494.045 314.268 493.644 313.488L475.524 278.112C475.524 278.112 471.444 280.32 471.132 281.256C470.82 282.192 484.548 316.62 488.76 327.192C489.114 328.079 489.735 328.835 490.537 329.355C491.338 329.875 492.281 330.134 493.236 330.096L519.792 328.968" fill="white"/>
<path d="M521.676 315.156L497.916 315.996C497.039 316.026 496.172 315.807 495.416 315.363C494.659 314.919 494.045 314.268 493.644 313.488L475.524 278.112C475.524 278.112 471.444 280.32 471.132 281.256C470.82 282.192 484.548 316.62 488.76 327.192C489.114 328.079 489.735 328.835 490.537 329.355C491.338 329.875 492.281 330.134 493.236 330.096L519.792 328.968" stroke="#263238" stroke-miterlimit="10"/>
<path d="M477.264 282.516L473.544 284.052" stroke="#263238" stroke-width="0.75" stroke-miterlimit="10"/>
<g opacity="0.5">
<path d="M521.676 315.156L497.916 315.996C497.039 316.026 496.172 315.807 495.416 315.363C494.659 314.919 494.045 314.268 493.644 313.488L475.524 278.112C475.524 278.112 471.444 280.32 471.132 281.256C470.82 282.192 484.548 316.62 488.76 327.192C489.114 328.079 489.735 328.835 490.537 329.355C491.338 329.875 492.281 330.134 493.236 330.096L519.792 328.968" fill="#C80036"/>
<path d="M521.676 315.156L497.916 315.996C497.039 316.026 496.172 315.807 495.416 315.363C494.659 314.919 494.045 314.268 493.644 313.488L475.524 278.112C475.524 278.112 471.444 280.32 471.132 281.256C470.82 282.192 484.548 316.62 488.76 327.192C489.114 328.079 489.735 328.835 490.537 329.355C491.338 329.875 492.281 330.134 493.236 330.096L519.792 328.968" stroke="#263238" stroke-miterlimit="10"/>
<path d="M477.264 282.516L473.544 284.052" stroke="#263238" stroke-width="0.75" stroke-miterlimit="10"/>
</g>
<path d="M475.524 278.112L472.692 269.64L469.512 265.284C469.46 265.204 469.383 265.144 469.293 265.113C469.203 265.082 469.105 265.081 469.015 265.112C468.924 265.142 468.846 265.201 468.793 265.28C468.74 265.358 468.714 265.453 468.72 265.548V278.1L471.12 281.256L475.524 278.112Z" fill="#C80036"/>
<mask id="mask6_191_4" style="mask-type:luminance" maskUnits="userSpaceOnUse" x="468" y="265" width="8" height="17">
<path d="M475.524 278.112L472.692 269.64L469.512 265.284C469.46 265.204 469.383 265.144 469.293 265.113C469.203 265.082 469.105 265.081 469.015 265.112C468.924 265.142 468.846 265.201 468.793 265.28C468.74 265.358 468.714 265.453 468.72 265.548V278.1L471.12 281.256L475.524 278.112Z" fill="white"/>
</mask>
<g mask="url(#mask6_191_4)">
<path opacity="0.5" d="M475.524 278.112L472.692 269.64L469.512 265.284C469.46 265.204 469.383 265.144 469.293 265.113C469.203 265.082 469.105 265.081 469.015 265.112C468.924 265.142 468.846 265.201 468.793 265.28C468.74 265.358 468.714 265.453 468.72 265.548V278.1L471.12 281.256L475.524 278.112Z" fill="white"/>
</g>
<path d="M475.524 278.112L472.692 269.64L469.512 265.284C469.46 265.204 469.383 265.144 469.293 265.113C469.203 265.082 469.105 265.081 469.015 265.112C468.924 265.142 468.846 265.201 468.793 265.28C468.74 265.358 468.714 265.453 468.72 265.548V278.1L471.12 281.256L475.524 278.112Z" stroke="#263238" stroke-miterlimit="10"/>
<path d="M529.032 292.8C527.891 294.246 527.073 295.919 526.632 297.708C526.284 300.012 526.836 308.88 526.836 308.88L514.476 310.272C514.476 310.272 515.412 301.26 515.46 299.76C515.856 297.899 516.644 296.145 517.772 294.614C518.899 293.082 520.341 291.809 522 290.88C526.248 288.792 529.86 289.812 529.032 292.8Z" fill="white"/>
<mask id="mask7_191_4" style="mask-type:luminance" maskUnits="userSpaceOnUse" x="514" y="289" width="16" height="22">
<path d="M529.032 292.8C527.891 294.246 527.073 295.919 526.632 297.708C526.284 300.012 526.836 308.88 526.836 308.88L514.476 310.272C514.476 310.272 515.412 301.26 515.46 299.76C515.856 297.899 516.644 296.145 517.772 294.614C518.899 293.082 520.341 291.809 522 290.88C526.248 288.792 529.86 289.812 529.032 292.8Z" fill="white"/>
</mask>
<g mask="url(#mask7_191_4)">
<g style="mix-blend-mode:multiply" opacity="0.5">
<path d="M528.948 292.896C526.704 292.284 523.98 291.6 521.676 291.048C520.092 291.991 518.719 293.25 517.644 294.747C516.568 296.244 515.812 297.946 515.424 299.748C515.424 300.324 515.256 302.004 515.088 303.852C516.288 303.576 518.196 303.156 519.612 302.904C520.734 302.723 521.838 302.446 522.912 302.076L522.492 309.276H522.768L526.8 308.82C526.8 308.82 526.248 299.952 526.596 297.648C527.034 295.915 527.836 294.295 528.948 292.896Z" fill="#C80036"/>
</g>
</g>
<path d="M529.032 292.8C527.891 294.246 527.073 295.919 526.632 297.708C526.284 300.012 526.836 308.88 526.836 308.88L514.476 310.272C514.476 310.272 515.412 301.26 515.46 299.76C515.856 297.899 516.644 296.145 517.772 294.614C518.899 293.082 520.341 291.809 522 290.88C526.248 288.792 529.86 289.812 529.032 292.8Z" stroke="#263238" stroke-width="1.00396" stroke-miterlimit="10"/>
<path d="M531.6 294.324C541.848 280.788 517.14 266.724 510.648 280.176C509.743 281.835 509.027 283.59 508.512 285.408C507.528 286.008 504.912 287.616 504.432 288.06C503.952 288.504 505.632 289.644 506.556 290.208C504.792 294.54 505.056 299.1 505.56 300.132C506.436 301.908 510.756 301.932 513.6 301.404C516.444 300.876 517.572 298.152 518.4 297.408C519.228 296.664 523.356 297.612 524.808 298.044C526.26 298.476 529.608 297 531.6 294.324Z" fill="white"/>
<mask id="mask8_191_4" style="mask-type:luminance" maskUnits="userSpaceOnUse" x="504" y="274" width="31" height="28">
<path d="M531.6 294.324C541.848 280.788 517.14 266.724 510.648 280.176C509.743 281.835 509.027 283.59 508.512 285.408C507.528 286.008 504.912 287.616 504.432 288.06C503.952 288.504 505.632 289.644 506.556 290.208C504.792 294.54 505.056 299.1 505.56 300.132C506.436 301.908 510.756 301.932 513.6 301.404C516.444 300.876 517.572 298.152 518.4 297.408C519.228 296.664 523.356 297.612 524.808 298.044C526.26 298.476 529.608 297 531.6 294.324Z" fill="white"/>
</mask>
<g mask="url(#mask8_191_4)">
<g style="mix-blend-mode:multiply" opacity="0.5">
<path d="M521.46 293.028C521.46 293.028 521.676 294.048 519.612 294.876C517.548 295.704 517.14 295.08 516.528 296.52C516.268 297.467 515.742 298.319 515.013 298.976C514.283 299.634 513.381 300.068 512.412 300.228C510.457 300.599 508.482 300.851 506.496 300.984C508.128 301.896 511.368 301.824 513.696 301.404C516.528 300.888 517.668 298.152 518.496 297.408C519.324 296.664 523.452 297.612 524.904 298.044C525.245 298.112 525.595 298.112 525.936 298.044C526.478 296.838 526.803 295.546 526.896 294.228L521.46 293.028Z" fill="#C80036"/>
</g>
</g>
<path d="M531.6 294.324C541.848 280.788 517.14 266.724 510.648 280.176C509.743 281.835 509.027 283.59 508.512 285.408C507.528 286.008 504.912 287.616 504.432 288.06C503.952 288.504 505.632 289.644 506.556 290.208C504.792 294.54 505.056 299.1 505.56 300.132C506.436 301.908 510.756 301.932 513.6 301.404C516.444 300.876 517.572 298.152 518.4 297.408C519.228 296.664 523.356 297.612 524.808 298.044C526.26 298.476 529.608 297 531.6 294.324Z" stroke="#263238" stroke-miterlimit="10"/>
<path d="M511.584 286.596C511.32 287.172 510.876 287.532 510.588 287.4C510.3 287.268 510.276 286.692 510.588 286.116C510.9 285.54 511.296 285.18 511.584 285.312C511.872 285.444 511.848 286.02 511.584 286.596Z" fill="#263238"/>
<path d="M511.344 282.9C511.344 282.9 512.544 281.904 512.784 284.196" stroke="#263238" stroke-width="0.5" stroke-linecap="round" stroke-linejoin="round"/>
<path d="M506.316 292.536C506.316 292.536 506.316 293.736 508.476 293.736" stroke="#263238" stroke-width="0.5" stroke-linecap="round" stroke-linejoin="round"/>
<path d="M503.388 371.064L502.44 382.8C502.44 382.8 495.876 429.528 496.188 434.892C496.5 440.256 497.208 495.672 497.208 495.672L505.116 496.932L513.996 435.468L526.464 373.008L503.388 371.064Z" fill="#C80036" stroke="#263238" stroke-miterlimit="10"/>
<path opacity="0.2" d="M503.388 371.064L502.44 382.8C502.44 382.8 495.876 429.528 496.188 434.892C496.5 440.256 497.208 495.672 497.208 495.672L505.116 496.932L513.996 435.468L526.464 373.008L503.388 371.064Z" fill="#263238"/>
<path d="M513.396 413.748C513.396 413.748 510.36 431.616 508.068 440.376C505.776 449.136 505.788 457.872 505.788 467.376C505.788 476.88 502.368 494.4 502.368 494.4" stroke="#263238" stroke-width="0.75" stroke-miterlimit="10"/>
<path d="M519.432 368.184C524.64 365.448 530.232 363.636 531.828 367.272C534.996 374.544 531.204 385.596 531.204 385.596L534.096 436.572L539.388 498.072L531.48 496.8C531.48 496.8 519.336 444.9 517.44 441.732C515.544 438.564 512.556 394.128 512.556 394.128L506.556 388.668" fill="#C80036"/>
<path d="M519.432 368.184C524.64 365.448 530.232 363.636 531.828 367.272C534.996 374.544 531.204 385.596 531.204 385.596L534.096 436.572L539.388 498.072L531.48 496.8C531.48 496.8 519.336 444.9 517.44 441.732C515.544 438.564 512.556 394.128 512.556 394.128L506.556 388.668" stroke="#263238" stroke-miterlimit="10"/>
<g opacity="0.2">
<path d="M519.432 368.184C524.64 365.448 530.232 363.636 531.828 367.272C534.996 374.544 531.204 385.596 531.204 385.596L534.096 436.572L539.388 498.072L531.48 496.8C531.48 496.8 519.336 444.9 517.44 441.732C515.544 438.564 512.556 394.128 512.556 394.128L506.556 388.668" fill="#263238"/>
</g>
<path d="M525.6 406.8C525.78 418.62 526.98 424.308 527.916 427.428C529.056 431.232 528.672 438.456 528.672 441.828C528.672 445.2 527.148 441.072 530.58 456.672C534.012 472.272 536.28 493.944 536.28 493.944" stroke="#263238" stroke-width="0.75" stroke-miterlimit="10"/>
<path d="M525.6 381.036C525.6 381.036 525.972 380.268 525.6 398.148C525.6 399.108 525.6 400.032 525.6 400.932" stroke="#263238" stroke-width="0.75" stroke-miterlimit="10"/>
<path d="M508.044 377.64L507.792 382.992L506.556 386.712L508.404 388.872" stroke="#263238" stroke-width="0.75" stroke-linecap="round" stroke-linejoin="round"/>
<path d="M505.62 380.832C505.62 380.832 508.716 383.928 516.756 382.992" stroke="#263238" stroke-width="0.75" stroke-linecap="round" stroke-linejoin="round"/>
<path d="M524.616 378.156C530.616 376.956 531 375.3 533.076 373.908C533.115 371.638 532.707 369.384 531.876 367.272C530.304 363.672 524.676 365.448 519.48 368.184L516.96 372.168L503.436 371.064L503.004 376.368C509.948 378.75 517.375 379.364 524.616 378.156Z" fill="#263238"/>
<path d="M504.744 374.736L504.612 376.848L508.044 377.64L508.308 374.868L504.744 374.736Z" fill="white" stroke="#263238" stroke-width="0.75" stroke-miterlimit="10"/>
<path d="M528.696 377.868L528.12 372.612L529.86 372.036L530.736 376.704" fill="#C80036"/>
<path d="M528.696 377.868L528.12 372.612L529.86 372.036L530.736 376.704" stroke="#263238" stroke-miterlimit="10"/>
<path d="M515.28 379.62L514.116 373.488H517.032L518.196 378.744" fill="#C80036"/>
<path d="M515.28 379.62L514.116 373.488H517.032L518.196 378.744" stroke="#263238" stroke-miterlimit="10"/>
<g opacity="0.2">
<path d="M528.696 377.868L528.12 372.612L529.86 372.036L530.736 376.704" fill="#263238"/>
<path d="M515.28 379.62L514.116 373.488H517.032L518.196 378.744" fill="#263238"/>
</g>
<path d="M501.84 324.552C501.84 324.552 500.844 331.212 497.856 342.552C494.868 353.892 491.856 367.488 491.856 367.488L493.524 374.472L498.504 367.152L501.84 324.552Z" fill="#263238" stroke="#263238" stroke-miterlimit="10"/>
<path d="M510.156 314.916C510.156 314.916 503.172 316.572 502.512 319.896C502.156 321.426 501.931 322.984 501.84 324.552L512.484 315.912L525.792 310.584L510.156 314.916Z" fill="#263238" stroke="#263238" stroke-miterlimit="10"/>
<path d="M512.064 312.348C512.064 312.348 506.388 318.768 504.132 321.408C501.876 324.048 501.864 352.38 501.864 356.544C501.864 360.708 499.608 372.012 503.376 374.28C507.144 376.548 530.196 375.792 532.464 372.012C534.732 368.232 536.232 322.92 535.86 318.768C535.578 316.905 534.844 315.139 533.723 313.625C532.602 312.111 531.127 310.894 529.428 310.08C526.8 308.868 512.064 312.348 512.064 312.348Z" fill="white"/>
<mask id="mask9_191_4" style="mask-type:luminance" maskUnits="userSpaceOnUse" x="501" y="309" width="35" height="67">
<path d="M512.064 312.348C512.064 312.348 506.388 318.768 504.132 321.408C501.876 324.048 501.864 352.38 501.864 356.544C501.864 360.708 499.608 372.012 503.376 374.28C507.144 376.548 530.196 375.792 532.464 372.012C534.732 368.232 536.232 322.92 535.86 318.768C535.578 316.905 534.844 315.139 533.723 313.625C532.602 312.111 531.127 310.894 529.428 310.08C526.8 308.868 512.064 312.348 512.064 312.348Z" fill="white"/>
</mask>
<g mask="url(#mask9_191_4)">
<g style="mix-blend-mode:multiply" opacity="0.5">
<path d="M529.428 310.08C529.115 309.953 528.782 309.88 528.444 309.864L526.812 310.716C529.559 312.966 531.449 316.093 532.164 319.572C532.923 324.625 532.854 329.768 531.96 334.8C531.144 340.356 517.968 334.8 520.44 336.864C522.912 338.928 532.164 342.42 532.584 344.268C533.004 346.116 528 349.2 526.2 349.416C524.4 349.632 527.4 353.736 529.284 357.228C531.168 360.72 530.484 365.628 526.2 368.964C521.916 372.3 511.968 373.944 507.672 374.112C506.28 374.112 505.416 374.472 505.152 374.88C511.752 376.356 530.436 375.396 532.464 372.012C534.732 368.232 536.232 322.92 535.86 318.768C535.578 316.905 534.844 315.14 533.723 313.625C532.602 312.111 531.127 310.894 529.428 310.08Z" fill="#C80036"/>
</g>
</g>
<path d="M512.064 312.348C512.064 312.348 506.388 318.768 504.132 321.408C501.876 324.048 501.864 352.38 501.864 356.544C501.864 360.708 499.608 372.012 503.376 374.28C507.144 376.548 530.196 375.792 532.464 372.012C534.732 368.232 536.232 322.92 535.86 318.768C535.578 316.905 534.844 315.139 533.723 313.625C532.602 312.111 531.127 310.894 529.428 310.08C526.8 308.868 512.064 312.348 512.064 312.348Z" stroke="#263238" stroke-miterlimit="10"/>
<path d="M523.668 341.088C517.584 339.192 512.256 333.888 512.256 333.888C513.606 340.19 517.271 345.757 522.528 349.488" fill="white"/>
<path d="M523.668 341.088C517.584 339.192 512.256 333.888 512.256 333.888C513.606 340.19 517.271 345.757 522.528 349.488" stroke="#263238" stroke-width="0.75" stroke-linecap="round" stroke-linejoin="round"/>
<path d="M528.3 305.928L510.168 310.08L509.04 315.372L529.428 310.08L528.3 305.928Z" fill="white" stroke="#263238" stroke-miterlimit="10"/>
<path d="M506.172 504.852L505.116 496.884L497.208 495.624L490.62 500.316L484.716 503.556V504.852H506.172Z" fill="#263238" stroke="#263238" stroke-miterlimit="10"/>
<path d="M540.372 505.476L539.388 498.072L531.48 496.8L524.892 501.492L518.988 504.744V505.476H540.372Z" fill="#263238" stroke="#263238" stroke-miterlimit="10"/>
<path d="M472.068 271.2L467.196 268.38C467.196 268.38 465.3 268.152 466.116 270.264L470.988 274.02" fill="white"/>
<path d="M472.068 271.2L467.196 268.38C467.196 268.38 465.3 268.152 466.116 270.264L470.988 274.02" stroke="#263238" stroke-linecap="round" stroke-linejoin="round"/>
<path d="M471.348 278.532C471.119 277.953 470.781 277.423 470.352 276.972L469.44 275.988L464.484 269.844C464.484 269.844 462.948 268.812 463.284 271.044L466.356 277.044L460.896 271.92C460.896 271.92 459.864 271.068 459.864 272.268C459.864 273.468 464.82 278.76 464.82 278.76L459.348 276.192C459.348 276.192 458.148 277.044 459.012 277.896C459.876 278.748 464.472 280.464 464.472 280.464L460.38 280.296C460.38 280.296 459.18 281.316 460.032 281.664C460.884 282.012 465.672 283.02 465.672 283.02C466.28 283.537 466.975 283.943 467.724 284.22L468.924 286.44L473.52 284.124L471.348 278.532Z" fill="white" stroke="#263238" stroke-linecap="round" stroke-linejoin="round"/>
<path d="M520.416 331.8L493.032 338.22C491.63 338.467 490.186 338.22 488.946 337.522C487.705 336.824 486.745 335.718 486.228 334.392L468.948 286.392L473.544 284.076L492.636 319.44C493.069 320.249 493.751 320.896 494.581 321.288C495.411 321.679 496.345 321.792 497.244 321.612L518.184 315.696" fill="white"/>
<path d="M520.416 331.8L493.032 338.22C491.63 338.467 490.186 338.22 488.946 337.522C487.705 336.824 486.745 335.718 486.228 334.392L468.948 286.392L473.544 284.076L492.636 319.44C493.069 320.249 493.751 320.896 494.581 321.288C495.411 321.679 496.345 321.792 497.244 321.612L518.184 315.696" stroke="#263238" stroke-miterlimit="10"/>
<path d="M476.124 288.6L470.796 291.264" stroke="#263238" stroke-width="0.75" stroke-miterlimit="10"/>
<path d="M517.008 280.32C517.008 280.32 514.092 283.236 515.544 285.42C516.404 286.681 517.06 288.07 517.488 289.536C517.488 289.536 516.288 292.452 517.248 292.452C518.208 292.452 517.728 290.268 519.432 290.76C521.136 291.252 522.828 294.156 521.376 295.128C520.289 295.735 519.138 296.218 517.944 296.568C517.792 296.614 517.656 296.704 517.555 296.827C517.453 296.949 517.389 297.098 517.371 297.257C517.353 297.415 517.382 297.575 517.454 297.717C517.526 297.859 517.638 297.976 517.776 298.056C519.355 299.122 521.173 299.782 523.068 299.976C524.618 300.009 526.166 299.848 527.676 299.496C527.676 299.496 532.476 292.944 535.932 291.24C539.388 289.536 537.876 281.772 537.876 280.8C537.876 279.828 534.48 277.644 534.48 277.644C534.48 277.644 535.452 275.46 531.084 270.612C526.716 265.764 518.46 264.78 518.22 266.484C518.135 266.935 518.182 267.401 518.354 267.826C518.527 268.251 518.817 268.618 519.192 268.884C519.192 268.884 511.908 265.728 508.512 269.124C505.116 272.52 517.008 280.32 517.008 280.32Z" fill="#263238" stroke="#263238" stroke-miterlimit="10"/>
<path d="M517.008 280.32C517.008 280.32 522.912 287.52 531.66 288.216" stroke="white" stroke-width="0.5" stroke-linecap="round" stroke-linejoin="round"/>
<path d="M514.92 282.516C514.92 282.516 517.668 290.508 529.032 292.788" stroke="white" stroke-width="0.5" stroke-linecap="round" stroke-linejoin="round"/>
</svg>
