<svg width="77" height="63" viewBox="0 0 77 63" fill="none" xmlns="http://www.w3.org/2000/svg">
<path d="M11.55 38.6633V46.396C11.5808 51.8321 14.1372 50.9873 16.0314 49.3557L26.95 39.4559V44.4628C26.95 49.1604 28.028 50.2623 32.725 50.2623H50.05C50.05 50.2623 60.0773 62.103 60.1562 62.0237C61.6 63.7945 65.5097 63.1913 65.45 59.9282V50.2623H71.225C75.9412 50.2623 77 49.085 77 44.4628V15.4653C77 10.8257 75.8643 9.66583 71.225 9.66583H51.975V5.7995C51.975 1.02458 51.0895 0 46.2 0H5.775C1.232 0 0 0.985915 0 5.7995V30.9307C0 35.6457 1.05875 38.6633 5.775 38.6633H11.55ZM59.675 44.4628V53.5893L51.975 44.4628H34.65C33.2062 44.4628 32.725 43.9409 32.725 42.5297V17.3985C32.725 16.1033 33.3218 15.4653 34.65 15.4653H69.3C70.6263 15.4653 71.225 16.1806 71.225 17.2825V42.5297C71.225 43.9235 70.5339 44.4628 69.3 44.4628H59.675Z" fill="#C80036"/>
</svg>
