<svg width="152" height="152" viewBox="0 0 152 152" fill="none" xmlns="http://www.w3.org/2000/svg">
<path d="M22.3507 0C10.0068 0 0 10.0067 0 22.3506V102.813C0 115.157 10.0068 125.164 22.3507 125.164H66.8255C67.8089 121.932 69.3558 118.905 71.3882 116.223H22.3507C14.9443 116.223 8.94027 110.219 8.94027 102.813V35.7497H116.224V71.0094L117.135 70.0974C119.516 67.7171 122.247 65.9021 125.164 64.6526V22.3506C125.164 10.0067 115.157 0 102.813 0H22.3507ZM8.93151 22.3397C8.93151 14.9334 14.9356 8.92935 22.3419 8.92935H102.804C110.211 8.92935 116.215 14.9334 116.215 22.3397V26.8099H8.93151V22.3397ZM56.791 45.9994C58.5367 47.7451 58.5367 50.5754 56.791 52.3211L37.6013 71.5109L56.791 90.7007C58.5367 92.4467 58.5367 95.2763 56.791 97.0223C55.0453 98.7684 52.215 98.7684 50.4693 97.0223L28.1187 74.6717C26.3729 72.9257 26.3729 70.0957 28.1186 68.35L50.4693 45.9994C52.215 44.2536 55.0453 44.2536 56.791 45.9994ZM72.831 90.7007C71.0857 92.4467 71.0858 95.2772 72.831 97.0223C74.577 98.7684 77.4075 98.7684 79.1536 97.0223L101.504 74.6717C103.249 72.9266 103.249 70.0959 101.504 68.3502L79.1536 45.9997C77.4075 44.2539 74.577 44.2539 72.831 45.9997C71.0858 47.7453 71.0858 50.5756 72.831 52.3213L92.0213 71.5111L72.831 90.7007ZM123.458 76.4195L80.2818 119.596C77.7643 122.113 75.978 125.267 75.1144 128.721L71.7671 142.113C70.3108 147.936 75.5864 153.211 81.4101 151.755L94.8017 148.407C98.2553 147.544 101.409 145.758 103.927 143.241L147.103 100.065C153.632 93.5347 153.632 82.9486 147.103 76.4195C140.574 69.8896 129.987 69.8896 123.458 76.4195Z" fill="#C80036"/>
</svg>
