<svg width="133" height="142" viewBox="0 0 133 142" fill="none" xmlns="http://www.w3.org/2000/svg">
<path d="M57.3715 1.41034C55.0523 2.57062 54.1978 4.30025 53.5744 5.71436C52.951 7.12847 52.5605 8.23971 51.4823 9.47462C50.4041 10.7095 48.5561 12.1433 44.8834 13.622C41.2108 15.1006 38.8923 15.3491 37.2523 15.2072C35.6124 15.0652 34.562 14.5203 33.128 13.9353C31.4076 13.2334 29.6252 12.7841 27.3771 13.4837C25.1289 14.1833 22.8806 15.8152 19.7506 18.8799C16.6205 21.9445 14.9358 24.1536 14.1931 26.3866C13.4108 28.7384 13.9986 30.6939 14.5618 32.1329C15.125 33.5719 15.6457 34.6316 15.7599 36.2618C15.874 37.8921 15.5827 40.1938 14.0364 43.8238C12.4902 47.4538 11.0377 49.2456 9.76929 50.3167C8.50086 51.3878 7.33855 51.7976 5.88461 52.4595C4.13513 53.2559 2.59589 54.2816 1.53452 56.4502C0.473153 58.6187 0.0373636 61.4811 0 66.0628C0.0374528 70.6445 0.473153 73.5068 1.53452 75.6754C2.69361 78.0436 4.43069 79.0042 5.88461 79.666C7.33854 80.3279 8.50093 80.7377 9.76929 81.8088C11.0377 82.88 12.4902 84.6717 14.0364 88.3017C15.5827 91.9317 15.874 94.2335 15.7599 95.8637C15.6457 97.494 15.125 98.5536 14.5618 99.9926C13.9244 101.621 13.4504 103.506 14.1931 105.739C14.8954 107.85 16.6205 110.181 19.7506 113.246C22.8806 116.31 25.2633 117.984 27.3771 118.642C29.8405 119.408 31.6941 118.775 33.128 118.19C34.562 117.605 35.6124 117.06 37.2523 116.918C38.8158 116.783 41.2108 117.025 44.8834 118.504C46.9694 119.343 48.4444 120.172 49.5469 120.955V125.052C49.5459 128.932 52.6748 132.125 56.6204 132.125V134.494C56.6204 138.374 59.7674 141.563 63.7124 141.563H68.4127C72.3577 141.563 75.5046 138.374 75.5046 134.494V132.125C79.4503 132.125 82.5791 128.932 82.5782 125.052V120.955C83.6807 120.172 85.1556 119.343 87.2416 118.503C90.9143 117.025 93.3092 116.783 94.8727 116.918C96.5127 117.06 97.563 117.605 98.997 118.19C100.431 118.775 102.285 119.408 104.748 118.642C106.862 117.984 109.244 116.31 112.374 113.245C115.505 110.181 117.23 107.85 117.932 105.739C118.675 103.506 118.201 101.621 117.563 99.9924C117 98.5534 116.479 97.4938 116.365 95.8635C116.251 94.2333 116.542 91.9315 118.089 88.3016C119.635 84.6715 121.087 82.8798 122.356 81.8086C123.624 80.7375 124.786 80.3277 126.24 79.6658C127.694 79.004 129.431 78.0434 130.591 75.6752C131.652 73.5067 132.088 70.6443 132.125 66.0626C132.088 61.4809 131.652 58.6185 130.591 56.45C129.529 54.2814 127.99 53.2557 126.24 52.4593C124.786 51.7975 123.624 51.3876 122.356 50.3165C121.087 49.2454 119.635 47.4536 118.089 43.8236C116.542 40.1936 116.251 37.8919 116.365 36.2617C116.479 34.6314 117 33.5717 117.563 32.1327C118.126 30.6937 118.714 28.7382 117.932 26.3864C117.189 24.1534 115.505 21.9443 112.374 18.8797C109.244 15.815 106.996 14.1831 104.748 13.4835C102.5 12.784 100.717 13.2332 98.997 13.9351C97.563 14.5201 96.5127 15.065 94.8727 15.207C93.2327 15.3489 90.9143 15.1004 87.2416 13.6218C83.569 12.1431 81.721 10.7093 80.6427 9.47441C79.5645 8.23951 79.174 7.12827 78.5506 5.71416C77.9272 4.30006 77.0728 2.57042 74.7535 1.41015C72.8436 0.454692 70.3327 0.040663 66.0625 0C61.7923 0.0411178 59.2814 0.454888 57.3715 1.41034ZM72.6476 5.62661C73.3933 5.99963 73.7321 6.43524 74.2512 7.61273C74.7703 8.79019 75.4315 10.6763 77.0899 12.5757C78.7482 14.4751 81.3275 16.3225 85.4813 17.9949C89.6351 19.6673 92.7588 20.125 95.2736 19.9073C97.7884 19.6895 99.5984 18.7961 100.794 18.3083C101.692 17.942 102.33 17.6827 103.333 17.9949C104.337 18.3071 106.176 19.4141 109.066 22.2436C111.956 25.0731 113.091 26.7967 113.453 27.884C113.714 28.6698 113.627 29.2112 113.158 30.4093C112.689 31.6074 111.836 33.4166 111.66 35.9298C111.484 38.4431 111.983 41.5569 113.734 45.6669C115.485 49.7768 117.399 52.2992 119.324 53.9247C121.248 55.5501 123.119 56.2135 124.287 56.7449C125.099 57.1149 125.822 57.4576 126.342 58.519C126.86 59.5779 127.37 61.8388 127.406 66.0626C127.37 70.2863 126.891 72.4842 126.342 73.6061C125.822 74.6675 125.08 75.0189 124.287 75.3802C123.119 75.9116 121.248 76.575 119.324 78.2004C117.399 79.8259 115.485 82.3483 113.734 86.4583C111.983 90.5682 111.484 93.682 111.66 96.1953C111.836 98.7086 112.689 100.518 113.158 101.716C113.486 102.554 113.781 103.253 113.453 104.241C113.124 105.229 111.956 107.052 109.066 109.882C106.176 112.711 104.42 113.811 103.333 114.149C102.542 114.395 101.99 114.305 100.794 113.817C99.5984 113.329 97.7884 112.436 95.2736 112.218C92.7588 112 89.6351 112.458 85.4813 114.13C84.3977 114.566 83.4581 115.015 82.5782 115.471V110.895C85.6968 110.89 85.6914 106.24 82.6147 106.172C82.7633 104.567 83.5951 102.844 85.0801 100.79C86.7216 98.519 89.0732 95.9653 91.49 93.0064C96.3238 87.0887 101.453 79.4413 101.453 68.1685C101.453 48.966 85.636 33.3706 66.0622 33.0313C46.4885 33.3707 30.6716 48.966 30.6716 68.1685C30.6716 79.4413 35.8006 87.0887 40.6344 93.0064C43.0513 95.9653 45.4028 98.519 47.0444 100.79C48.528 102.842 49.3416 104.578 49.4913 106.181C46.4073 106.244 46.4209 110.895 49.5466 110.895V115.471C48.6666 115.015 47.727 114.566 46.6434 114.13C42.4896 112.458 39.3659 112 36.8511 112.218C34.3363 112.436 32.5264 113.329 31.3306 113.817C30.1347 114.305 29.5832 114.395 28.7915 114.149C27.7052 113.811 25.9488 112.711 23.0589 109.882C20.169 107.052 19.0005 105.229 18.6719 104.241C18.3433 103.253 18.639 102.554 18.9668 101.716C19.4357 100.518 20.2885 98.7086 20.4645 96.1953C20.6405 93.682 20.1415 90.5682 18.3908 86.4583C16.6401 82.3483 14.726 79.8259 12.8011 78.2004C10.8763 76.575 9.0054 75.9116 7.83814 75.3802C7.04441 75.0189 6.30234 74.6675 5.78291 73.6061C5.23378 72.4842 4.75498 70.2863 4.71842 66.0626C4.75498 61.8388 5.26461 59.5779 5.78291 58.519C6.30234 57.4577 7.02533 57.1149 7.83814 56.7449C9.00542 56.2135 10.8763 55.5501 12.8011 53.9247C14.726 52.2992 16.6401 49.7768 18.3908 45.6669C20.1416 41.5569 20.6405 38.4431 20.4645 35.9298C20.2885 33.4166 19.4357 31.6074 18.9668 30.4093C18.498 29.2112 18.4106 28.6698 18.6719 27.884C19.0336 26.7967 20.169 25.0731 23.0589 22.2436C25.9488 19.4141 27.7881 18.3071 28.7915 17.9949C29.7948 17.6827 30.4327 17.9423 31.3305 18.3083C32.5264 18.7961 34.3363 19.6895 36.8511 19.9073C39.3659 20.125 42.4896 19.6673 46.6434 17.9949C50.7972 16.3225 53.3765 14.4751 55.0349 12.5757C56.6933 10.6763 57.3544 8.79019 57.8735 7.61273C58.3926 6.43527 58.7314 5.99964 59.4771 5.62661C60.3702 5.17986 62.3824 4.74986 66.0624 4.73729C69.7423 4.74977 71.7545 5.17986 72.6476 5.62661ZM66.0625 37.7731C83.1121 38.1119 96.7344 51.584 96.7344 68.1685C96.7344 77.7315 92.4397 84.3937 87.8361 90.0296C85.5342 92.8476 83.1485 95.3955 81.251 98.0202C79.4579 100.5 78.0213 103.158 77.8686 106.172H68.4127V93.2L75.9931 85.638C77.5472 84.1448 76.4565 81.5208 74.3019 81.569C73.6758 81.5833 73.0809 81.8449 72.6476 82.2971L66.0625 88.8592L59.4775 82.2971C59.0442 81.8449 58.4493 81.5831 57.8232 81.569C55.6685 81.5209 54.5779 84.1448 56.132 85.6381L63.6939 93.2V106.172H54.238C54.0853 103.158 52.6672 100.5 50.8741 98.0202C48.9765 95.3955 46.5908 92.8476 44.289 90.0296C39.6853 84.3937 35.3907 77.7315 35.3907 68.1685C35.3907 51.584 49.013 38.1119 66.0625 37.7731ZM66.0625 43.9942C62.9159 43.9942 62.9159 48.7175 66.0625 48.7175C73.0941 48.7175 79.5869 52.447 83.0989 58.5052C84.8402 61.2871 88.7072 58.7232 87.1725 56.1366C82.8172 48.6235 74.7656 43.9942 66.0625 43.9942ZM89.6655 63.7032C88.3643 63.698 87.3045 64.7475 87.2969 66.0488C87.2891 67.3483 88.3338 68.4093 89.6332 68.422C90.9345 68.4345 92.0005 67.3915 92.0157 66.0764C92.0157 64.7632 90.965 63.7083 89.6655 63.7032Z" fill="#C80036"/>
</svg>
