<svg width="185" height="179" viewBox="0 0 185 179" fill="none" xmlns="http://www.w3.org/2000/svg">
<path d="M142.305 93.011C118.72 93.011 81.3555 135.676 81.3555 135.676C81.3555 135.676 118.985 178.341 142.305 178.341C165.625 178.341 184.97 159.261 184.97 135.676C184.97 112.091 165.89 93.011 142.305 93.011ZM142.305 161.911C141.51 161.911 133.03 161.381 113.685 144.686C109.975 141.506 106.53 138.326 103.615 135.411C106.53 132.496 109.975 129.316 113.42 126.401C133.03 109.441 141.51 108.911 142.305 108.911C156.88 108.911 168.805 120.836 168.805 135.411C168.805 149.986 157.145 161.911 142.305 161.911Z" fill="#C80036"/>
<path d="M42.665 93.011C19.08 93.011 0 112.091 0 135.676C0 159.261 19.08 178.341 42.665 178.341C66.25 178.341 103.615 135.676 103.615 135.676C103.615 135.676 65.985 93.011 42.665 93.011ZM71.285 144.951C51.94 161.646 43.46 162.176 42.665 162.176C28.09 162.176 16.165 150.251 16.165 135.676C16.165 121.101 28.09 109.176 42.665 109.176C43.46 109.176 51.94 109.706 71.55 126.666C75.26 129.846 78.44 133.026 81.355 135.676C78.44 138.326 74.995 141.771 71.285 144.951Z" fill="#C80036"/>
<path d="M106.354 80.9783C124.879 73.3049 133.676 52.067 126.003 33.5422C118.329 15.0173 97.0914 6.22052 78.5666 13.8939C60.0418 21.5673 51.2449 42.8052 58.9183 61.33C66.5917 79.8549 87.8296 88.6517 106.354 80.9783Z" fill="#005EB8"/>
<path d="M92.4846 76.3159C108.437 76.3159 121.37 63.3836 121.37 47.4309C121.37 31.4782 108.437 18.5459 92.4846 18.5459C76.5319 18.5459 63.5996 31.4782 63.5996 47.4309C63.5996 63.3836 76.5319 76.3159 92.4846 76.3159Z" fill="white"/>
<path d="M98.58 57.7658L90.63 49.5508C90.1 49.0208 89.835 48.2258 89.835 47.6958V30.4708C89.835 28.8808 91.16 27.8208 92.485 27.8208C94.075 27.8208 95.135 29.1458 95.135 30.4708V45.3108C95.135 46.1058 95.4 46.6358 95.93 47.1658L102.555 53.7908C103.615 54.8508 103.615 56.7058 102.555 57.7658C101.495 58.8258 99.905 58.8258 98.58 57.7658Z" fill="#005EB8"/>
<path d="M21.4654 86.1208H15.9004V65.7158C15.9004 54.0558 25.4404 44.7808 36.8354 44.7808H37.3654V50.3458H36.8354C28.3554 50.3458 21.4654 57.2358 21.4654 65.7158V86.1208Z" fill="#0A83F1"/>
<path d="M35.5107 54.5858L47.4357 47.4308L35.5107 40.5408V54.5858Z" fill="#0A83F1"/>
<path d="M169.07 76.3158H163.505V65.7158C163.505 57.2358 156.615 50.3458 148.135 50.3458H137.535V44.7808H148.135C159.795 44.7808 169.07 54.3208 169.07 65.7158V76.3158Z" fill="#0A83F1"/>
<path d="M173.31 74.1958L166.42 86.1208L159.53 74.1958H173.31Z" fill="#0A83F1"/>
</svg>
