<svg width="177" height="177" viewBox="0 0 177 177" fill="none" xmlns="http://www.w3.org/2000/svg">
<path d="M135.184 101.941H40.0833C32.7694 101.766 25.7814 98.8803 20.4757 93.8431C15.1701 88.8059 11.9255 81.977 11.3718 74.682C10.8181 67.3871 12.9947 60.1466 17.4792 54.3663C21.9638 48.586 28.4361 44.6783 35.6398 43.4018C35.6398 42.7012 35.6398 42.019 35.6398 41.3368C35.6571 33.5089 38.1126 25.8809 42.6652 19.513C47.2177 13.145 53.641 8.35365 61.0423 5.80476C68.4436 3.25588 76.4551 3.07615 83.9633 5.29056C91.4714 7.50497 98.1032 12.0035 102.937 18.1608C106.043 17.1396 109.291 16.6108 112.561 16.5937C126.574 16.5937 140.125 28.578 141.268 41.6133C156.553 44.803 166.343 56.1052 166.343 70.763C166.334 79.0257 163.048 86.9475 157.207 92.7918C151.366 98.6361 143.447 101.926 135.184 101.941ZM73.2523 7.37491C68.493 7.36964 63.7858 8.36527 59.4363 10.2972C55.0868 12.2291 51.1921 15.0541 48.0051 18.5888C44.8182 22.1235 42.4101 26.2888 40.9374 30.8145C39.4646 35.3402 38.96 40.125 39.4564 44.8583C39.4775 45.0995 39.451 45.3426 39.3782 45.5735C39.3055 45.8044 39.1879 46.0188 39.0323 46.2043C38.8775 46.3922 38.687 46.5476 38.4718 46.6616C38.2567 46.7755 38.021 46.8457 37.7786 46.868C31.3684 47.7074 25.5066 50.9215 21.3522 55.8749C17.1979 60.8283 15.0535 67.1602 15.3432 73.6186C15.6329 80.077 18.3355 86.1916 22.9166 90.7532C27.4977 95.3147 33.6237 97.9912 40.0833 98.2533H135.184C142.469 98.2387 149.45 95.3371 154.6 90.1843C159.749 85.0315 162.646 78.0477 162.656 70.763C162.656 57.5433 153.437 47.4027 139.185 44.9505C138.752 44.8759 138.36 44.6492 138.079 44.3111C137.799 43.9731 137.648 43.546 137.655 43.1068C137.47 32.6158 126.463 20.2812 112.561 20.2812C109.262 20.3065 105.994 20.9312 102.918 22.1249C102.54 22.2662 102.126 22.2796 101.74 22.1631C101.354 22.0465 101.016 21.8064 100.78 21.4796C97.6323 17.1205 93.4967 13.5695 88.7117 11.1177C83.9268 8.66593 78.6288 7.38328 73.2523 7.37491Z" fill="#C80036"/>
<path d="M49.0439 43.1807C48.555 43.1807 48.086 42.9865 47.7402 42.6407C47.3944 42.2949 47.2002 41.826 47.2002 41.337C47.21 34.4322 49.9585 27.8133 54.8426 22.9326C59.7267 18.0519 66.3476 15.3081 73.2524 15.3032C73.7414 15.3032 74.2103 15.4975 74.5561 15.8432C74.9019 16.189 75.0961 16.658 75.0961 17.147C75.0961 17.636 74.9019 18.1049 74.5561 18.4507C74.2103 18.7965 73.7414 18.9907 73.2524 18.9907C67.3271 19.0005 61.647 21.3573 57.4554 25.5454C53.2639 29.7335 50.9023 35.4117 50.8877 41.337C50.8877 41.826 50.6934 42.2949 50.3477 42.6407C50.0019 42.9865 49.5329 43.1807 49.0439 43.1807Z" fill="#C80036"/>
<path d="M59.2398 134.133H32.5977C32.1087 134.133 31.6397 133.939 31.2939 133.593C30.9482 133.247 30.7539 132.778 30.7539 132.289C30.7539 131.8 30.9482 131.331 31.2939 130.985C31.6397 130.64 32.1087 130.445 32.5977 130.445H57.3961V100.097C57.3961 99.6082 57.5903 99.1392 57.9361 98.7934C58.2819 98.4477 58.7509 98.2534 59.2398 98.2534C59.7288 98.2534 60.1978 98.4477 60.5436 98.7934C60.8893 99.1392 61.0836 99.6082 61.0836 100.097V132.289C61.0836 132.778 60.8893 133.247 60.5436 133.593C60.1978 133.939 59.7288 134.133 59.2398 134.133Z" fill="#C80036"/>
<path d="M79.4844 157.899C78.9954 157.899 78.5264 157.704 78.1806 157.359C77.8349 157.013 77.6406 156.544 77.6406 156.055V100.097C77.6406 99.6082 77.8349 99.1392 78.1806 98.7934C78.5264 98.4477 78.9954 98.2534 79.4844 98.2534C79.9734 98.2534 80.4423 98.4477 80.7881 98.7934C81.1339 99.1392 81.3281 99.6082 81.3281 100.097V156.055C81.3281 156.544 81.1339 157.013 80.7881 157.359C80.4423 157.704 79.9734 157.899 79.4844 157.899Z" fill="#C80036"/>
<path d="M123.531 149.104H102.586C102.097 149.104 101.628 148.91 101.282 148.564C100.936 148.218 100.742 147.749 100.742 147.26V100.097C100.742 99.6082 100.936 99.1392 101.282 98.7934C101.628 98.4477 102.097 98.2534 102.586 98.2534C103.075 98.2534 103.544 98.4477 103.89 98.7934C104.235 99.1392 104.43 99.6082 104.43 100.097V145.417H123.531C124.02 145.417 124.489 145.611 124.835 145.957C125.18 146.302 125.375 146.771 125.375 147.26C125.375 147.749 125.18 148.218 124.835 148.564C124.489 148.91 124.02 149.104 123.531 149.104Z" fill="#C80036"/>
<path d="M144.402 129.911H124.379C123.89 129.911 123.421 129.716 123.075 129.371C122.729 129.025 122.535 128.556 122.535 128.067V100.097C122.535 99.6082 122.729 99.1392 123.075 98.7934C123.421 98.4477 123.89 98.2534 124.379 98.2534C124.868 98.2534 125.337 98.4477 125.683 98.7934C126.028 99.1392 126.223 99.6082 126.223 100.097V126.223H144.402C144.891 126.223 145.36 126.417 145.706 126.763C146.052 127.109 146.246 127.578 146.246 128.067C146.246 128.556 146.052 129.025 145.706 129.371C145.36 129.716 144.891 129.911 144.402 129.911Z" fill="#C80036"/>
<path d="M24.8905 141.84C23.0015 141.84 21.155 141.28 19.5844 140.23C18.0138 139.181 16.7897 137.689 16.0668 135.944C15.344 134.199 15.1548 132.279 15.5234 130.426C15.8919 128.573 16.8015 126.872 18.1372 125.536C19.4728 124.2 21.1746 123.291 23.0272 122.922C24.8799 122.554 26.8002 122.743 28.5453 123.466C30.2905 124.188 31.7821 125.413 32.8315 126.983C33.881 128.554 34.4411 130.4 34.4411 132.289C34.4411 134.822 33.4349 137.251 31.6438 139.042C29.8527 140.834 27.4235 141.84 24.8905 141.84ZM24.8905 126.426C23.7309 126.426 22.5973 126.77 21.6331 127.414C20.6689 128.058 19.9174 128.974 19.4737 130.045C19.0299 131.117 18.9138 132.296 19.14 133.433C19.3662 134.57 19.9246 135.615 20.7446 136.435C21.5646 137.255 22.6093 137.813 23.7466 138.04C24.884 138.266 26.0628 138.15 27.1342 137.706C28.2055 137.262 29.1212 136.511 29.7655 135.547C30.4097 134.582 30.7536 133.449 30.7536 132.289C30.7487 130.736 30.1295 129.247 29.031 128.149C27.9325 127.05 26.444 126.431 24.8905 126.426Z" fill="#C80036"/>
<path d="M79.4841 173.312C77.5944 173.316 75.7461 172.759 74.1731 171.712C72.6 170.665 71.373 169.174 70.6473 167.429C69.9217 165.685 69.7299 163.764 70.0963 161.91C70.4627 160.056 71.3709 158.353 72.7058 157.015C74.0408 155.678 75.7425 154.766 77.5956 154.396C79.4488 154.026 81.37 154.214 83.1163 154.936C84.8625 155.659 86.3552 156.883 87.4054 158.454C88.4557 160.025 89.0163 161.872 89.0163 163.762C89.0163 166.292 88.0126 168.718 86.2255 170.509C84.4384 172.299 82.0139 173.308 79.4841 173.312ZM79.4841 157.899C78.3237 157.895 77.1883 158.236 76.2217 158.878C75.2551 159.52 74.5008 160.434 74.0542 161.505C73.6076 162.576 73.4888 163.756 73.713 164.894C73.9371 166.033 74.4941 167.079 75.3133 167.901C76.1325 168.723 77.1772 169.283 78.315 169.511C79.4529 169.739 80.6327 169.624 81.7051 169.18C82.7775 168.737 83.6943 167.986 84.3394 167.021C84.9845 166.056 85.3288 164.922 85.3288 163.762C85.3288 162.21 84.7136 160.721 83.618 159.622C82.5225 158.523 81.0359 157.904 79.4841 157.899Z" fill="#C80036"/>
<path d="M131.201 156.811C129.312 156.811 127.466 156.251 125.895 155.201C124.324 154.152 123.1 152.66 122.377 150.915C121.655 149.17 121.465 147.25 121.834 145.397C122.202 143.544 123.112 141.843 124.448 140.507C125.783 139.171 127.485 138.262 129.338 137.893C131.19 137.525 133.111 137.714 134.856 138.437C136.601 139.16 138.093 140.384 139.142 141.954C140.192 143.525 140.752 145.371 140.752 147.26C140.747 149.792 139.739 152.218 137.949 154.008C136.159 155.798 133.733 156.806 131.201 156.811ZM131.201 141.397C130.041 141.397 128.908 141.741 127.944 142.385C126.979 143.03 126.228 143.945 125.784 145.017C125.34 146.088 125.224 147.267 125.451 148.404C125.677 149.542 126.235 150.586 127.055 151.406C127.875 152.226 128.92 152.785 130.057 153.011C131.195 153.237 132.373 153.121 133.445 152.677C134.516 152.233 135.432 151.482 136.076 150.518C136.72 149.554 137.064 148.42 137.064 147.26C137.059 145.707 136.44 144.218 135.342 143.12C134.243 142.021 132.755 141.402 131.201 141.397Z" fill="#C80036"/>
<path d="M152.109 137.618C150.22 137.618 148.374 137.057 146.803 136.008C145.233 134.959 144.008 133.467 143.286 131.722C142.563 129.977 142.374 128.056 142.742 126.204C143.111 124.351 144.02 122.649 145.356 121.314C146.692 119.978 148.393 119.068 150.246 118.7C152.099 118.331 154.019 118.52 155.764 119.243C157.509 119.966 159.001 121.19 160.05 122.761C161.1 124.332 161.66 126.178 161.66 128.067C161.66 129.321 161.413 130.563 160.933 131.722C160.453 132.881 159.749 133.933 158.863 134.82C157.976 135.707 156.923 136.411 155.764 136.891C154.605 137.371 153.363 137.618 152.109 137.618ZM152.109 122.222C150.949 122.222 149.815 122.567 148.85 123.212C147.885 123.857 147.134 124.774 146.691 125.846C146.247 126.918 146.132 128.098 146.36 129.236C146.588 130.374 147.148 131.419 147.97 132.238C148.792 133.057 149.838 133.614 150.977 133.838C152.115 134.062 153.295 133.944 154.366 133.497C155.437 133.05 156.351 132.296 156.993 131.329C157.635 130.363 157.976 129.227 157.972 128.067C157.967 126.515 157.348 125.029 156.249 123.933C155.15 122.837 153.661 122.222 152.109 122.222Z" fill="#C80036"/>
</svg>
