<svg width="202" height="202" viewBox="0 0 202 202" fill="none" xmlns="http://www.w3.org/2000/svg">
<path fill-rule="evenodd" clip-rule="evenodd" d="M96.7913 105.208C92.1428 105.208 88.3747 108.977 88.3747 113.625C88.3747 118.274 92.1428 122.042 96.7913 122.042C101.44 122.042 105.208 118.274 105.208 113.625C105.208 108.977 101.44 105.208 96.7913 105.208ZM79.958 113.625C79.958 104.328 87.4943 96.7917 96.7913 96.7917C106.088 96.7917 113.625 104.328 113.625 113.625C113.625 122.922 106.088 130.458 96.7913 130.458C87.4943 130.458 79.958 122.922 79.958 113.625Z" fill="#C80036"/>
<path fill-rule="evenodd" clip-rule="evenodd" d="M76.1706 147.292H117.412C115.463 137.687 106.971 130.458 96.7913 130.458C86.6114 130.458 78.1201 137.687 76.1706 147.292ZM67.333 151.5C67.333 135.231 80.5219 122.042 96.7913 122.042C113.061 122.042 126.25 135.231 126.25 151.5C126.25 153.824 124.365 155.708 122.041 155.708H71.5413C69.2172 155.708 67.333 153.824 67.333 151.5Z" fill="#C80036"/>
<path fill-rule="evenodd" clip-rule="evenodd" d="M37.875 88.3751C37.875 79.0783 45.4115 71.5417 54.7083 71.5417H138.875C148.172 71.5417 155.708 79.0783 155.708 88.3751V164.125C155.708 173.422 148.172 180.958 138.875 180.958H54.7083C45.4115 180.958 37.875 173.422 37.875 164.125V88.3751ZM54.7083 79.9584C50.06 79.9584 46.2917 83.7267 46.2917 88.3751V164.125C46.2917 168.774 50.06 172.542 54.7083 172.542H138.875C143.524 172.542 147.292 168.774 147.292 164.125V88.3751C147.292 83.7267 143.524 79.9584 138.875 79.9584H54.7083Z" fill="#C80036"/>
<path fill-rule="evenodd" clip-rule="evenodd" d="M58.917 54.7084C58.917 36.1148 73.9901 21.0417 92.5837 21.0417H101C119.594 21.0417 134.667 36.1148 134.667 54.7084V75.7501H126.25V54.7084C126.25 40.7633 114.946 29.4584 101 29.4584H92.5837C78.6385 29.4584 67.3337 40.7633 67.3337 54.7084V75.7501H58.917V54.7084Z" fill="#C80036"/>
</svg>
