<svg width="98" height="72" viewBox="0 0 98 72" fill="none" xmlns="http://www.w3.org/2000/svg">
<path d="M96.4454 37.5067C95.7068 35.9595 94.5776 34.7736 93.0656 33.9507C91.5516 33.1262 89.8866 32.7144 88.0702 32.7144H78.3814V24.6404C78.3814 21.5454 77.271 18.8878 75.0511 16.6674C72.8302 14.4472 70.1724 13.3372 67.0781 13.3372H39.6276V11.7225C39.6276 8.62763 38.5172 5.96998 36.2975 3.75029C34.0769 1.53007 31.4194 0.419434 28.3245 0.419434H12.1771C9.08222 0.419434 6.42457 1.5299 4.20417 3.75029C1.98396 5.97016 0.874023 8.62781 0.874023 11.7227V60.1653C0.874023 63.2597 1.98396 65.9173 4.20417 68.137C6.42457 70.3577 9.08222 71.4684 12.1771 71.4684H67.0792C69.3323 71.4684 71.6868 70.8878 74.1437 69.7266C76.5995 68.5667 78.5495 67.0942 79.9961 65.3114L94.8825 46.9944C96.4297 45.0437 97.2026 43.026 97.2026 40.9392C97.2033 39.7278 96.9509 38.5852 96.4454 37.5067ZM7.33337 11.7234C7.33337 10.3783 7.80403 9.23421 8.74606 8.29218C9.68738 7.35068 10.8314 6.87949 12.1773 6.87949H28.3252C29.6711 6.87949 30.8145 7.35015 31.7565 8.29218C32.698 9.23421 33.1692 10.3783 33.1692 11.7234V14.9532C33.1692 16.2992 33.6405 17.4429 34.582 18.3844C35.5235 19.3259 36.6672 19.7973 38.0129 19.7973H67.0783C68.4235 19.7973 69.5684 20.2685 70.5103 21.21C71.4512 22.1513 71.9224 23.2954 71.9224 24.6412V32.7151H33.169C30.8818 32.7151 28.5262 33.2955 26.1041 34.4562C23.6817 35.6169 21.7309 37.0884 20.2505 38.8722L7.33337 54.7667V11.7234ZM89.8357 42.9081L75.0002 61.225C74.1602 62.2676 72.9656 63.1591 71.4173 63.8982C69.8701 64.6386 68.4235 65.0087 67.0781 65.0087H12.1771C10.3942 65.0087 9.50287 64.4196 9.50287 63.2427C9.50287 62.7043 9.80562 62.0317 10.4113 61.2231L25.2466 42.9069C26.1213 41.8636 27.3233 40.9811 28.8544 40.2577C30.3846 39.5343 31.8229 39.1725 33.1688 39.1725H88.07C89.853 39.1725 90.7439 39.7616 90.7439 40.9387C90.7441 41.5122 90.4424 42.1678 89.8357 42.9081Z" fill="#C80036"/>
</svg>
